<?xml version="1.0" encoding="utf-8"?>
<!-- Generator: Adobe Illustrator 18.0.0, SVG Export Plug-In . SVG Version: 6.00 Build 0)  -->
<!DOCTYPE svg PUBLIC "-//W3C//DTD SVG 1.1//EN" "http://www.w3.org/Graphics/SVG/1.1/DTD/svg11.dtd">
<svg version="1.1" id="Layer_1" xmlns="http://www.w3.org/2000/svg" xmlns:xlink="http://www.w3.org/1999/xlink" x="0px" y="0px"
	 viewBox="0 0 375 375" enable-background="new 0 0 375 375" xml:space="preserve">
<g>
	<path d="M340.1,144.1c6.3-55.6-58.1-90-128.8-86.2C195,37.5,154,38.2,116.3,60.3c17.4-10.2,38.8-8,55.5,3.7
		c-6.1,1.6-12.2,3.5-18.3,5.7C66,102.1,15.9,185.4,41,256.4c-9.6,4.3-21.4,11.7-27.9,23.5c-12.1,22.3-0.8,51.9-0.8,51.9
		s31.1-6.5,43.2-28.8c0.3-0.5,0.5-1,0.8-1.5c0.2,0.5,0.5,1,0.8,1.5c12.1,22.3,43.2,28.8,43.2,28.8s11.4-29.6-0.8-51.9
		c-7.4-13.6-21.8-21.3-32-25.2c9.3-22.6,23.2-43,41.7-59.7c27.6-24.9,61.9-38.8,99.1-42.4c-10.5,19.2-30.7,30.9-51.9,28
		c39.8,5.4,75.3-7,86.3-28.5c41.4,2.8,84.7,17.3,124.6,42.7C369.8,176.3,337.9,163,340.1,144.1z M313.8,144.1c-4.4,0-8-3.6-8-8
		c0-4.4,3.6-7.9,8-7.9c4.4,0,8,3.6,8,7.9C321.8,140.5,318.2,144.1,313.8,144.1z"/>
</g>
</svg>
