<?xml version="1.0" encoding="utf-8"?>
<!-- Generator: Adobe Illustrator 18.0.0, SVG Export Plug-In . SVG Version: 6.00 Build 0)  -->
<!DOCTYPE svg PUBLIC "-//W3C//DTD SVG 1.1//EN" "http://www.w3.org/Graphics/SVG/1.1/DTD/svg11.dtd">
<svg version="1.1" id="Layer_1" xmlns="http://www.w3.org/2000/svg" xmlns:xlink="http://www.w3.org/1999/xlink" x="0px" y="0px"
	 viewBox="0 0 375 375" enable-background="new 0 0 375 375" xml:space="preserve">
<g>
	<path d="M367.5,129.3c0-23.2-18.8-42-42-42c-14.9,0-62.2,23.8-94.5,43.2c0.3-0.3,0.6-0.6,1-1c2.7-2.7,5.9-5.8,9.2-9.1l1.3-1.3
		l0.7-0.7l0.3-0.3l0.4-0.5c1.1-1.4,1.7-2.9,2-4.6c0.3-1.6,0.1-3.4-0.5-4.9c-0.3-0.8-0.7-1.5-1.1-2.2c-0.5-0.7-0.8-1-1.2-1.6
		c-1.5-2-3.1-4-4.6-6l-0.6-0.7c-0.1-0.1-0.4-0.5-0.5-0.6c-0.2-0.3-0.4-0.8-0.6-1.3c-0.3-0.9-0.4-1.9-0.2-2.9
		c0.2-0.9,0.6-1.9,1.1-2.6c0.6-0.8,1.4-1.7,2.1-2.5c1.4-1.7,2.7-3.2,4-4.7c4.9-5.8,8.2-9.6,8.2-9.6s-3.7,3.5-9.2,8.7
		c-1.4,1.3-2.9,2.7-4.4,4.2c-0.8,0.8-1.6,1.5-2.4,2.4c-0.9,1-1.6,2.2-2,3.5c-0.4,1.3-0.5,2.8-0.2,4.3c0.2,0.7,0.3,1.4,0.7,2.2
		c0.2,0.4,0.3,0.5,0.5,0.9l0.5,0.8c1.3,2.1,2.6,4.3,4,6.4c0.3,0.5,0.7,1.2,0.9,1.5c0.2,0.4,0.4,0.8,0.5,1.2c0.2,0.8,0.2,1.7-0.1,2.5
		c-0.2,0.8-0.7,1.5-1.2,2l-0.1,0.2l-0.3,0.3l-0.6,0.5c-0.5,0.4-0.9,0.7-1.4,1.1c-3.7,2.9-7.2,5.7-10.1,8c-0.2,0.2-0.4,0.3-0.7,0.5
		c1.2-3.9,1.9-8,1.9-12.4c0-16.6-9.9-30.8-24-37.3c0.1-0.6,0.1-1.2,0.3-1.8c0.1-0.5,0.2-1,0.3-1.6c0.2-0.5,0.3-1.1,0.5-1.6
		c0.3-1.1,0.8-2.2,1.2-3.3c0.5-1.1,1.1-2.2,1.8-3.3c0.6-1.1,1.4-2,2.2-3c0.8-0.9,1.7-1.8,2.6-2.6c0.9-0.8,1.9-1.4,2.8-2.1
		c1-0.5,1.9-1.1,2.8-1.4c0.9-0.4,1.7-0.7,2.5-0.9c0.8-0.2,1.5-0.4,2-0.5c1.2-0.2,1.8-0.3,1.8-0.3s-0.7,0-1.9-0.1
		c-0.6-0.1-1.3,0-2.2,0.1c-0.8,0-1.8,0.2-2.8,0.4c-1,0.1-2.1,0.6-3.3,0.9c-1.1,0.5-2.3,0.9-3.5,1.6c-1.2,0.6-2.3,1.4-3.4,2.3
		c-1.1,0.9-2.2,1.8-3.2,2.9c-1,1-1.9,2.2-2.8,3.3c-0.8,1.2-1.6,2.4-2.2,3.6c-0.3,0.6-0.6,1.2-0.9,1.8c-0.3,0.6-0.5,1.2-0.8,1.8
		c-0.2,0.5-0.4,0.9-0.5,1.4c-3.3-0.9-6.8-1.4-10.3-1.4c-3.6,0-7,0.5-10.3,1.4c-0.2-0.5-0.3-0.9-0.5-1.4c-0.2-0.6-0.5-1.2-0.8-1.8
		c-0.3-0.6-0.6-1.2-0.9-1.8c-0.6-1.2-1.4-2.4-2.2-3.6c-0.9-1.1-1.8-2.3-2.8-3.3c-1-1.1-2.1-2-3.2-2.9c-1.1-0.8-2.3-1.6-3.4-2.3
		c-1.1-0.7-2.4-1.1-3.5-1.6c-1.2-0.4-2.2-0.8-3.3-0.9c-1-0.2-2-0.4-2.8-0.4c-0.8-0.1-1.6-0.1-2.2-0.1c-1.2,0.1-1.9,0.1-1.9,0.1
		s0.7,0.1,1.8,0.3c0.6,0.1,1.3,0.3,2,0.5c0.8,0.2,1.6,0.5,2.5,0.9c0.9,0.3,1.8,0.9,2.8,1.4c0.9,0.6,1.9,1.2,2.8,2.1
		c0.9,0.8,1.8,1.7,2.6,2.6c0.8,1,1.6,1.9,2.2,3c0.7,1,1.2,2.2,1.8,3.3c0.4,1.1,0.9,2.2,1.2,3.3c0.2,0.5,0.3,1.1,0.5,1.6
		c0.1,0.5,0.2,1.1,0.3,1.6c0.1,0.6,0.2,1.2,0.3,1.8c-14.2,6.4-24,20.7-24,37.3c0,4.3,0.7,8.5,1.9,12.4c-0.2-0.2-0.4-0.3-0.7-0.5
		c-3-2.4-6.4-5.1-10.1-8c-0.5-0.4-0.9-0.7-1.4-1.1l-0.6-0.5l-0.3-0.3l-0.1-0.2c-0.5-0.5-0.9-1.2-1.2-2c-0.2-0.8-0.3-1.7-0.1-2.5
		c0.1-0.4,0.2-0.8,0.5-1.2c0.2-0.4,0.6-1,0.9-1.5c1.3-2.2,2.6-4.3,4-6.4l0.5-0.8c0.2-0.4,0.3-0.5,0.5-0.9c0.4-0.8,0.6-1.4,0.7-2.2
		c0.3-1.4,0.2-2.9-0.2-4.3c-0.4-1.3-1.1-2.6-2-3.5c-0.9-0.9-1.7-1.6-2.4-2.4c-1.6-1.5-3.1-2.9-4.4-4.2c-5.5-5.2-9.2-8.7-9.2-8.7
		s3.3,3.8,8.2,9.6c1.2,1.4,2.6,3,4,4.7c0.7,0.8,1.5,1.7,2.1,2.5c0.6,0.8,1,1.7,1.1,2.6c0.2,1,0.1,1.9-0.2,2.9
		c-0.2,0.4-0.4,0.9-0.6,1.3c-0.1,0.1-0.4,0.5-0.4,0.6l-0.6,0.7c-1.5,2-3.1,4-4.6,6c-0.4,0.5-0.7,0.9-1.2,1.6
		c-0.5,0.7-0.8,1.4-1.1,2.2c-0.6,1.6-0.7,3.3-0.5,4.9c0.3,1.7,0.9,3.2,2,4.6l0.4,0.5l0.3,0.3l0.7,0.7l1.3,1.3
		c3.4,3.3,6.5,6.4,9.2,9.1c0.3,0.3,0.7,0.6,1,1c-32.3-19.4-79.6-43.2-94.5-43.2c-23.2,0-42,18.8-42,42c0,16.8,9.8,31.2,24,37.9
		c-0.6,2.3-0.9,4.7-0.9,7.2c0,16.8,13.6,30.5,30.5,30.5c11.2,0,58.8-19.5,89-34.6c1.1,0.7,2.2,1.4,3.4,2.1c-4,3.6-7.6,7.8-10.9,12.5
		l-37.8,25.7l-1.2,0.8l-0.2,1l-10.4,48.3l16-45.2l24-12.1c-3.7,9.7-6,20.5-6.5,31.9l-21,29.4l-0.9,1.2l0.2,1.1l7,48.9l-0.6-47.9
		l15.7-16.9c3.9,40.3,29.5,71.4,60.7,71.4c31.1,0,56.8-31.1,60.7-71.4l15.7,16.9l-0.6,47.9l7-48.9l0.2-1.1l-0.9-1.2l-21-29.4
		c-0.5-11.4-2.8-22.2-6.5-31.9l24,12.1l16,45.2l-10.4-48.3l-0.2-1l-1.2-0.8l-37.8-25.7c-3.3-4.7-6.9-8.9-10.9-12.5
		c1.2-0.7,2.3-1.4,3.4-2.1c30.2,15.1,77.7,34.6,89,34.6c16.8,0,30.5-13.6,30.5-30.5c0-2.5-0.3-4.9-0.9-7.2
		C357.7,160.5,367.5,146.1,367.5,129.3z M163.6,198.4c6.6-7.6,14.9-12,23.9-12c9,0,17.3,4.5,23.9,12c3.7,4.2,0.8,10.9-4.8,10.9h-38
		C162.9,209.3,159.9,202.7,163.6,198.4z M218,219.3c3,0,5.6,2,6.3,4.8c0.7,2.6,1.2,5.4,1.6,8.2c0.6,3.9-2.5,7.5-6.4,7.5h-63.9
		c-4,0-7-3.5-6.4-7.5c0.4-2.8,1-5.5,1.6-8.2c0.7-2.9,3.3-4.8,6.3-4.8H218z M211.4,291.3c-6.6,7.6-14.9,12-23.9,12
		c-9,0-17.3-4.5-23.9-12c-3.7-4.2-0.8-10.9,4.8-10.9h38C212.1,280.4,215.1,287.1,211.4,291.3z M225.9,257.3c-0.4,2.8-1,5.5-1.6,8.2
		c-0.7,2.9-3.3,4.8-6.3,4.8H157c-3,0-5.6-2-6.3-4.8c-0.7-2.6-1.2-5.4-1.6-8.2c-0.6-3.9,2.5-7.5,6.4-7.5h63.9
		C223.4,249.9,226.5,253.4,225.9,257.3z"/>
</g>
</svg>
