<?xml version="1.0" encoding="utf-8"?>
<!-- Generator: Adobe Illustrator 18.0.0, SVG Export Plug-In . SVG Version: 6.00 Build 0)  -->
<!DOCTYPE svg PUBLIC "-//W3C//DTD SVG 1.1//EN" "http://www.w3.org/Graphics/SVG/1.1/DTD/svg11.dtd">
<svg version="1.1" id="Layer_1" xmlns="http://www.w3.org/2000/svg" xmlns:xlink="http://www.w3.org/1999/xlink" x="0px" y="0px"
	 viewBox="0 0 375 375" enable-background="new 0 0 375 375" xml:space="preserve">
<g>
	<g>
		<path d="M188.8,288.4L188.8,288.4c-17.2,0-31.3-15.3-31.3-34v-19.6c0-18.7,14.1-34,31.3-34l0,0c17.2,0,31.3,15.3,31.3,34v19.6
			C220.1,273.1,206,288.4,188.8,288.4z"/>
		<path d="M207.7,341.4L207.7,341.4c-6.8,0-12.4-6-12.4-13.4v-54.8c0-7.4,5.6-13.4,12.4-13.4l0,0c6.8,0,12.4,6.1,12.4,13.4v54.8
			C220.1,335.3,214.5,341.4,207.7,341.4z"/>
		<path d="M170.1,341.4L170.1,341.4c-6.8,0-12.4-6-12.4-13.4v-54.8c0-7.4,5.6-13.4,12.4-13.4l0,0c6.8,0,12.4,6.1,12.4,13.4v54.8
			C182.5,335.3,176.9,341.4,170.1,341.4z"/>
		<path d="M141.9,269.7L141.9,269.7c-5,0-9-4.4-9-9.7v-43.6c0-5.4,4-9.7,9-9.7l0,0c5,0,9,4.4,9,9.7V260
			C150.9,265.3,146.9,269.7,141.9,269.7z"/>
		<path d="M235.6,269.7L235.6,269.7c5,0,9-4.4,9-9.7v-43.6c0-5.4-4-9.7-9-9.7l0,0c-5,0-9,4.4-9,9.7V260
			C226.7,265.3,230.7,269.7,235.6,269.7z"/>
		<ellipse cx="188.8" cy="168.4" rx="22.2" ry="24.1"/>
		<path d="M345.1,248.7c0,0-33.1-23.9-61.7-42.7c0.8-0.7,1.7-1.4,2.5-2.2c16-2.9,28.9-5.9,28.9-5.9s-4.3-4.2-10.9-10.4
			c6.6-6.1,10.9-10.4,10.9-10.4s-12.9-3-28.9-5.9c-0.8-0.7-1.6-1.4-2.5-2.2c28.6-18.8,61.7-42.7,61.7-42.7s-32.8-2.3-63.9-3.3
			C311.7,75.7,353.5,7.5,353.5,7.5S290.6,52.9,247,85.8c-0.9-33.7-3-69.3-3-69.3s-22.1,35.9-39.4,66.9c-0.7-0.9-1.3-1.8-2-2.7
			c-2.7-17.4-5.4-31.4-5.4-31.4s-3.9,4.7-9.6,11.9c-5.7-7.1-9.6-11.9-9.6-11.9s-2.7,14-5.4,31.4c-0.7,0.9-1.3,1.8-2,2.7
			c-17.3-31-39.4-66.9-39.4-66.9s-2.1,35.6-3,69.3C84.4,52.9,21.5,7.5,21.5,7.5S63.3,75.7,93.7,123c-31.1,1-63.9,3.3-63.9,3.3
			s33.1,23.9,61.7,42.7c-0.8,0.7-1.7,1.4-2.5,2.2c-16,2.9-28.9,5.9-28.9,5.9s4.3,4.2,10.9,10.4c-6.6,6.1-10.9,10.4-10.9,10.4
			s12.9,3,28.9,5.9c0.8,0.7,1.6,1.4,2.5,2.2c-28.6,18.8-61.7,42.7-61.7,42.7s32.8,2.3,63.9,3.3c-30.4,47.3-72.3,115.5-72.3,115.5
			s52.5-37.9,94.9-69.6v-28.1l-0.5,0.4c-4.9,3.7-10,7.5-15.2,11.4c3.6-5.7,7.1-11.2,10.5-16.5l5.2-8v-27.5L97.5,229
			c1.7-1.1,3.4-2.3,5.1-3.4l13.8-9.1v-17.7h1.2c-6.4-5.5-13.1-11.3-13.2-11.4c0.2-0.1,24.3-21,24.3-21l-26.1-17.1
			c-1.7-1.1-3.4-2.2-5.1-3.4l36.1-1.2l-22.4-35c-3.4-5.3-6.9-10.8-10.5-16.5c5.2,3.9,10.4,7.7,15.2,11.4l32.2,24.3l1.1-39.2
			c1,1.8,2.1,3.7,3.1,5.5l15.8,28.3c0,0,19.3-26.2,19.4-26.4c0.1,0.2,19.4,26.3,19.4,26.3l15.8-28.2c1-1.8,2-3.6,3.1-5.5l1.1,39.2
			l32.2-24.3c4.9-3.7,10-7.5,15.2-11.4c-3.6,5.7-7.1,11.2-10.5,16.5l-22.4,35l36.1,1.2c-1.7,1.1-3.4,2.3-5.1,3.4l-26,17.1
			c0,0,24.1,20.9,24.3,21l-13.2,11.4h1.2v17.7l13.8,9.1c1.7,1.1,3.4,2.2,5.1,3.4l-18.8,0.6v27.5l5.2,8c3.4,5.3,6.9,10.8,10.5,16.5
			c-5.2-3.9-10.4-7.7-15.2-11.4l-0.5-0.4v28.1c42.4,31.7,94.9,69.6,94.9,69.6s-41.9-68.2-72.3-115.5
			C312.3,251,345.1,248.7,345.1,248.7z"/>
	</g>
</g>
</svg>
