<?xml version="1.0" encoding="utf-8"?>
<!-- Generator: Adobe Illustrator 18.0.0, SVG Export Plug-In . SVG Version: 6.00 Build 0)  -->
<!DOCTYPE svg PUBLIC "-//W3C//DTD SVG 1.1//EN" "http://www.w3.org/Graphics/SVG/1.1/DTD/svg11.dtd">
<svg version="1.1" id="Layer_1" xmlns="http://www.w3.org/2000/svg" xmlns:xlink="http://www.w3.org/1999/xlink" x="0px" y="0px"
	 viewBox="0 0 375 375" enable-background="new 0 0 375 375" xml:space="preserve">
<g>
	<g>
		<path d="M23.4,322.3l-7.3-7.3c-11.5-11.5-11.5-30.1,0-41.6L148,141.6l48.8,48.8L64.9,322.3C53.5,333.8,34.8,333.8,23.4,322.3z"/>
		<rect x="228.4" y="66.9" transform="matrix(0.7071 0.7071 -0.7071 0.7071 130.4162 -163.8101)" width="69" height="17.2"/>
		<g>
			<path d="M217,240.9c19.2,15.3,66.5,16.8,96.6-13.3c30.3-30.3,28.6-78.1,12.9-97.1l-31.7,6.7L201.6,44L134.7,111l93.2,93.2l-4,4
				L217,240.9z"/>
			<path d="M353.4,124.9l-13.3,2.8c17,27.2,13.6,77.8-17.5,108.9c-30.9,30.9-81.1,34.4-108.4,17.8l-2.6,12.3l-0.7,0.7
				c31.9,24.8,84.6,16.4,121.8-20.7C369.8,209.6,378.2,156.9,353.4,124.9z"/>
		</g>
	</g>
</g>
</svg>
