<?xml version="1.0" encoding="utf-8"?>
<!-- Generator: Adobe Illustrator 18.0.0, SVG Export Plug-In . SVG Version: 6.00 Build 0)  -->
<!DOCTYPE svg PUBLIC "-//W3C//DTD SVG 1.1//EN" "http://www.w3.org/Graphics/SVG/1.1/DTD/svg11.dtd">
<svg version="1.1" id="Layer_1" xmlns="http://www.w3.org/2000/svg" xmlns:xlink="http://www.w3.org/1999/xlink" x="0px" y="0px"
	 viewBox="0 0 375 375" enable-background="new 0 0 375 375" xml:space="preserve">
<g>
	<g>
		<path d="M246,216.1c-24.9-26.1-39.6-73.8-61.9-74.9c-22.3-1.1-17.2,43.8-42.1,70c-37.2,39.1-113.8,41.2-113.8,81
			c0,56,84.1,82.7,168.3,64.3c90.8-19.8,143.5-8.3,143.5-64.3C340,252.3,283.2,255.2,246,216.1z"/>
		<ellipse transform="matrix(0.9622 -0.2725 0.2725 0.9622 -49.5177 19.99)" cx="47.2" cy="188.3" rx="38.1" ry="55.7"/>
		
			<ellipse transform="matrix(0.9974 -7.206033e-002 7.206033e-002 0.9974 -9.1256 9.2697)" cx="123.9" cy="131.1" rx="38.1" ry="55.7"/>
		<path d="M126.8,51.1c1.3,8.8-4.8,17-13.6,18.3c-8.8,1.3-17-4.8-18.3-13.6c-1.3-8.8,11.2-34.2,11.2-34.2S125.5,42.3,126.8,51.1z"/>
		<path d="M39.7,112.4c0.9,8.8-5.6,16.7-14.5,17.6c-8.8,0.9-16.7-5.6-17.6-14.5c-0.9-8.8,12.9-33.6,12.9-33.6S38.9,103.6,39.7,112.4
			z"/>
		<ellipse transform="matrix(-0.9555 -0.295 0.295 -0.9555 582.968 460.8393)" cx="326.2" cy="186.5" rx="38.1" ry="55.7"/>
		
			<ellipse transform="matrix(-0.9999 1.110737e-002 -1.110737e-002 -0.9999 497.6412 243.8141)" cx="248.1" cy="123.3" rx="38.1" ry="55.7"/>
		<path d="M238.6,43.8c-0.6,8.9,6.2,16.5,15,17.1s16.5-6.2,17.1-15c0.6-8.9-14-33.1-14-33.1S239.2,35,238.6,43.8z"/>
		<path d="M335.5,110.8c-1.1,8.8,5.2,16.8,14,17.9c8.8,1.1,16.8-5.2,17.9-14c1.1-8.8-12.1-33.9-12.1-33.9S336.6,102,335.5,110.8z"/>
	</g>
</g>
</svg>
