<?xml version="1.0" encoding="utf-8"?>
<!-- Generator: Adobe Illustrator 18.0.0, SVG Export Plug-In . SVG Version: 6.00 Build 0)  -->
<!DOCTYPE svg PUBLIC "-//W3C//DTD SVG 1.1//EN" "http://www.w3.org/Graphics/SVG/1.1/DTD/svg11.dtd">
<svg version="1.1" id="Layer_1" xmlns="http://www.w3.org/2000/svg" xmlns:xlink="http://www.w3.org/1999/xlink" x="0px" y="0px"
	 viewBox="0 0 375 375" enable-background="new 0 0 375 375" xml:space="preserve">
<g>
	<g>
		<path d="M359.8,80.5c-6.7,17.4-13.7,34.8-22.2,50.9c-4.6,8.7-9.9,17.8-17,23.3c-9.7,7.6-19.9-0.7-28.4-7.3
			c-13.6-10.5-27.3-20.1-43.1-23.9c-10.6-2.5-21.4-2.4-32.1-0.6c-6.2,1.1-12.4,2.8-18.4,4.9c-3.5,1.2-7,2.7-10.4,4.2
			c-2.7,1.2-9.1-3.2-11.8-4.2c-19.6-7.1-40.4-8.8-60.1-1.4c-13.6,5.1-25.3,14.9-37.5,23.9c-8.8,6.5-17.3,10.6-26.4,2.8
			c-6.6-5.7-11.5-14.9-15.9-23.2c-8.2-15.6-14.9-32.5-21.4-49.4c-2.1-5.5-8.7-1.6-7.5,4.1c6.7,32.1,13.3,67.2,27.5,95.4
			c6.9,13.8,16.7,23.5,29.8,23.2c12.8-0.3,25.3-7.2,37.6-11.1c1.3-0.4,2.6-0.8,3.9-1.2c2.7,19.1,17.3,34.1,35.4,35.7
			c2.7,12.4,5.3,24.9,8,37.3c-0.2,1.6-0.3,3.3-0.3,5c-0.6,28.9,22,28,38.1,27.9c8.7,0,18.3,1.2,26.6-3c8.3-4.2,11.2-14.1,11.5-24.9
			c0-1.8-0.1-3.4-0.3-5c2.7-12.4,5.3-24.9,8-37.3c18.1-1.6,32.7-16.5,35.4-35.7c1,0.3,2,0.6,3,0.9c12.7,3.9,25.3,10.8,38.5,11.4
			c12.7,0.6,22.3-9.2,29.2-22.2c14.9-27.8,21.4-64.4,28-96.5C368.5,78.9,362,75,359.8,80.5z M114.5,189.1c6.3-1.2,12.6-1.9,18.9-2
			c2,9.5,4,19,6.1,28.5C126.5,213.2,116.3,202.5,114.5,189.1z M207.8,283.5c-6.4,2.1-13.7,1-20.3,1c-6.3,0-12.7,0.6-19-0.7
			c-6.7-1.3-9.3-6.1-9.5-14.8c-0.5-20.6,16.4-22.5,28.5-22.6c12.8-0.1,28,2.2,28.5,22.6C215.8,277,213.9,281.5,207.8,283.5z
			 M235.6,215.6c2-9.5,4-19,6.1-28.5c6.3,0.1,12.6,0.7,18.9,2C258.6,202.5,248.5,213.2,235.6,215.6z M332.8,174.7
			c-6.4,12.7-14.8,19.3-26.5,17.5c-12.6-1.9-24.8-8.6-37.2-12c-10.1-2.8-20.3-4-30.5-3.7c-0.2,0-0.4,0-0.6,0
			c-8.7,0.3-17.3,1.6-25.9,3.9c-5.2,1.4-3,11.7,2.2,10.3c6.3-1.7,12.5-2.8,18.8-3.2c-4.3,20.3-8.6,40.5-13,60.8
			c-7.1-11-19.9-14.1-32.6-14.2c-12.7-0.1-25.5,3.2-32.6,14.3c-4.3-20.3-8.6-40.5-13-60.8c6.3,0.5,12.5,1.6,18.8,3.3
			c5.2,1.4,7.4-8.9,2.2-10.3c-8.6-2.3-17.1-3.6-25.7-3.8c-0.4-0.1-0.8-0.1-1.2,0c-9.7-0.2-19.5,1-29.2,3.5
			c-12.8,3.3-25.2,10.2-38.1,12.3c-11.4,1.9-19.5-4.5-26-16.5c-7.3-13.6-12.5-29.4-16.7-45.7c6,12.3,13,23.5,21.6,31.8
			c10,9.5,21.1,7.3,31.6,0.5c12.9-8.5,24.3-19.4,38.2-25.1c22.8-9.3,46.8-4,68.9,6c2.6,1.2,6.8-2.1,9.3-3.1
			c3.3-1.4,6.7-2.5,10.1-3.6c6.5-2.1,13.2-3.4,19.9-4c10.1-0.9,20.1,0.4,29.8,3.9c14.3,5.1,26.2,16,39,25
			c10.3,7.2,21.1,10.1,31.5,1.5c7-5.8,12.4-14.6,17.2-23.3c2.1-3.7,4.1-7.6,5.9-11.5C345,144.6,339.9,160.5,332.8,174.7z"/>
		<ellipse cx="166.2" cy="207.2" rx="7.3" ry="10.7"/>
		<ellipse cx="173.5" cy="267.4" rx="5.3" ry="7.7"/>
		<ellipse cx="201.5" cy="267.4" rx="5.3" ry="7.7"/>
		<ellipse cx="208.8" cy="207.2" rx="7.3" ry="10.7"/>
	</g>
</g>
</svg>
