<?xml version="1.0" encoding="utf-8"?>
<!-- Generator: Adobe Illustrator 18.0.0, SVG Export Plug-In . SVG Version: 6.00 Build 0)  -->
<!DOCTYPE svg PUBLIC "-//W3C//DTD SVG 1.1//EN" "http://www.w3.org/Graphics/SVG/1.1/DTD/svg11.dtd">
<svg version="1.1" id="Layer_1" xmlns="http://www.w3.org/2000/svg" xmlns:xlink="http://www.w3.org/1999/xlink" x="0px" y="0px"
	 viewBox="0 0 375 375" enable-background="new 0 0 375 375" xml:space="preserve">
<g>
	<path d="M331.9,118.7C358.2,69.6,363,20.9,342.6,9.9c-20.4-10.9-81.7,15.9-108,65c-15.8-5.6-31.8-9-47-9.8
		c-15.2,0.8-31.2,4.2-47.1,9.8C114.1,25.8,52.8-1,32.4,9.9C12,20.9,16.8,69.6,43.1,118.7c3.2,6,6.7,11.6,10.5,16.9
		c-24,31-34.1,69.9-16.1,111.6c6.6,15.3,23.4,25.8,44.5,33.1c24.4,8.5,44.9,25.8,56.3,49c11.4,23.2,29.2,38.1,49.2,38.1
		c20,0,37.8-14.9,49.2-38.1c11.4-23.2,31.8-40.5,56.3-49c21.1-7.3,38-17.8,44.5-33.1c17.9-41.7,7.8-80.6-16.1-111.6
		C325.1,130.3,328.7,124.7,331.9,118.7z M62.6,90.3C46,63.1,39,37.1,46.9,32.2c7.9-4.8,37.8,12.2,54.4,39.4
		c16.6,27.2-3.7,21.5-11.7,26.4C81.7,102.8,79.2,117.5,62.6,90.3z M109.7,219.5c-7.3,0-13.2-8.3-13.2-18.6
		c0-10.3,5.9-18.6,13.2-18.6c7.3,0,54.6,8.3,54.6,18.6C164.3,222.2,117,219.5,109.7,219.5z M187.5,353.3
		c-13.8,0-24.9-26.1-24.9-43.2s11.2-10.8,24.9-10.8s24.9-6.4,24.9,10.8S201.3,353.3,187.5,353.3z M265.3,219.5
		c-7.3,0-54.6,2.7-54.6-18.6c0-10.3,47.3-18.6,54.6-18.6s13.2,8.3,13.2,18.6C278.5,211.1,272.6,219.5,265.3,219.5z M285.4,98
		c-7.9-4.8-28.3,0.9-11.7-26.4c16.6-27.2,46.4-44.2,54.4-39.4c7.9,4.8,0.9,30.8-15.7,58C295.8,117.5,293.3,102.8,285.4,98z"/>
</g>
</svg>
