<?xml version="1.0" encoding="utf-8"?>
<!-- Generator: Adobe Illustrator 18.0.0, SVG Export Plug-In . SVG Version: 6.00 Build 0)  -->
<!DOCTYPE svg PUBLIC "-//W3C//DTD SVG 1.1//EN" "http://www.w3.org/Graphics/SVG/1.1/DTD/svg11.dtd">
<svg version="1.1" id="Layer_1" xmlns="http://www.w3.org/2000/svg" xmlns:xlink="http://www.w3.org/1999/xlink" x="0px" y="0px"
	 viewBox="0 0 375 375" enable-background="new 0 0 375 375" xml:space="preserve">
<g>
	<g>
		<path d="M119.8,348.7c0-46,0-92,0-138c0-16.2-25.1-16.2-25.1,0c0,46,0,92,0,138C94.7,364.9,119.8,364.9,119.8,348.7L119.8,348.7z"
			/>
		<path d="M278.1,164.4c0-46,0-92,0-138c0-16.2-25.1-16.2-25.1,0c0,46,0,92,0,138C253.1,180.5,278.1,180.5,278.1,164.4L278.1,164.4z
			"/>
		<path d="M160.1,278.1c0-33.7,0-67.4,0-101c0-16.2-25.1-16.2-25.1,0c0,33.7,0,67.4,0,101C135,294.3,160.1,294.3,160.1,278.1
			L160.1,278.1z"/>
		<path d="M200.2,238c0-33.7,0-67.4,0-101c0-16.2-25.1-16.2-25.1,0c0,33.7,0,67.4,0,101C175.1,254.2,200.2,254.2,200.2,238
			L200.2,238z"/>
		<path d="M239.1,199.1c0-33.7,0-67.4,0-101c0-16.2-25.1-16.2-25.1,0c0,33.7,0,67.4,0,101C214,215.3,239.1,215.3,239.1,199.1
			L239.1,199.1z"/>
		<path d="M81.9,283V258c-20.8,0-41.5,0-62.3,0c-16.2,0-16.2,25.1,0,25.1C40.4,283,61.2,283,81.9,283z"/>
		<path d="M292.7,78.5v25.1c20.9,0,41.8,0,62.7,0c16.2,0,16.2-25.1,0-25.1C334.5,78.5,313.6,78.5,292.7,78.5z"/>
	</g>
</g>
</svg>
