<?xml version="1.0" encoding="utf-8"?>
<!-- Generator: Adobe Illustrator 18.0.0, SVG Export Plug-In . SVG Version: 6.00 Build 0)  -->
<!DOCTYPE svg PUBLIC "-//W3C//DTD SVG 1.1//EN" "http://www.w3.org/Graphics/SVG/1.1/DTD/svg11.dtd">
<svg version="1.1" id="Layer_1" xmlns="http://www.w3.org/2000/svg" xmlns:xlink="http://www.w3.org/1999/xlink" x="0px" y="0px"
	 viewBox="0 0 375 375" enable-background="new 0 0 375 375" xml:space="preserve">
<g>
	<path d="M366.1,247.3c-7.5,3.2-15,6.4-23,8.2c-4.1,1-8.2,2-12.4,2.5c-4.3,0.6-8.7,0.8-13.1,1c-5.7,0.3-11.8-0.2-17.4-1.1
		c-8.7-1.3-17.1-3.5-25.5-6.3c0.6-1.2,1.2-2.5,1.7-3.8c0.4-1,0.7-0.6,1.6-0.6c0.7,0,1.4,0,2,0c2.6-0.1,5.2-0.2,7.9-0.6
		c5.6-0.9,11.3-2.1,16.6-4.5c10.1-4.5,18.8-10.5,26.4-18.6c13.8-14.8,20.8-37.2,15-56.9c-1.8,3.5-3,7.1-4.7,10.6
		c-2.2,4.5-4.5,9-7.2,13.2c-4.3,6.7-9.1,12.7-14.5,18.5c-10.9,11.7-25.3,20.8-40.1,26.8c0.9-7.4,0.1-15-2.3-22.1
		c5.7-0.4,10.9-3.3,15.3-6.7c6-4.7,10.9-10.6,15.2-16.9c11.6-16.8,19.1-36.5,23.7-56.3c3.8-16.4,5.8-33.6,3.7-50.4
		c-1.3-10.4-4.3-23.4-13.5-29.7c0.5,20-2.4,40-7.9,59.2c-2.5,8.7-5.3,17.5-9.2,25.7l0,0c-3.4-6.3-6-13-8.5-19.6
		c-5.9-16-10-32.7-11.8-49.7c-12,15.3-19.8,33.9-25.1,52.4c-5.5,19.6-8.7,40.8-5.7,61.1c-4.8-3.5-9.9-6.5-15.2-9
		c11.5-11.5,6-31.8-9.6-36c-15.5-4.1-30.2,10.3-26.4,25.9c-9.6-1.1-19.4-1.1-29.1,0c3.8-15.4-10.5-29.8-25.9-26
		c-16,3.9-21.8,24.4-10.1,36.1c-5.3,2.5-10.5,5.5-15.2,9c2.9-20.3-0.2-41.5-5.7-61.1c-5.2-18.6-13.1-37.1-25.1-52.4
		c-1.8,16.8-5.8,33.4-11.6,49.3c-2.5,6.8-5.2,13.6-8.7,20c-3.7-7.8-6.5-16.1-8.9-24.4c-5.5-19-8.6-38.9-8.3-58.7c0-0.6,0-1.3,0-1.9
		c-5.1,3.5-8.2,9.2-10.2,14.9c-2.8,7.9-3.8,16.3-4.1,24.6c-0.7,21.6,3.9,43.6,11.3,63.8c5.3,14.3,12.3,28.4,22.1,40.2
		c6.2,7.5,14.9,15.8,25.2,16.5c-2.4,7.1-3.2,14.6-2.3,22.1c-14.6-5.9-29.1-15-39.9-26.6c-5.3-5.7-10.2-11.6-14.3-18.2
		c-2.7-4.2-5-8.6-7.2-13.1c-1.8-3.7-3.1-7.6-5-11.2c-5.7,19.7,1.2,42.1,15,56.9c7.6,8.1,16.3,14,26.4,18.6c5,2.2,10.5,3.5,15.9,4.4
		c2.6,0.4,5.2,0.6,7.9,0.7c1.3,0,2.7,0.1,4,0c0.6,1.5,1.2,3,1.9,4.5c-14.1,4.8-29.2,8.1-44.2,7.3c-8.8-0.5-17.5-1.6-26.1-3.9
		c-4.2-1.2-8.3-2.7-12.4-4.2c-3.4-1.2-6.6-3-10.1-4.2c9.5,18.2,30,29.5,50.3,30.6c10.9,0.6,21.1-1.1,31.3-4.7
		c4.8-1.7,9.8-4.2,13.9-7.3c1.2-0.8,2.3-1.6,3.5-2.5c0.9-0.6,0.8-0.1,1.4,0.6c0.4,0.5,0.9,1,1.3,1.5c1.9,2.2,4,4.4,6.2,6.4
		c-11.8,12.1-25.5,22.5-41.2,29.1c-7.7,3.3-15.8,5.5-24.1,6.9c-5,0.9-9.9,1.3-14.9,1.7c-4.1,0.3-8.2,0-12.3,0.3
		c7,5.6,15.4,9.3,24.2,10.8c10.8,1.6,21.1,0.8,31.5-2.2c20.1-5.8,36.5-21.4,44.6-40.5c16.4,11.5,36.4,17.3,56.3,18.5
		c20.7,1.3,42.1-2.3,60.7-11.7c4-2,7.8-4.3,11.5-6.8c4,9.5,9.8,17.3,17.1,24.5c7.5,7,16.9,12.9,26.8,15.7c5,1.5,10.1,2.7,15.3,3.1
		c5.4,0.5,10.8,0.1,16.2-0.6c9-1.3,17.8-5.3,24.9-10.9c-3.9-0.3-7.7,0-11.6-0.3c-5-0.3-10-0.7-14.9-1.6c-8.5-1.5-16.6-4-24.7-7
		c-6.5-2.4-12.6-6.2-18.4-9.9c-8.4-5.3-16-12.2-22.9-19.3c2-1.8,4-3.8,5.8-5.8c0.9-1,1.7-2,2.6-3.1c1.1,0.9,2.3,1.6,3.4,2.5
		c4.3,3,9,5.7,13.9,7.5c10.4,3.8,20.8,5.5,31.9,4.9c20.2-1.1,40.8-12.4,50.3-30.6C367,246.9,366.5,247.1,366.1,247.3
		C365.1,247.7,367,246.9,366.1,247.3z"/>
</g>
</svg>
