<?xml version="1.0" encoding="utf-8"?>
<!-- Generator: Adobe Illustrator 18.0.0, SVG Export Plug-In . SVG Version: 6.00 Build 0)  -->
<!DOCTYPE svg PUBLIC "-//W3C//DTD SVG 1.1//EN" "http://www.w3.org/Graphics/SVG/1.1/DTD/svg11.dtd">
<svg version="1.1" id="Layer_1" xmlns="http://www.w3.org/2000/svg" xmlns:xlink="http://www.w3.org/1999/xlink" x="0px" y="0px"
	 viewBox="0 0 375 375" enable-background="new 0 0 375 375" xml:space="preserve">
<g>
	<path d="M350.7,212.6c-5.4,0-10.1,2.5-13.2,6.4c-15.8-12-44.1-32.6-75.4-50.8l13.2-38.9l-30.7,29.1c-0.4-0.2-0.9-0.5-1.3-0.7
		l7-40.8l-24.6,32.1c-1-0.5-2-0.9-3-1.4l2-40.4l-19.7,33.2c-1.6-0.6-3.3-1.2-4.9-1.7l2-38.7l-20,33.6c-0.9-0.2-1.8-0.4-2.7-0.5
		l-5.9-40l-13,36.9l-11.2-39.5l-7.8,37.1l-15.5-34.3l-2.5,41.2c-0.2,0-0.4,0.1-0.5,0.1l-21.5-35L104,140c-0.1,0-0.2,0.1-0.4,0.1
		l-27.1-32.8l8.4,40.4l-33.6-23.3l18.8,36.2c-0.9,0.9-1.8,1.8-2.6,2.8l-35-17.4l24,33.3c-0.3,0.6-0.6,1.1-0.9,1.7l-39.3-5.9l32.7,24
		c0,0.2-0.1,0.4-0.2,0.6l-38.5,0.4L46,218.5c-0.1,1.3-0.2,2.7-0.3,4.1L7.5,227L45,241.6l-34.6,17.9l40.7,0.3
		c15.8,33.5,63.6,22.8,120.2,23.3c115.3,1,156.5-22.8,171.3-39c2.4,1.3,5.2,2.1,8.1,2.1c9.3,0,16.8-7.5,16.8-16.8
		C367.5,220.1,360,212.6,350.7,212.6z M260.8,203.8c-5.6,0-10.1-4.5-10.1-10.1c0-5.6,4.5-10.1,10.1-10.1c5.6,0,10.1,4.5,10.1,10.1
		C270.9,199.3,266.4,203.8,260.8,203.8z"/>
</g>
</svg>
