<?xml version="1.0" encoding="utf-8"?>
<!-- Generator: Adobe Illustrator 18.0.0, SVG Export Plug-In . SVG Version: 6.00 Build 0)  -->
<!DOCTYPE svg PUBLIC "-//W3C//DTD SVG 1.1//EN" "http://www.w3.org/Graphics/SVG/1.1/DTD/svg11.dtd">
<svg version="1.1" id="Layer_1" xmlns="http://www.w3.org/2000/svg" xmlns:xlink="http://www.w3.org/1999/xlink" x="0px" y="0px"
	 viewBox="0 0 375 375" enable-background="new 0 0 375 375" xml:space="preserve">
<g>
	<g>
		<g>
			<polygon points="60,332.9 175.1,208.2 201.9,212.3 232.5,179.1 200.6,173.4 195.4,138.9 164.8,172 168.6,201.1 53.8,325.6 
				43.3,304.7 22.5,367.5 80.4,345 			"/>
			<polygon points="218.7,271.3 307.9,174.6 328.8,177.7 352.5,152 327.8,147.6 323.7,120.8 300,146.5 302.9,169.1 213.8,265.6 
				205.7,249.4 189.6,298.1 234.5,280.6 			"/>
			<polygon points="56.7,131 129.9,51.6 147,54.2 166.5,33.1 146.2,29.5 142.8,7.5 123.4,28.6 125.8,47.1 52.7,126.3 46.1,113 
				32.8,153 69.7,138.7 			"/>
			<polygon points="167.7,96.1 219.4,40 231.5,41.9 245.2,27 230.9,24.4 228.5,8.9 214.8,23.8 216.5,36.9 164.9,92.8 160.2,83.4 
				150.8,111.7 176.9,101.5 			"/>
		</g>
	</g>
</g>
</svg>
