<?xml version="1.0" encoding="utf-8"?>
<!-- Generator: Adobe Illustrator 18.0.0, SVG Export Plug-In . SVG Version: 6.00 Build 0)  -->
<!DOCTYPE svg PUBLIC "-//W3C//DTD SVG 1.1//EN" "http://www.w3.org/Graphics/SVG/1.1/DTD/svg11.dtd">
<svg version="1.1" id="Layer_1" xmlns="http://www.w3.org/2000/svg" xmlns:xlink="http://www.w3.org/1999/xlink" x="0px" y="0px"
	 viewBox="0 0 375 375" enable-background="new 0 0 375 375" xml:space="preserve">
<g>
	<g>
		<path d="M233.1,255.3l33.4-33.4l-54.8-54.8l-33.4,33.4c-29.7-9.7-63.6-2.7-87.1,20.8c-33.4,33.4-33.4,87.6,0,121.1
			c33.4,33.4,87.6,33.4,121.1,0C235.8,318.8,242.8,285,233.1,255.3z M117.7,227.6c-4.6,8.3-9.3,16.1-12.4,25.1
			c-3.6,9.8-4.7,20.1-5.3,30.5c0.5,10.4,1.6,20.6,5.2,30.5c3.2,9,7.8,16.8,12.4,25.1C80.5,312.8,80.3,253.6,117.7,227.6z"/>
		<path d="M221.7,87.9c-4.4-4.4-11.2,2.4-6.8,6.8c12.4,12.4,24.9,24.9,37.3,37.3c1.9,1.9,5,1.9,6.8,0c6.8-6.8,13.6-13.6,20.4-20.4
			c6,6,11.9,11.9,17.9,17.9c-15.3,15.3-30.7,30.7-46,46c-4.4,4.4,2.4,11.2,6.8,6.8c16.5-16.5,33-33,49.4-49.4c1.9-1.9,1.9-5,0-6.8
			c-8.2-8.2-16.4-16.4-24.7-24.7c-1.9-1.9-5-1.9-6.8,0c-6.8,6.8-13.6,13.6-20.4,20.4C244.3,110.5,233,99.2,221.7,87.9z"/>
		<path d="M179.9,139.5c10.9-11.5,21.9-23.1,32.8-34.6c4.3-4.5-2.5-11.3-6.8-6.8c-7.6,8-15.2,16-22.8,24c1.4-10.7,2.8-21.4,4.2-32.1
			c0.3-2.1-0.2-4.4-2.3-5.4c-10-4.8-20-9.5-30-14.3c10.9-2,21.8-4,32.7-6.1c1.5-0.3,3.2-1.9,3.4-3.4c1.5-11.1,2.9-22.2,4.4-33.2
			c5.3,9.7,10.5,19.4,15.8,29c1.1,2,3.3,2.7,5.4,2.3c10.7-2,21.3-4,32-5.9c-7.5,7.9-15,15.9-22.6,23.8c-4.3,4.5,2.5,11.3,6.8,6.8
			c10.9-11.5,21.9-23.1,32.8-34.6c3.4-3.6,0-8.9-4.6-8.1c-14.4,2.7-28.7,5.3-43.1,8c-7-13-14.1-26-21.1-38.9
			c-1.9-3.4-8.3-3.2-8.8,1.2c-1.9,14.8-3.9,29.6-5.8,44.4c-14.6,2.7-29.2,5.4-43.8,8.1c-4.1,0.8-4.9,7.1-1.2,8.8
			c13.4,6.4,26.8,12.8,40.2,19.2c-1.9,14.4-3.8,28.8-5.7,43.2C171.3,139.2,176.3,143.3,179.9,139.5z"/>
	</g>
</g>
</svg>
