<?xml version="1.0" encoding="utf-8"?>
<!-- Generator: Adobe Illustrator 18.0.0, SVG Export Plug-In . SVG Version: 6.00 Build 0)  -->
<!DOCTYPE svg PUBLIC "-//W3C//DTD SVG 1.1//EN" "http://www.w3.org/Graphics/SVG/1.1/DTD/svg11.dtd">
<svg version="1.1" id="Layer_1" xmlns="http://www.w3.org/2000/svg" xmlns:xlink="http://www.w3.org/1999/xlink" x="0px" y="0px"
	 viewBox="0 0 375 375" enable-background="new 0 0 375 375" xml:space="preserve">
<g>
	<g id="_x34_43_9_">
		<g>
			<path d="M191.9,304c0.9-16.5,2.3-32.9,4.1-49.3c-28.5,7-57.3,13.2-86.1,19c16.9-19.3,34.2-38.3,51.8-57
				c-50.8-9.1-101.5-19-152.2-29.2c50.6-10.2,101.4-20.1,152.2-29.2c-17.6-18.7-34.8-37.7-51.8-57c28.8,5.8,57.5,12,86.1,19
				c-1.8-16.4-3.2-32.9-4.1-49.3c9.8,6.4,19.4,13,29,19.8c15.5,11,31.4,22.2,44.9,35.6c8.2,8.1,15,15.8,19.6,26.6
				c5,11.9,7.2,24.9,6.7,37.8c-0.4,12.6-3.4,25.2-9.2,36.4c-5,9.6-12,16.7-19.8,24C241.7,271.2,216.5,287.9,191.9,304z"/>
			<path d="M216.4,8.5c52.3-7.5,96.2,27.6,121.5,70.6c23.7,40.3,30.9,88.7,26.2,134.7c-7.4,73.3-62.7,164.9-147.7,152.6
				c22.8-4.9,43-14.7,59.9-31c19.8-19.1,34.4-44.3,42.8-70.5c14.8-46.3,17.2-98.2,3.1-145.1c-8.4-28.2-21.6-55.1-42.1-76.5
				C262.6,24.9,240.9,13.8,216.4,8.5z"/>
		</g>
	</g>
</g>
</svg>
