<?xml version="1.0" encoding="utf-8"?>
<!-- Generator: Adobe Illustrator 18.0.0, SVG Export Plug-In . SVG Version: 6.00 Build 0)  -->
<!DOCTYPE svg PUBLIC "-//W3C//DTD SVG 1.1//EN" "http://www.w3.org/Graphics/SVG/1.1/DTD/svg11.dtd">
<svg version="1.1" id="Layer_1" xmlns="http://www.w3.org/2000/svg" xmlns:xlink="http://www.w3.org/1999/xlink" x="0px" y="0px"
	 viewBox="0 0 375 375" enable-background="new 0 0 375 375" xml:space="preserve">
<g>
	<g id="_x34_44_9_">
		<g>
			<path d="M262.8,256.4c-0.5-9.5-1.3-18.9-2.4-28.3c16.4,4,32.9,7.6,49.4,10.9c-9.7-11.1-19.6-22-29.7-32.7
				c29.2-5.2,58.3-10.9,87.4-16.8c-29.1-5.8-58.2-11.5-87.4-16.8c10.1-10.7,20-21.6,29.7-32.7c-16.5,3.3-33,6.9-49.4,10.9
				c1.1-9.4,1.8-18.9,2.4-28.3c-5.6,3.7-11.2,7.5-16.6,11.4c-8.9,6.3-18,12.8-25.8,20.5c-4.7,4.7-8.6,9.1-11.2,15.3
				c-2.9,6.8-4.1,14.3-3.9,21.7c0.2,7.2,1.9,14.5,5.3,20.9c2.8,5.5,6.9,9.6,11.4,13.8C234.2,237.6,248.7,247.2,262.8,256.4z"/>
			<path d="M112.2,256.4c0.5-9.5,1.3-18.9,2.4-28.3c-16.4,4-32.9,7.6-49.4,10.9c9.7-11.1,19.6-22,29.7-32.7
				c-29.2-5.2-58.3-10.9-87.4-16.8c29.1-5.8,58.2-11.5,87.4-16.8c-10.1-10.7-20-21.6-29.7-32.7c16.5,3.3,33,6.9,49.4,10.9
				c-1.1-9.4-1.8-18.9-2.4-28.3c5.6,3.7,11.2,7.5,16.6,11.4c8.9,6.3,18,12.8,25.8,20.5c4.7,4.7,8.6,9.1,11.2,15.3
				c2.9,6.8,4.1,14.3,3.9,21.7c-0.2,7.2-1.9,14.5-5.3,20.9c-2.8,5.5-6.9,9.6-11.4,13.8C140.8,237.6,126.3,247.2,112.2,256.4z"/>
			<path d="M198.3,324.7c-6.4,0-12.9,0-19.3,0c-0.7,0-0.3-2.4-0.3-3c0-8.1,0-16.1,0-24.2c0-31.4,0-62.8,0-94.2
				c0-34.4,0-68.8,0-103.2c0-16.6,0-33.2,0-49.8c0,0,16.8,0,18.4,0c1.8,0,1.2,0.8,1.2,2.5c0,7.8,0,15.5,0,23.3c0,31.1,0,62.2,0,93.3
				c0,34.5,0,69.1,0,103.6C198.3,290.3,198.3,307.4,198.3,324.7C198.3,324.6,198.3,324.7,198.3,324.7z"/>
		</g>
	</g>
</g>
</svg>
