<?xml version="1.0" encoding="utf-8"?>
<!-- Generator: Adobe Illustrator 18.0.0, SVG Export Plug-In . SVG Version: 6.00 Build 0)  -->
<!DOCTYPE svg PUBLIC "-//W3C//DTD SVG 1.1//EN" "http://www.w3.org/Graphics/SVG/1.1/DTD/svg11.dtd">
<svg version="1.1" id="Layer_1" xmlns="http://www.w3.org/2000/svg" xmlns:xlink="http://www.w3.org/1999/xlink" x="0px" y="0px"
	 viewBox="0 0 375 375" enable-background="new 0 0 375 375" xml:space="preserve">
<g>
	<g>
		<ellipse cx="187.5" cy="275.1" rx="23.3" ry="12.3"/>
		<circle cx="149.6" cy="189.3" r="10"/>
		<circle cx="225.4" cy="189.3" r="10"/>
		<path d="M364,281.2c-28.1-8.8-56.8-14.9-86.3-13c-3.9,0.3-7.7,0.7-11.6,1.3c2.6-4.3,5-8.8,7.3-13.3c27.9-8.9,57.6-8.8,86.6-6.2
			c6.4,0.6,6.4-9.5,0-10c-27.3-2.5-54.6-2.3-81.2,4.4c2.7-6.6,5-13.3,6.9-19.9c20.4-9,42.5-13.9,64.5-17.3c6.4-1,3.7-10.6-2.7-9.7
			c-20.2,3.1-40.1,7.7-59,15.2c1.7-8.5,2.6-16.8,2.6-24.5c0-7.1-0.7-14.1-2.1-20.8c16.7-10,33.8-24.8,41.8-36.4
			c7.9-11.4,10.8-25.1,8.3-38.7C336.7,78.7,329,66.9,317.6,59c-23.5-16.2-55.8-10.3-72,13.2c-4,5.7-8,14.1-11.5,23.6
			c-14-7.1-29.8-11.1-46.6-11.1c-16.7,0-32.6,4-46.6,11.1c-3.5-9.5-7.6-17.9-11.5-23.6c-7.9-11.4-19.7-19-33.3-21.5
			c-13.6-2.5-27.4,0.5-38.7,8.3c-11.4,7.9-19,19.7-21.5,33.3c-2.5,13.6,0.5,27.4,8.3,38.7c8,11.6,25.2,26.4,41.8,36.4
			c-1.4,6.7-2.1,13.7-2.1,20.8c0,7.6,0.9,15.7,2.6,24.1c-18.9-7.4-39-11.8-58.9-14.9c-6.3-1-9,8.7-2.7,9.7
			c22.3,3.5,44.1,8.5,64.6,17.6c1.8,6.5,4.1,13,6.7,19.5c-26.3-6.9-54.2-6.6-81.2-4.2c-6.4,0.6-6.4,10.6,0,10
			c29.2-2.6,58.4-2.4,86.6,6.2c2.2,4.5,4.7,9,7.3,13.3c-2.7-0.4-5.5-0.8-8.2-1.1c-30.4-3.3-60.9,3.6-89.7,12.7
			c-6.1,1.9-3.5,11.6,2.7,9.7c28.4-9,57.2-14.9,87.1-12.4c5.2,0.4,10.4,1.3,15.5,2.2c18.3,25.6,43.1,44.5,71.3,44.5
			c28.1,0,52.9-18.8,71.2-44.3c4.1-0.8,8.1-1.5,12.2-2c30.7-3.9,61.2,2.8,90.4,12C367.5,292.8,370.1,283.2,364,281.2z M261.8,249.7
			c-12.8,4.9-25.1,11.3-37.9,16.2c13.8-9.1,26-20.4,39.8-29.5c1.7-1.1,3.4-2.2,5.1-3.2C266.9,238.7,264.5,244.3,261.8,249.7z
			 M265.6,120.4c2.6-9.8,7.1-20,9.7-23.6c4.2-6.1,12.5-7.6,18.6-3.4c6.1,4.2,7.6,12.5,3.4,18.6c-3.1,4.5-13.6,14.5-22.8,20.1
			C271.8,128,268.9,124.1,265.6,120.4z M256.6,79.7c12-17.4,36-21.8,53.5-9.8c8.4,5.8,14.1,14.6,16,24.7c1.8,10.1-0.4,20.3-6.2,28.7
			c-5.6,8.1-19,20.8-34.6,30.6c-1.6-4.6-3.5-9-5.7-13.3c10.4-6.3,22-17.2,26.1-23.1c7.3-10.6,4.7-25.2-5.9-32.5
			c-10.6-7.3-25.2-4.7-32.5,5.9c-2.8,4-6.6,12.4-9.4,21.1c-3.7-3.4-7.7-6.6-11.8-9.4C249.1,93.3,252.9,85,256.6,79.7z M55.2,123.4
			c-5.8-8.4-8-18.7-6.2-28.7c1.8-10.1,7.5-18.9,16-24.7c8.4-5.8,18.7-8,28.7-6.2c10.1,1.8,18.9,7.5,24.7,16
			c3.7,5.3,7.5,13.5,10.8,22.9c-4.2,2.9-8.1,6-11.8,9.4c-2.8-8.7-6.7-17.1-9.4-21.1c-7.3-10.6-21.9-13.3-32.5-5.9
			c-5.1,3.6-8.6,8.9-9.7,15c-1.1,6.1,0.2,12.4,3.8,17.5c4.1,5.9,15.6,16.8,26,23.1c-2.2,4.3-4.1,8.7-5.7,13.3
			C74.2,144.2,60.8,131.5,55.2,123.4z M100.5,132.1c-9.3-5.7-19.7-15.7-22.8-20.1c-2-2.9-2.8-6.5-2.2-10c0.6-3.5,2.6-6.6,5.5-8.6
			c6.1-4.2,14.4-2.7,18.6,3.4c2.5,3.6,7.1,13.9,9.7,23.6C106.1,124.1,103.2,128,100.5,132.1z M106.2,233.2c0.8,0.5,1.6,0.9,2.4,1.4
			c15.1,9.2,27.9,21.6,42.6,31.3c-12.9-4.8-25.1-11.1-37.9-16.1C110.6,244.4,108.2,238.8,106.2,233.2z M187.5,311.9
			c-18.9,0-36.5-10.8-51.1-27c6.2,1.3,12.5,2.4,18.8,3.1c6.4,0.7,6.4-9.3,0-10c-9.5-1-18.9-3-28.3-4.9c-2.2-3.1-4.3-6.3-6.3-9.5
			c11,4.8,21.8,10.2,33.3,14c6.1,2,8.7-7.5,2.8-9.6c3.7-0.9,5.7-6.7,1.5-9.3c-15.6-9.9-29-22.7-44.6-32.6c-3.8-2.4-7.8-4.7-11.8-6.7
			c-2.9-10.8-4.5-21.4-4.5-31c0-49.7,40.5-90.2,90.2-90.2s90.2,40.5,90.2,90.2c0,9.6-1.6,20.3-4.5,31.2c-3,1.5-6,3.1-9,4.8
			c-17,9.8-30.9,23.8-47.4,34.3c-4.2,2.7-2.2,8.4,1.5,9.3c-5.9,2.1-3.3,11.6,2.8,9.6c11.4-3.8,22.2-9.1,33.2-13.9
			c-1.9,3.2-4,6.3-6.1,9.2c-9.4,2-18.8,4-28.4,5.1c-6.4,0.7-6.4,10.7,0,10c6.3-0.7,12.5-1.8,18.7-3C224,301,206.4,311.9,187.5,311.9
			z"/>
	</g>
</g>
</svg>
