<?xml version="1.0" encoding="utf-8"?>
<!-- Generator: Adobe Illustrator 18.0.0, SVG Export Plug-In . SVG Version: 6.00 Build 0)  -->
<!DOCTYPE svg PUBLIC "-//W3C//DTD SVG 1.1//EN" "http://www.w3.org/Graphics/SVG/1.1/DTD/svg11.dtd">
<svg version="1.1" id="Layer_1" xmlns="http://www.w3.org/2000/svg" xmlns:xlink="http://www.w3.org/1999/xlink" x="0px" y="0px"
	 viewBox="0 0 375 375" enable-background="new 0 0 375 375" xml:space="preserve">
<g>
	<g>
		<g>
			<rect x="8.1" y="33.3" width="105.7" height="49.8"/>
			<rect x="134.9" y="33.3" width="105.7" height="49.8"/>
			<rect x="261.8" y="33.3" width="105.7" height="49.8"/>
			<rect x="8.1" y="161.1" width="105.7" height="49.8"/>
			<rect x="134.9" y="161.1" width="105.7" height="49.8"/>
			<rect x="261.8" y="161.1" width="105.7" height="49.8"/>
			<rect x="7.5" y="96.4" width="53.4" height="49.8"/>
			<rect x="328.7" y="96.4" width="38.6" height="49.8"/>
			<rect x="78.8" y="96.4" width="105.7" height="49.8"/>
			<rect x="205.6" y="96.4" width="105.7" height="49.8"/>
			<rect x="8.1" y="291.9" width="105.7" height="49.8"/>
			<rect x="134.9" y="291.9" width="105.7" height="49.8"/>
			<rect x="261.8" y="291.9" width="105.7" height="49.8"/>
			<rect x="7.5" y="227.5" width="53.4" height="49.8"/>
			<rect x="328.7" y="227.5" width="38.6" height="49.8"/>
			<rect x="78.8" y="227.5" width="105.7" height="49.8"/>
			<rect x="205.6" y="227.5" width="105.7" height="49.8"/>
		</g>
	</g>
</g>
</svg>
