<?xml version="1.0" encoding="utf-8"?>
<!-- Generator: Adobe Illustrator 18.0.0, SVG Export Plug-In . SVG Version: 6.00 Build 0)  -->
<!DOCTYPE svg PUBLIC "-//W3C//DTD SVG 1.1//EN" "http://www.w3.org/Graphics/SVG/1.1/DTD/svg11.dtd">
<svg version="1.1" id="Layer_1" xmlns="http://www.w3.org/2000/svg" xmlns:xlink="http://www.w3.org/1999/xlink" x="0px" y="0px"
	 viewBox="0 0 375 375" enable-background="new 0 0 375 375" xml:space="preserve">
<g>
	<g>
		<rect x="180.4" y="40.7" width="17" height="55.6"/>
		<path d="M43.7,295.8c5.2,6.9,10.9,13.4,17,19.5v-36.6h-17V295.8z"/>
		<rect x="246.1" y="278.7" width="17" height="55.6"/>
		<rect x="180.4" y="159.7" width="17" height="55.6"/>
		<rect x="246.1" y="159.7" width="17" height="55.6"/>
		<path d="M321,286.4h-13.9v-26.3H321h26.3v10.3c12.9-24.8,20.2-53,20.2-82.9c0-29.9-7.3-58.1-20.2-82.9v10.3H321V66.8
			c-11.5-12.7-24.7-23.7-39.4-32.7v14.4v66.4h-26.3V48.4h-13.9V22.2h13.9h3.4c-21.9-9.4-46-14.7-71.3-14.7
			c-25.3,0-49.4,5.2-71.3,14.7h22.5v26.3v66.4h-26.3V48.4H98.5V31c-6.7,3.8-13.2,8.1-19.3,12.7v71.2H25.2v-5.2
			c-11.3,23.6-17.7,50-17.7,77.8c0,27.9,6.3,54.3,17.7,77.8v-5.2h54.1v71.2c10.3,7.7,21.4,14.4,33.2,19.8v-64.8H98.5v-26.3h13.9
			h26.3v26.3v66.4h-22.5c21.9,9.4,46,14.7,71.3,14.7c25.3,0,49.4-5.2,71.3-14.7h-31.2v-92.7h54.1v80.8c14.7-9,27.9-20.1,39.4-32.7
			V286.4z M307.1,141.1H321h26.3v26.3v66.4H321v-66.4h-13.9V141.1z M79.2,167.4v66.4H53v-66.4H39.1v-26.3H53h26.3V167.4z
			 M138.7,167.4v66.4h-26.3v-66.4H98.5v-26.3h13.9h26.3V167.4z M216,286.4v66.4h-26.3v-66.4h-13.9v-26.3h13.9H216V286.4z M216,233.9
			h-54.1v-92.7H216V233.9z M216,114.9h-54.1V22.2H216V114.9z M281.6,233.9h-54.1v-92.7h54.1V233.9z"/>
		<path d="M60.7,59.8c-6.1,6.1-11.8,12.6-17,19.5v17.1h17V59.8z"/>
	</g>
</g>
</svg>
