<?xml version="1.0" encoding="utf-8"?>
<!-- Generator: Adobe Illustrator 18.0.0, SVG Export Plug-In . SVG Version: 6.00 Build 0)  -->
<!DOCTYPE svg PUBLIC "-//W3C//DTD SVG 1.1//EN" "http://www.w3.org/Graphics/SVG/1.1/DTD/svg11.dtd">
<svg version="1.1" id="Layer_1" xmlns="http://www.w3.org/2000/svg" xmlns:xlink="http://www.w3.org/1999/xlink" x="0px" y="0px"
	 viewBox="0 0 375 375" enable-background="new 0 0 375 375" xml:space="preserve">
<g>
	<g>
		<g>
			<path d="M188.9,216.6V156H98.5v60.6H37.9v90.3h60.6v60.6h90.3v-60.6h60.6v-90.3H188.9z M239.2,296.6h-60.6v60.6h-69.7v-60.6H48.2
				v-69.7h60.6v-60.6h69.7v60.6h60.6V296.6z"/>
			<polygon points="170,174.9 117.4,174.9 117.4,235.5 56.8,235.5 56.8,288 117.4,288 117.4,348.6 170,348.6 170,288 230.6,288 
				230.6,235.5 170,235.5 			"/>
		</g>
		<g>
			<path d="M290.8,53.7V7.5h-68.9v46.2h-46.2v68.9h46.2v46.2h68.9v-46.2h46.2V53.7H290.8z M329.2,114.8H283V161h-53.2v-46.2h-46.2
				V61.6h46.2V15.4H283v46.2h46.2V114.8z"/>
			<polygon points="276.4,21.9 236.3,21.9 236.3,68.1 190.1,68.1 190.1,108.3 236.3,108.3 236.3,154.5 276.4,154.5 276.4,108.3 
				322.7,108.3 322.7,68.1 276.4,68.1 			"/>
		</g>
	</g>
</g>
</svg>
