<?xml version="1.0" encoding="utf-8"?>
<!-- Generator: Adobe Illustrator 18.0.0, SVG Export Plug-In . SVG Version: 6.00 Build 0)  -->
<!DOCTYPE svg PUBLIC "-//W3C//DTD SVG 1.1//EN" "http://www.w3.org/Graphics/SVG/1.1/DTD/svg11.dtd">
<svg version="1.1" id="Layer_1" xmlns="http://www.w3.org/2000/svg" xmlns:xlink="http://www.w3.org/1999/xlink" x="0px" y="0px"
	 viewBox="0 0 375 375" enable-background="new 0 0 375 375" xml:space="preserve">
<g>
	<g>
		<path d="M332.1,116.9c0,0-107.9-11.2-144.6-11.2c-36.7,0-144.6,11.2-144.6,11.2c-19.6,0-35.4,15.9-35.4,35.4v73.1
			c0,19.6,16,33,35.4,35.4c18,2.3,48.3,12.5,72.3,6.7c27.9-6.7,50.5-48.6,72.3-48.6c21.8,0,44.4,41.9,72.3,48.6
			c24,5.8,54.3-4.4,72.3-6.7c19.4-2.5,35.4-15.9,35.4-35.4v-73.1C367.5,132.7,351.6,116.9,332.1,116.9z M342.4,225.4
			c0,7-8.5,9.9-13.5,10.5c-5.8,0.7-12,2-18.7,3.4c-11,2.3-23.4,4.8-34.2,4.8h0c-4,0-7.5-0.4-10.4-1.1c-7.2-1.7-18-12-26.6-20.2
			c-15-14.3-30.5-29.1-51.5-29.1c-21.1,0-36.5,14.8-51.5,29.1c-8.6,8.2-19.4,18.5-26.6,20.2c-2.9,0.7-6.4,1.1-10.4,1.1
			c-10.8,0-23.3-2.6-34.2-4.8c-6.6-1.4-12.9-2.7-18.7-3.4c-5-0.6-13.5-3.6-13.5-10.5v-73.1c0-5.7,4.6-10.3,10.3-10.3h1.3l1.3-0.1
			c1.1-0.1,107-11,142-11c34.9,0,140.9,10.9,142,11l1.3,0.1h1.3c5.7,0,10.3,4.6,10.3,10.3V225.4z"/>
		<path d="M303.3,149.3c-7.1-0.7-15.3-1.5-24-2.2l35.8,81c4.3-0.9,8.5-1.6,12.6-2.1c2-0.3,3.8-1,4.7-1.5v-9.3L303.3,149.3z"/>
		<path d="M284,233.7c7-0.7,14.4-2.2,21.4-3.6l-37.1-83.9c-7.9-0.7-15.9-1.4-23.9-2L284,233.7z"/>
	</g>
</g>
</svg>
