<?xml version="1.0" encoding="utf-8"?>
<!-- Generator: Adobe Illustrator 18.0.0, SVG Export Plug-In . SVG Version: 6.00 Build 0)  -->
<!DOCTYPE svg PUBLIC "-//W3C//DTD SVG 1.1//EN" "http://www.w3.org/Graphics/SVG/1.1/DTD/svg11.dtd">
<svg version="1.1" id="Layer_1" xmlns="http://www.w3.org/2000/svg" xmlns:xlink="http://www.w3.org/1999/xlink" x="0px" y="0px"
	 viewBox="0 0 375 375" enable-background="new 0 0 375 375" xml:space="preserve">
<g>
	<g>
		<path d="M360.1,113.3l-98.4-98.4c-9.9-9.9-25.9-9.9-35.7,0L14.9,226c-9.9,9.9-9.9,25.8,0,35.7l98.4,98.4c9.9,9.9,25.9,9.9,35.7,0
			L360.1,149C370,139.2,370,123.2,360.1,113.3z M261.8,122.1c6.8-6.8,17.9-6.8,24.7,0c6.8,6.8,6.8,17.9,0,24.7
			c-6.8,6.8-17.9,6.8-24.7,0C255,140,255,128.9,261.8,122.1z M228.4,155.5c6.8-6.8,17.9-6.8,24.7,0c6.8,6.8,6.8,17.9,0,24.7
			c-6.8,6.8-17.9,6.8-24.7,0C221.6,173.4,221.6,162.3,228.4,155.5z M221.6,148.7c-6.8,6.8-17.9,6.8-24.7,0c-6.8-6.8-6.8-17.9,0-24.7
			c6.8-6.8,17.9-6.8,24.7,0C228.4,130.8,228.4,141.8,221.6,148.7z M255,90.6c6.8,6.8,6.8,17.9,0,24.7c-6.8,6.8-17.9,6.8-24.7,0
			c-6.8-6.8-6.8-17.9,0-24.7C237.1,83.8,248.2,83.8,255,90.6z M198.8,59.1c6.8-6.8,17.9-6.8,24.7,0c6.8,6.8,6.8,17.9,0,24.7
			c-6.8,6.8-17.9,6.8-24.7,0C192,77,192,65.9,198.8,59.1z M165.4,92.5c6.8-6.8,17.9-6.8,24.7,0c6.8,6.8,6.8,17.9,0,24.7
			c-6.8,6.8-17.9,6.8-24.7,0C158.6,110.3,158.6,99.3,165.4,92.5z M132,125.8c6.8-6.8,17.9-6.8,24.7,0c6.8,6.8,6.8,17.9,0,24.7
			c-6.8,6.8-17.9,6.8-24.7,0C125.2,143.7,125.2,132.7,132,125.8z M167.9,289.4c-22.7,22.7-59.5,22.7-82.3,0
			c-22.7-22.7-22.7-59.5,0-82.3c22.7-22.7,59.5-22.7,82.3,0C190.6,229.8,190.6,266.7,167.9,289.4z M163.5,182
			c-6.8-6.8-6.8-17.9,0-24.7c6.8-6.8,17.9-6.8,24.7,0c6.8,6.8,6.8,17.9,0,24.7C181.4,188.9,170.4,188.9,163.5,182z M195,213.6
			c-6.8-6.8-6.8-17.9,0-24.7c6.8-6.8,17.9-6.8,24.7,0c6.8,6.8,6.8,17.9,0,24.7C212.9,220.4,201.9,220.4,195,213.6z M251.3,245.1
			c-6.8,6.8-17.9,6.8-24.7,0c-6.8-6.8-6.8-17.9,0-24.7c6.8-6.8,17.9-6.8,24.7,0C258.1,227.2,258.1,238.2,251.3,245.1z M284.6,211.7
			c-6.8,6.8-17.9,6.8-24.7,0c-6.8-6.8-6.8-17.9,0-24.7c6.8-6.8,17.9-6.8,24.7,0C291.5,193.8,291.5,204.9,284.6,211.7z M318,178.3
			c-6.8,6.8-17.9,6.8-24.7,0c-6.8-6.8-6.8-17.9,0-24.7c6.8-6.8,17.9-6.8,24.7,0C324.8,160.4,324.8,171.5,318,178.3z M353.3,143.1
			c-6.8,6.8-17.9,6.8-24.7,0c-6.8-6.8-6.8-17.9,0-24.7c6.8-6.8,17.9-6.8,24.7,0C360.1,125.2,360.1,136.2,353.3,143.1z"/>
		<path d="M160.7,214.3c-18.7-18.7-49.1-18.7-67.9,0c-18.7,18.7-18.7,49.1,0,67.9c18.7,18.7,49.1,18.7,67.9,0
			C179.4,263.5,179.4,233.1,160.7,214.3z M145.3,275.4l-15.5-15.5L112,277.7c-3.1-1.5-6-3.6-8.5-6.1c-2.6-2.6-4.6-5.5-6.1-8.5
			l17.8-17.8l-15.5-15.5c1.1-1.7,2.4-3.2,3.9-4.7c3.7-3.7,8.2-6.4,12.9-7.9l13.5,13.5l11.7-11.7c3.1,1.5,6,3.6,8.5,6.1
			c2.6,2.6,4.6,5.5,6.1,8.5l-11.7,11.7l13.5,13.5c-1.6,4.7-4.2,9.1-7.9,12.9C148.6,273,147,274.3,145.3,275.4z"/>
	</g>
</g>
</svg>
