<?xml version="1.0" encoding="utf-8"?>
<!-- Generator: Adobe Illustrator 18.0.0, SVG Export Plug-In . SVG Version: 6.00 Build 0)  -->
<!DOCTYPE svg PUBLIC "-//W3C//DTD SVG 1.1//EN" "http://www.w3.org/Graphics/SVG/1.1/DTD/svg11.dtd">
<svg version="1.1" id="Layer_1" xmlns="http://www.w3.org/2000/svg" xmlns:xlink="http://www.w3.org/1999/xlink" x="0px" y="0px"
	 viewBox="0 0 375 375" enable-background="new 0 0 375 375" xml:space="preserve">
<g>
	<g>
		<path d="M256.8,27.2v165.1c30.5,7.8,51.3,19.8,51.3,35.7c0,4.1,0,11.2,0,11.2v26c35.7-23.2,59.3-63.5,59.3-109.2
			C367.5,90.7,319.5,36.6,256.8,27.2z"/>
		<path d="M157.1,181.5c20.7,0,41.4,1.2,60.6,3.6V27.2C155,36.6,107,90.7,107,156c0,9.5,1,18.8,3,27.7
			C125.2,182.3,140.9,181.5,157.1,181.5z"/>
		<g>
			<path d="M151.5,287c-79.5,0-144-17.7-144-39.4v60.7c0,21.8,64.5,39.4,144,39.4s144-17.7,144-39.4v-60.7
				C295.5,269.4,231,287,151.5,287z"/>
			<g>
				<path d="M74.4,203.1c-40.2,7-66.9,19.3-66.9,33.3c0,21.8,64.5,39.4,144,39.4c13.8,0,27.2-0.5,39.9-1.5L74.4,203.1z"/>
				<path d="M151.5,196.9c-19.6,0-38.2,1.1-55.2,3l118.2,71.9c48-6.4,81.1-19.9,81.1-35.5C295.5,214.6,231,196.9,151.5,196.9z"/>
			</g>
		</g>
	</g>
</g>
</svg>
