<?xml version="1.0" encoding="utf-8"?>
<!-- Generator: Adobe Illustrator 18.0.0, SVG Export Plug-In . SVG Version: 6.00 Build 0)  -->
<!DOCTYPE svg PUBLIC "-//W3C//DTD SVG 1.1//EN" "http://www.w3.org/Graphics/SVG/1.1/DTD/svg11.dtd">
<svg version="1.1" id="Layer_1" xmlns="http://www.w3.org/2000/svg" xmlns:xlink="http://www.w3.org/1999/xlink" x="0px" y="0px"
	 viewBox="0 0 375 375" enable-background="new 0 0 375 375" xml:space="preserve">
<g>
	<g>
		<path d="M258.1,342.1l-49.5,21c-36.6,15.5-77.2-11.4-77.2-51.1V171l189.4-80.3v156.6C320.7,288.7,296.1,326,258.1,342.1z"/>
		<path d="M71.9,312.4l46.5,20.4V171l-64.2-28.1v142.4C54.3,297.1,61.2,307.7,71.9,312.4z"/>
		<g>
			<polygon points="142,104.5 126.5,111 126.5,118.6 142,124.9 			"/>
			<polygon points="236.7,64.6 151.7,100.4 151.7,124.7 236.7,88.7 			"/>
			<polygon points="246.4,65.9 246.4,95.1 146.9,137.2 116.9,125.1 116.9,115.1 70.5,134.6 125.5,159.7 304.7,85.9 			"/>
		</g>
		<polygon points="128.3,49.4 126.5,48.7 126.5,118.6 142,124.9 142,55 		"/>
		<polygon points="217.1,7.5 134.4,41.5 139.6,43.6 146.8,46.5 228.6,11.8 		"/>
		<path d="M204.4,32.6l-52.7,22.3v69.8l85.1-36V18.9L204.4,32.6z M188.7,84.6l-23.5,10V69l23.5-10V84.6z M223.2,70.2l-23.5,10V54.5
			l23.5-10V70.2z"/>
	</g>
</g>
</svg>
