<?xml version="1.0" encoding="utf-8"?>
<!-- Generator: Adobe Illustrator 18.0.0, SVG Export Plug-In . SVG Version: 6.00 Build 0)  -->
<!DOCTYPE svg PUBLIC "-//W3C//DTD SVG 1.1//EN" "http://www.w3.org/Graphics/SVG/1.1/DTD/svg11.dtd">
<svg version="1.1" id="Layer_1" xmlns="http://www.w3.org/2000/svg" xmlns:xlink="http://www.w3.org/1999/xlink" x="0px" y="0px"
	 viewBox="0 0 375 375" enable-background="new 0 0 375 375" xml:space="preserve">
<g>
	<path d="M298.9,19.6l-0.2-0.3L19.4,181.4l-11.9,8.8l13.2-4.6L275.5,46.4c-5.7,16.6-2,35.7,11.2,49c9.7,9.7,22.6,14.3,35.3,13.8
		l-213,213c-13.8,7.9-32.5,12.6-46.7-2.3c-12.1-12.6-12.3-32.3,0-44.6c4.5-4.5,10-7.3,15.7-8.5c-14.9-2.9-31,1.4-42.5,13
		c-18.5,18.5-18.5,48.5,0,66.9c18.5,18.5,48.5,18.5,66.9,0c3.4-3.4,7.2-7,10.9-10.9L353.6,95.4c18.5-18.5,18.5-48.5,0-66.9
		C338.8,13.6,316.7,10.7,298.9,19.6z M344.7,86.4c-13.5,13.5-35.6,13.5-49.1,0c-13.5-13.5-13.5-35.6,0-49.1
		c13.5-13.5,35.6-13.5,49.1,0C358.2,50.9,358.2,72.9,344.7,86.4z"/>
</g>
</svg>
