<?xml version="1.0" encoding="utf-8"?>
<!-- Generator: Adobe Illustrator 18.0.0, SVG Export Plug-In . SVG Version: 6.00 Build 0)  -->
<!DOCTYPE svg PUBLIC "-//W3C//DTD SVG 1.1//EN" "http://www.w3.org/Graphics/SVG/1.1/DTD/svg11.dtd">
<svg version="1.1" id="Layer_1" xmlns="http://www.w3.org/2000/svg" xmlns:xlink="http://www.w3.org/1999/xlink" x="0px" y="0px"
	 viewBox="0 0 375 375" enable-background="new 0 0 375 375" xml:space="preserve">
<g>
	<g>
		<path d="M303.1,210.9c0-2.9-0.2-5.9-0.5-8.8c-0.9-11.7-2.5-23.1-3.4-34.3c-0.5-5.6-1.1-11.1-1.9-16.5c-0.6-5.5-1.6-10.8-2.6-16.1
			c-1-5.3-2.1-10.5-3.3-15.6c-1.3-5.1-2.5-10.1-4-14.9c-1.5-4.8-2.9-9.6-4.5-14.1c-1.5-4.6-3-9-4.7-13.3c-3.1-8.6-6.5-16.5-9.7-23.7
			c-3.2-7.2-6.4-13.7-9.3-19.4c-2.9-5.7-5.7-10.6-8-14.6c-4.6-7.7-7.4-12.1-7.4-12.1l-9.5,2.7c0,0-0.1,5.2,0,14.2
			c-0.1,4.4-0.2,9.7-0.3,15.8c-0.1,3-0.1,6.3-0.2,9.7c-0.1,3.4-0.3,6.9-0.4,10.7c-0.1,3.7-0.4,7.5-0.6,11.5c-0.2,3.9-0.5,8-0.8,12.2
			c-0.7,8.3-1.5,17-2.6,25.9c-0.4,4.4-1.2,8.9-1.8,13.4c-0.8,4.5-1.3,9-2.1,13.5c-1.6,9-3.1,17.9-5.2,26.6
			c-2.1,8.7-5.4,17.1-9.3,24.7c-3.9,7.6-7.6,14.6-9.7,21.2c-2.2,6.6-2.8,13.2-3.2,19.2c-0.1,1.5-0.1,3.1-0.2,4.5
			c-0.1,1.5,0,3.1-0.1,4.4c0,1.4-0.1,2.9,0,4.4c-0.1,1.4,0,2.8,0,4.2c0.1,1.5,0,2.8,0,4.2c0,1.4,0,2.9,0,4.2c0,1.4,0,2.8-0.1,4.1
			c0,0.7-0.1,1.3-0.1,2c0,0.7-0.1,1.4-0.1,2c-0.1,1.4-0.2,2.7-0.3,4c-0.1,1.3-0.3,2.6-0.5,3.9c-0.3,2.6-0.9,4.9-1.4,7.3
			c-0.6,2.2-1.2,4.5-1.8,6.4c-0.3,1-0.6,1.9-1,2.7c-0.3,0.8-0.6,1.7-0.9,2.4c-1.2,3-1.8,4.6-1.8,4.6l2.8,9.5c0,0,1.6,1,4.9,2.3
			c1.6,0.7,3.8,1.5,6.1,1.9c2.4,0.5,5.4,1.2,8.7,1.4c1.6,0.1,3.3,0.1,5.1,0.1c1.8-0.1,3.8,0,5.7-0.3c3.8-0.6,8.3-1.2,12.5-2.7
			c8.9-2.6,18-7.3,26.7-13.8c8.8-6.5,16.5-14.8,23.3-24.2c6.8-9.4,12-20,14.9-31.3c0.7-2.8,1.4-5.7,1.7-8.6c0.4-2.9,0.6-5.8,0.8-8.7
			C303.2,216.7,303.2,213.8,303.1,210.9z"/>
		<path d="M139.4,306.2c4.2,1.5,8.7,2.1,12.5,2.7c1.9,0.3,3.9,0.3,5.7,0.3c1.8,0.1,3.5,0,5.1-0.1c3.3-0.2,6.2-0.9,8.7-1.4
			c2.4-0.4,4.5-1.3,6.2-1.9c3.3-1.3,4.9-2.3,4.9-2.3l2.8-9.5c0,0-0.6-1.6-1.8-4.6c-0.3-0.7-0.6-1.6-0.9-2.4c-0.3-0.8-0.7-1.7-1-2.7
			c-0.6-2-1.2-4.2-1.8-6.4c-0.5-2.5-1-4.7-1.4-7.3c-0.2-1.3-0.3-2.6-0.5-3.9c-0.1-1.3-0.3-2.6-0.3-4c0-0.7-0.1-1.3-0.1-2
			c0-0.7-0.1-1.2-0.1-2c0-1.3,0-2.7-0.1-4.1c-0.1-1.3,0-2.8,0-4.2c0-1.4-0.1-2.7,0-4.2c0-1.4,0-2.9,0-4.2c0.1-1.5,0-3,0-4.4
			c-0.1-1.3,0-3-0.1-4.4c-0.1-1.5-0.1-3-0.2-4.5c-0.4-6.1-1-12.6-3.2-19.2c-2.1-6.6-5.8-13.6-9.7-21.2c-4-7.6-7.3-16-9.3-24.7
			c-2.1-8.7-3.6-17.6-5.2-26.6c-0.8-4.5-1.3-9-2.1-13.5c-0.6-4.5-1.3-9-1.7-13.4c-1.2-8.9-2-17.5-2.6-25.9
			c-0.3-4.2-0.7-8.2-0.8-12.2c-0.2-4-0.5-7.8-0.6-11.5c-0.1-3.7-0.3-7.3-0.4-10.7c-0.1-3.4-0.2-6.6-0.2-9.7
			c-0.1-6.1-0.2-11.4-0.3-15.8c0.1-9,0-14.2,0-14.2l-9.5-2.7c0,0-2.8,4.4-7.4,12.1c-2.3,4-5,8.9-8,14.6c-2.9,5.7-6.2,12.1-9.3,19.4
			c-3.3,7.2-6.6,15.1-9.7,23.7c-1.7,4.3-3.2,8.7-4.7,13.3c-1.6,4.6-3,9.3-4.5,14.1c-1.4,4.8-2.6,9.8-4,14.9
			c-1.2,5.1-2.3,10.3-3.3,15.6c-1,5.3-2,10.7-2.6,16.1c-0.8,5.4-1.3,11-1.9,16.5c-0.9,11.2-2.5,22.6-3.4,34.3
			c-0.3,2.9-0.5,5.9-0.5,8.8c-0.1,2.9-0.1,5.9,0,8.8c0.2,2.9,0.5,5.9,0.8,8.7c0.4,2.9,1.1,5.8,1.7,8.6c2.8,11.3,8,21.9,14.9,31.3
			c6.7,9.4,14.5,17.7,23.3,24.2C121.3,298.9,130.5,303.6,139.4,306.2z"/>
		<path d="M230.3,315.6c-20.3,0-36.8,8.9-36.8,19.8c0,10.9,16.5,32.1,36.8,32.1c20.3,0,36.8-21.2,36.8-32.1
			C267,324.5,250.6,315.6,230.3,315.6z"/>
		<path d="M149.2,315.6c-20.3,0-36.8,8.9-36.8,19.8c0,10.9,16.5,32.1,36.8,32.1c20.3,0,36.8-21.2,36.8-32.1
			C186,324.5,169.6,315.6,149.2,315.6z"/>
	</g>
</g>
</svg>
