<?xml version="1.0" encoding="utf-8"?>
<!-- Generator: Adobe Illustrator 18.0.0, SVG Export Plug-In . SVG Version: 6.00 Build 0)  -->
<!DOCTYPE svg PUBLIC "-//W3C//DTD SVG 1.1//EN" "http://www.w3.org/Graphics/SVG/1.1/DTD/svg11.dtd">
<svg version="1.1" id="Layer_1" xmlns="http://www.w3.org/2000/svg" xmlns:xlink="http://www.w3.org/1999/xlink" x="0px" y="0px"
	 viewBox="0 0 375 375" enable-background="new 0 0 375 375" xml:space="preserve">
<g>
	<g>
		<g>
			<g>
				<g>
					<polygon points="216.6,158.5 187.5,7.5 158.5,158.5 7.5,187.5 158.5,216.5 187.5,367.5 216.6,216.5 367.5,187.5 					"/>
					<polygon points="208.6,187.5 252.8,122.2 187.5,166.4 122.2,122.2 166.4,187.5 122.2,252.8 187.5,208.6 252.8,252.8 					"/>
					<g>
						<path d="M321.5,161l18.9,1.2C329.5,97,278,45.4,212.8,34.7l1.2,18.9C268.1,64.2,310.8,106.9,321.5,161z"/>
					</g>
					<g>
						<path d="M300.8,159.8l12.7,0.8C303,111.1,263.9,72,214.5,61.4l0.8,12.7C257.3,84.5,290.5,117.7,300.8,159.8z"/>
					</g>
					<g>
						<path d="M161,53.5l1.2-18.9C97,45.5,45.4,97,34.7,162.2l18.9-1.2C64.2,106.9,106.9,64.2,161,53.5z"/>
					</g>
					<g>
						<path d="M159.8,74.2l0.8-12.7C111.1,72,72,111.1,61.4,160.5l12.7-0.8C84.5,117.7,117.7,84.5,159.8,74.2z"/>
					</g>
					<g>
						<path d="M53.5,214l-18.9-1.2C45.5,278,97,329.6,162.2,340.3l-1.2-18.9C106.9,310.8,64.2,268.1,53.5,214z"/>
					</g>
					<g>
						<path d="M74.2,215.2l-12.7-0.8c10.6,49.5,49.6,88.5,99.1,99.1l-0.8-12.7C117.7,290.5,84.5,257.3,74.2,215.2z"/>
					</g>
					<g>
						<path d="M214,321.5l-1.2,18.9C278,329.5,329.6,278,340.3,212.8l-18.9,1.2C310.8,268.1,268.1,310.8,214,321.5z"/>
					</g>
					<g>
						<path d="M215.2,300.8l-0.8,12.7c49.5-10.6,88.5-49.6,99.1-99.1l-12.7,0.8C290.5,257.3,257.3,290.5,215.2,300.8z"/>
					</g>
					<path d="M210.9,187.5c0,12.9-10.5,23.4-23.4,23.4c-12.9,0-23.4-10.5-23.4-23.4c0-12.9,10.5-23.4,23.4-23.4
						C200.4,164.1,210.9,174.6,210.9,187.5z"/>
				</g>
			</g>
		</g>
	</g>
</g>
</svg>
