<?xml version="1.0" encoding="utf-8"?>
<!-- Generator: Adobe Illustrator 18.0.0, SVG Export Plug-In . SVG Version: 6.00 Build 0)  -->
<!DOCTYPE svg PUBLIC "-//W3C//DTD SVG 1.1//EN" "http://www.w3.org/Graphics/SVG/1.1/DTD/svg11.dtd">
<svg version="1.1" id="Layer_1" xmlns="http://www.w3.org/2000/svg" xmlns:xlink="http://www.w3.org/1999/xlink" x="0px" y="0px"
	 viewBox="0 0 375 375" enable-background="new 0 0 375 375" xml:space="preserve">
<g>
	<g>
		<path d="M367.2,280.9l-21.9-145.7c-2.1-13.7-13.8-23.8-27.7-23.8h-29.3V93.2c0-31.7-25.8-57.5-57.5-57.5h-86.7
			c-31.7,0-57.5,25.8-57.5,57.5v18.1H57.3c-13.8,0-25.6,10.1-27.7,23.8L7.8,280.9C5.3,297.8,18.4,313,35.5,313h26
			c0,14.5,11.7,26.2,26.2,26.2c14.5,0,26.2-11.7,26.2-26.2h147.2c0,14.5,11.7,26.2,26.2,26.2c14.5,0,26.2-11.7,26.2-26.2h26
			C356.6,313,369.7,297.8,367.2,280.9z M116.9,93.2c0-15,12.2-27.2,27.2-27.2h86.7c15,0,27.2,12.2,27.2,27.2v18.1H116.9V93.2z
			 M38.1,282.8l21.2-141.1h256.4l21.2,141.1H38.1z"/>
		<polygon points="204.6,163.8 170.4,163.8 170.4,195.1 139.1,195.1 139.1,229.3 170.4,229.3 170.4,260.6 204.6,260.6 204.6,229.3 
			235.9,229.3 235.9,195.1 204.6,195.1 		"/>
	</g>
</g>
</svg>
