<?xml version="1.0" encoding="utf-8"?>
<!-- Generator: Adobe Illustrator 18.0.0, SVG Export Plug-In . SVG Version: 6.00 Build 0)  -->
<!DOCTYPE svg PUBLIC "-//W3C//DTD SVG 1.1//EN" "http://www.w3.org/Graphics/SVG/1.1/DTD/svg11.dtd">
<svg version="1.1" id="Layer_1" xmlns="http://www.w3.org/2000/svg" xmlns:xlink="http://www.w3.org/1999/xlink" x="0px" y="0px"
	 viewBox="0 0 375 375" enable-background="new 0 0 375 375" xml:space="preserve">
<g>
	<g>
		<path d="M193.9,228.8l84.5,84.5c10.2,10.2,26.7,10.2,36.9,0l0,0c10.2-10.2,10.2-26.7,0-36.9l-84.5-84.5c7.7-15.9,6.9-32.6-7.5-47
			c-15.2-15.2-37.1-19.4-56-12.8l31.4,19.4l10,26.5l-27.4,27.4l-26.5-10l-19.7-32.6c-7.9,19.5-4,42.7,11.8,58.6
			C161.3,235.7,178,236.5,193.9,228.8z"/>
		<g>
			<path d="M318.2,160.6c-3.5-16.9-10.1-32.6-19.3-46.5l34.9-34.9l-38-38l-34.9,34.9c-13.9-9.2-29.6-15.9-46.5-19.3V7.5h-53.8v49.3
				c-16.9,3.5-32.6,10.1-46.5,19.3L79.2,41.2l-38,38l34.9,34.9c-9.2,13.9-15.9,29.6-19.3,46.5H7.5v53.8h49.3
				c3.5,16.9,10.1,32.6,19.3,46.5l-34.9,34.9l38,38l34.9-34.9c13.9,9.2,29.6,15.9,46.5,19.3v49.3h53.8v-49.3
				c8.6-1.7,16.8-4.3,24.7-7.7l-30.7-30.7c-6.7,1.5-13.7,2.3-20.8,2.3c-52.3,0-94.6-42.4-94.6-94.6s42.4-94.6,94.6-94.6
				c52.3,0,94.6,42.4,94.6,94.6c0,6.9-0.8,13.6-2.1,20l30.8,30.8c3.2-7.7,5.7-15.7,7.4-24h49.3v-53.8H318.2z"/>
		</g>
	</g>
</g>
</svg>
