<?xml version="1.0" encoding="utf-8"?>
<!-- Generator: Adobe Illustrator 18.0.0, SVG Export Plug-In . SVG Version: 6.00 Build 0)  -->
<!DOCTYPE svg PUBLIC "-//W3C//DTD SVG 1.1//EN" "http://www.w3.org/Graphics/SVG/1.1/DTD/svg11.dtd">
<svg version="1.1" id="Layer_1" xmlns="http://www.w3.org/2000/svg" xmlns:xlink="http://www.w3.org/1999/xlink" x="0px" y="0px"
	 viewBox="0 0 375 375" enable-background="new 0 0 375 375" xml:space="preserve">
<g>
	<g>
		<path d="M165.2,364.5H38.4c-17.1,0-30.9-13.8-30.9-30.9V163.8h188.6v169.8C196.1,350.7,182.3,364.5,165.2,364.5z"/>
		<path d="M358.5,108.8l-89.7,89.7c-12.1,12.1-31.6,12.1-43.7,0l-32-32L326.5,33.1l32,32C370.5,77.1,370.5,96.7,358.5,108.8z"/>
		<rect x="19.4" y="140.8" width="168" height="16.3"/>
		<rect x="89.6" y="86.1" width="77.1" height="46.5"/>
		<path d="M80.7,95c-20.8,0-37.6,16.8-37.6,37.6h37.6V95z"/>
		<path d="M128.1,10.5c0,0-23.2,43.5-23.2,56.4c0,5.4,1.9,10.4,5,14.3h2.6c-0.6-1.7-0.9-3.4-0.9-5.3c0-9.2,16.6-40.2,16.6-40.2
			s16.6,31.1,16.6,40.2c0,1.9-0.3,3.6-0.9,5.3h2.6c3.1-4,5-8.9,5-14.3C151.4,54,128.1,10.5,128.1,10.5z"/>
	</g>
</g>
</svg>
