<?xml version="1.0" encoding="utf-8"?>
<!-- Generator: Adobe Illustrator 18.0.0, SVG Export Plug-In . SVG Version: 6.00 Build 0)  -->
<!DOCTYPE svg PUBLIC "-//W3C//DTD SVG 1.1//EN" "http://www.w3.org/Graphics/SVG/1.1/DTD/svg11.dtd">
<svg version="1.1" id="Layer_1" xmlns="http://www.w3.org/2000/svg" xmlns:xlink="http://www.w3.org/1999/xlink" x="0px" y="0px"
	 viewBox="0 0 375 375" enable-background="new 0 0 375 375" xml:space="preserve">
<g>
	<g>
		<path d="M127.7,82.7L17.1,131.8C9,135.4,5.3,145,8.9,153.2c3.6,8.2,13.2,11.9,21.4,8.2l7.1-3.2c13.8,29.5,29.8,58.3,51,83
			c14.2,16.4,31.1,29.7,47.9,43.3c5.5,12.3,10.9,24.6,16.4,37c-3,3.1-4,7.8-2.2,12l6.8,15.4c2.4,5.5,8.8,7.9,14.3,5.5l17.4-7.7
			c5.5-2.4,7.9-8.8,5.5-14.3l-6.8-15.4c-1.9-4.2-6-6.6-10.3-6.4c-5.5-12.3-10.9-24.6-16.4-37c1.1-21.6,2.5-43,0-64.6
			c-3.8-32.3-14.7-63.6-27.3-93.5l7.1-3.2c8.2-3.6,11.9-13.2,8.2-21.4C145.5,82.8,135.9,79.1,127.7,82.7z M138.4,230.1
			c0.2,4,0.1,9.2-0.1,15.2c-0.1,3.1-0.3,6.3-0.4,9.4c-2.4-2-4.9-4-7.3-6c-2-1.7-4-3.4-6-5.2c-0.9-0.8-1.7-1.5-2.5-2.3
			c-0.5-0.5-0.8-0.7-0.8-0.8c-0.4-0.4-0.7-0.7-1.1-1.1c-4.5-4.3-8.8-8.9-12.9-13.6c-4.8-5.5-9.3-11.2-13.5-17.2
			c13.2-5.9,26.4-11.7,39.5-17.6c1.5,7.1,2.8,14.3,3.7,21.5C137.7,218.4,138.1,224.2,138.4,230.1z M127,167.3
			c-15.6,6.9-31.1,13.8-46.7,20.7c-7.6-12.8-14.3-26.1-20.6-39.6l51.9-23C117.3,139.1,122.6,153.1,127,167.3z"/>
		<path d="M357.1,64.5L244.3,20.8c-8.4-3.2-17.7,0.9-21,9.3c-3.2,8.3,0.9,17.7,9.3,21l7.3,2.8c-11.1,30.6-20.3,62.3-22.7,94.7
			c-1.6,21.6,0.9,43,3.1,64.5c-4.9,12.6-9.7,25.1-14.6,37.7c-4.3,0-8.4,2.7-10,6.9l-6.1,15.7c-2.2,5.6,0.6,11.9,6.2,14l17.7,6.9
			c5.6,2.2,11.9-0.6,14-6.2l6.1-15.7c1.7-4.3,0.4-8.9-2.7-11.9c4.9-12.6,9.7-25.1,14.6-37.7c16.1-14.4,32.2-28.6,45.7-45.6
			c20.2-25.4,34.7-55.3,47-85.3l7.3,2.8c8.4,3.2,17.7-0.9,21-9.3C369.6,77.1,365.5,67.7,357.1,64.5z M260.3,176
			c-2.7,2.9-6.4,6.6-10.8,10.7c-2.3,2.1-4.6,4.2-6.9,6.3c-0.3-3.1-0.6-6.2-0.9-9.4c-0.2-2.6-0.4-5.2-0.5-7.9
			c-0.1-1.1-0.1-2.3-0.2-3.4c0-0.7,0-1.1,0-1.1c0-0.5,0-1,0-1.5c-0.1-6.2,0.1-12.5,0.5-18.7c0.5-7.3,1.4-14.5,2.6-21.7
			c13.4,5.2,26.9,10.4,40.3,15.6c-3.9,6.1-8.1,12.1-12.6,17.8C268.1,167.3,264.2,171.7,260.3,176z M296.7,123.6
			c-15.9-6.1-31.8-12.3-47.7-18.4c3.7-14.4,8.4-28.6,13.5-42.6l52.9,20.5C309.8,96.9,303.7,110.5,296.7,123.6z"/>
	</g>
</g>
</svg>
