<?xml version="1.0" encoding="utf-8"?>
<!-- Generator: Adobe Illustrator 18.0.0, SVG Export Plug-In . SVG Version: 6.00 Build 0)  -->
<!DOCTYPE svg PUBLIC "-//W3C//DTD SVG 1.1//EN" "http://www.w3.org/Graphics/SVG/1.1/DTD/svg11.dtd">
<svg version="1.1" id="Layer_1" xmlns="http://www.w3.org/2000/svg" xmlns:xlink="http://www.w3.org/1999/xlink" x="0px" y="0px"
	 viewBox="0 0 375 375" enable-background="new 0 0 375 375" xml:space="preserve">
<g>
	<g>
		<path d="M221.3,7.5h-150c-14.8,0-26.8,12-26.8,26.8c0,14.8,12,26.8,26.8,26.8h3.5v235c0,39.4,32.1,71.5,71.5,71.5
			c39.4,0,71.5-32.1,71.5-71.5v-235h3.5c14.8,0,26.8-12,26.8-26.8C248.1,19.5,236.1,7.5,221.3,7.5z M194,144.4H98.6V64H194V144.4z"
			/>
		<path d="M310.5,98.4h-74.9v42.2h54.5v115.6h-54.5V296c0,20.9-7.2,40.2-19.3,55.4c9.7,9.9,23.2,16.1,38.2,16.1
			c29.5,0,53.4-24,53.4-53.4V138.5h2.6c11.1,0,20-9,20-20C330.5,107.4,321.6,98.4,310.5,98.4z"/>
	</g>
</g>
</svg>
