<?xml version="1.0" encoding="utf-8"?>
<!-- Generator: Adobe Illustrator 18.0.0, SVG Export Plug-In . SVG Version: 6.00 Build 0)  -->
<!DOCTYPE svg PUBLIC "-//W3C//DTD SVG 1.1//EN" "http://www.w3.org/Graphics/SVG/1.1/DTD/svg11.dtd">
<svg version="1.1" id="Layer_1" xmlns="http://www.w3.org/2000/svg" xmlns:xlink="http://www.w3.org/1999/xlink" x="0px" y="0px"
	 viewBox="0 0 375 375" enable-background="new 0 0 375 375" xml:space="preserve">
<g>
	<g>
		<g>
			<path d="M32.2,322.1c0,25.1,20.3,45.4,45.4,45.4h127c25.1,0,45.4-20.3,45.4-45.4V314H32.2V322.1z"/>
			<path d="M336.5,143.3l-66-65.9c-3.4-2.6-8-2.8-11.6-0.4l-1.7,1.1c-12.4-13.1-35.4-18.4-54.6-20.4v-3.8h18.8c3.7,0,6.8-3,6.8-6.8
				V14.3c0-3.7-3-6.8-6.8-6.8H61c-3.7,0-6.8,3-6.8,6.8v32.9c0,3.7,3,6.8,6.8,6.8h20v18.1C51.6,91.6,32.2,125,32.2,162.9v7.6h217.9
				v-7.6c0-37.4-18.8-70.4-47.6-90v-4c15.7,1.6,35.3,5.5,45.4,15.2l-2.4,1.5c-3.6,2.3-5.3,6.7-4.3,10.8l32.3,87.9
				c2.6,10.8,15.2,15.8,24.5,9.7l37.3-24.4C344.8,163.6,345.3,150.1,336.5,143.3z M269.1,108c-5.4,3.3-12.6,1.7-15.9-3.8
				c-2.4-3.9-2.2-8.6,0.1-12.2c0.7,1.8,1.2,3.7,1.3,5.8c0.5,7.2,11.7,7.2,11.2,0c-0.3-4.1-1.3-7.8-2.9-11.1c3.9,0,7.7,1.9,9.9,5.5
				C276.3,97.6,274.6,104.7,269.1,108z"/>
		</g>
		<path d="M32.2,180.4v123.6h217.9V180.4H32.2z M181.1,253.4h-28.7v28.7h-22.4v-28.7h-28.7V231h28.7v-28.7h22.4V231h28.7V253.4z"/>
	</g>
</g>
</svg>
