<?xml version="1.0" encoding="utf-8"?>
<!-- Generator: Adobe Illustrator 18.0.0, SVG Export Plug-In . SVG Version: 6.00 Build 0)  -->
<!DOCTYPE svg PUBLIC "-//W3C//DTD SVG 1.1//EN" "http://www.w3.org/Graphics/SVG/1.1/DTD/svg11.dtd">
<svg version="1.1" id="Layer_1" xmlns="http://www.w3.org/2000/svg" xmlns:xlink="http://www.w3.org/1999/xlink" x="0px" y="0px"
	 viewBox="0 0 375 375" enable-background="new 0 0 375 375" xml:space="preserve">
<g>
	<g>
		<g>
			<path d="M162.7,203.2h27.9c0-0.1,0.1-0.1,0.1-0.2l-17.5-17.5C172.2,192.7,168.3,199,162.7,203.2z"/>
			<path d="M159.9,205c-3.7,2-8,3.2-12.5,3.2c-14.3,0-25.9-11.6-25.9-25.9c0-14.3,11.6-25.9,25.9-25.9c12.6,0,23.2,9.1,25.4,21
				l19.8-19.8c-8.8-16-25.7-26.9-45.3-26.9c-28.5,0-51.6,23.1-51.6,51.6c0,28.5,23.1,51.6,51.6,51.6c4.3,0,8.5-0.6,12.5-1.6V205z"/>
		</g>
		<path d="M173.3,287.5l17.3-17.3c0-0.1,0-0.1-0.1-0.2h-30.7v-18.3c-4.1,0.7-8.2,1.1-12.5,1.1c-39,0-70.5-31.6-70.5-70.5
			c0-39,31.6-70.5,70.5-70.5c24.7,0,46.5,12.7,59.1,32l9.7-9.7l21.7,21.7c0.1,0,0.1-0.1,0.2-0.1v-27.4l26.5-26.5l-36.6-36.6
			l-27.1,27.1c-8.5-5.1-17.8-9-27.6-11.4V42.4h-51.8v38.3c-9.8,2.5-19.1,6.4-27.6,11.4L66.8,65.1l-36.6,36.6l27.1,27.1
			c-5.1,8.5-8.9,17.8-11.4,27.6H7.5v51.8h38.3c2.5,9.8,6.4,19.1,11.4,27.6l-27.1,27.1l36.6,36.6l27.1-27.1c8.5,5.1,17.8,9,27.6,11.4
			v38.3h51.8v-25.9V287.5z"/>
		<g>
			<path d="M367.5,254.4v-35.6h-26.3c-1.7-6.7-4.4-13.1-7.9-18.9l18.6-18.6l-25.1-25.2l-18.6,18.6c-5.8-3.5-12.2-6.1-18.9-7.9v-26.3
				h-35.6v26.3c-6.7,1.7-13.1,4.4-18.9,7.9l-18.6-18.6L191,181.3l18.6,18.6c-3.5,5.8-6.1,12.2-7.9,18.9h-26.3v35.6h26.3
				c1.7,6.7,4.4,13.1,7.9,18.9L191,291.9l25.1,25.1l18.6-18.6c5.8,3.5,12.2,6.1,18.9,7.9v26.3h35.6v-26.3c6.7-1.7,13.1-4.4,18.9-7.9
				l18.6,18.6l25.1-25.1l-18.6-18.6c3.5-5.8,6.1-12.2,7.9-18.9H367.5z M271.5,285c-26.7,0-48.4-21.7-48.4-48.4
				c0-26.7,21.7-48.4,48.4-48.4c26.7,0,48.4,21.7,48.4,48.4C319.9,263.3,298.2,285,271.5,285z"/>
			<path d="M271.5,201.2c-19.5,0-35.4,15.8-35.4,35.4c0,19.5,15.8,35.4,35.4,35.4c19.5,0,35.4-15.8,35.4-35.4
				C306.9,217.1,291,201.2,271.5,201.2z M271.5,254.4c-9.8,0-17.8-8-17.8-17.8c0-9.8,8-17.8,17.8-17.8c9.8,0,17.8,8,17.8,17.8
				C289.3,246.4,281.3,254.4,271.5,254.4z"/>
		</g>
	</g>
</g>
</svg>
