<?xml version="1.0" encoding="utf-8"?>
<!-- Generator: Adobe Illustrator 18.0.0, SVG Export Plug-In . SVG Version: 6.00 Build 0)  -->
<!DOCTYPE svg PUBLIC "-//W3C//DTD SVG 1.1//EN" "http://www.w3.org/Graphics/SVG/1.1/DTD/svg11.dtd">
<svg version="1.1" id="Layer_1" xmlns="http://www.w3.org/2000/svg" xmlns:xlink="http://www.w3.org/1999/xlink" x="0px" y="0px"
	 viewBox="0 0 375 375" enable-background="new 0 0 375 375" xml:space="preserve">
<g>
	<path d="M367.5,177.5H322c-4.9-66.5-58-119.6-124.5-124.5V7.5h-19.9V53c-66.5,4.9-119.7,58-124.5,124.5H7.5v19.9H53
		c4.9,66.5,58,119.7,124.5,124.5v45.5h19.9V322c66.5-4.9,119.6-58,124.5-124.5h45.5V177.5z M177.5,167.5c-4.4,2.2-7.9,5.7-10.1,10.1
		h-39.1c4.2-25.1,24-44.9,49.2-49.2V167.5z M167.5,197.4c2.2,4.4,5.7,7.9,10.1,10.1v39.1c-25.1-4.2-44.9-24-49.2-49.2H167.5z
		 M197.5,207.5c4.4-2.2,7.9-5.7,10.1-10.1h39.1c-4.2,25.1-24,44.9-49.2,49.2V207.5z M207.5,177.5c-2.2-4.4-5.7-7.9-10.1-10.1v-39.1
		c25.1,4.2,44.9,24,49.2,49.2H207.5z M197.5,108.3V72.9c55.5,4.8,99.8,49.1,104.6,104.6h-35.4C262.2,141.4,233.6,112.8,197.5,108.3z
		 M177.5,108.3c-36.1,4.5-64.8,33.2-69.3,69.3H72.9C77.7,122,122,77.7,177.5,72.9V108.3z M108.3,197.4c4.5,36.1,33.2,64.8,69.3,69.3
		v35.4C122,297.3,77.7,253,72.9,197.4H108.3z M197.5,266.7c36.1-4.5,64.8-33.2,69.3-69.3h35.4c-4.8,55.5-49.1,99.8-104.6,104.6
		V266.7z"/>
</g>
</svg>
