<?xml version="1.0" encoding="utf-8"?>
<!-- Generator: Adobe Illustrator 18.0.0, SVG Export Plug-In . SVG Version: 6.00 Build 0)  -->
<!DOCTYPE svg PUBLIC "-//W3C//DTD SVG 1.1//EN" "http://www.w3.org/Graphics/SVG/1.1/DTD/svg11.dtd">
<svg version="1.1" id="Layer_1" xmlns="http://www.w3.org/2000/svg" xmlns:xlink="http://www.w3.org/1999/xlink" x="0px" y="0px"
	 viewBox="0 0 375 375" enable-background="new 0 0 375 375" xml:space="preserve">
<g>
	<path d="M273.1,273.6l25.4,93.9L279.9,270l-0.3-1.6l-1.7-0.9l-61-32.2c1.9-4.2,3-8.8,3.2-13.7l47.3-27.7l69.7,61.2l-66.7-68.4
		l-1.7-1.7l-2.6,1.1l-48.2,21.4c-1.2-3.4-2.9-6.5-5-9.3c4.2-5.7,6.9-12.8,7.1-20.6l42.5-40.5l62.2-25.1l-65.5,18.4l-0.5,0.1
		l-0.7,0.6l-40.7,31.1c-2.2-5.4-5.7-10.1-10-13.6c11.7-7.4,19.5-20.9,19.5-36.5c0-12.2-4.8-23.1-12.4-30.8L236,55.9l0.5-0.6l0.1-0.6
		L243,7.5L232,53l-23.7,23c-6-4-13.2-6.4-20.8-6.4c-7.6,0-14.8,2.4-20.8,6.4L143,53L132,7.5l6.4,47.2l0.1,0.6l0.5,0.6l21.5,25.2
		c-7.6,7.7-12.4,18.7-12.4,30.8c0,15.6,7.9,29.2,19.5,36.5c-4.3,3.6-7.7,8.2-10,13.6L116.9,131l-0.7-0.6l-0.5-0.1l-65.5-18.4
		l62.2,25.1l42.5,40.5c0.3,7.8,2.9,14.9,7.1,20.6c-2.1,2.8-3.8,5.9-5,9.3L108.9,186l-2.6-1.1l-1.7,1.7L37.9,255l69.7-61.2l47.3,27.7
		c0.2,4.9,1.3,9.5,3.2,13.7l-61,32.2l-1.7,0.9l-0.3,1.6l-18.6,97.5l25.4-93.9l65.1-26.5c0.8,0.7,1.6,1.3,2.4,1.9
		c-12.9,8.6-21.7,26-21.7,46.1c0,28.6,17.9,51.8,39.9,51.8c22.1,0,39.9-23.2,39.9-51.8c0-20.1-8.8-37.5-21.7-46.1
		c0.8-0.6,1.6-1.2,2.4-1.9L273.1,273.6z"/>
</g>
</svg>
