<?xml version="1.0" encoding="utf-8"?>
<!-- Generator: Adobe Illustrator 18.0.0, SVG Export Plug-In . SVG Version: 6.00 Build 0)  -->
<!DOCTYPE svg PUBLIC "-//W3C//DTD SVG 1.1//EN" "http://www.w3.org/Graphics/SVG/1.1/DTD/svg11.dtd">
<svg version="1.1" id="Layer_1" xmlns="http://www.w3.org/2000/svg" xmlns:xlink="http://www.w3.org/1999/xlink" x="0px" y="0px"
	 viewBox="0 0 375 375" enable-background="new 0 0 375 375" xml:space="preserve">
<g>
	<g>
		<path d="M222.3,224.5l22-130.4L187.5,7.5l-56.9,86.6l22,130.4l-26.1,25.3v58.8l60.7-58.8h0.2h0.2l60.7,58.8v-58.8L222.3,224.5z
			 M187.5,159.2c-6.8,0-12.4-5.5-12.4-12.4c0-6.8,5.5-12.4,12.4-12.4c6.8,0,12.4,5.5,12.4,12.4C199.9,153.7,194.3,159.2,187.5,159.2
			z M187.5,106.7c-9.8,0-17.7-7.9-17.7-17.7c0-9.8,7.9-17.7,17.7-17.7c9.8,0,17.7,7.9,17.7,17.7C205.2,98.8,197.3,106.7,187.5,106.7
			z"/>
		<polygon points="187.9,367.5 161.7,292.1 187.9,267.4 214.2,292.1 		"/>
	</g>
</g>
</svg>
