<?xml version="1.0" encoding="utf-8"?>
<!-- Generator: Adobe Illustrator 18.0.0, SVG Export Plug-In . SVG Version: 6.00 Build 0)  -->
<!DOCTYPE svg PUBLIC "-//W3C//DTD SVG 1.1//EN" "http://www.w3.org/Graphics/SVG/1.1/DTD/svg11.dtd">
<svg version="1.1" id="Layer_1" xmlns="http://www.w3.org/2000/svg" xmlns:xlink="http://www.w3.org/1999/xlink" x="0px" y="0px"
	 viewBox="0 0 375 375" enable-background="new 0 0 375 375" xml:space="preserve">
<g>
	<g>
		<g>
			<g>
				<path d="M336.4,157.9c-3.9-19.9-11.8-38.4-22.7-54.7l22-22l-41.9-41.9l-22,22c-16.3-10.9-34.8-18.7-54.7-22.7V7.5h-59.2v31.1
					c-19.9,3.9-38.4,11.8-54.7,22.7l-22-22L39.3,81.2l22,22c-10.9,16.3-18.7,34.8-22.7,54.7H7.5v59.2h31.1
					c3.9,19.9,11.8,38.4,22.7,54.7l-22,22l41.9,41.9l22-22c16.3,10.9,34.8,18.7,54.7,22.7v31.1h59.2v-31.1
					c19.9-3.9,38.4-11.8,54.7-22.7l22,22l41.9-41.9l-22-22c10.9-16.3,18.7-34.8,22.7-54.7h31.1v-59.2H336.4z M280.5,148.9H214
					l-20.1-61.9C233.1,89.5,266.1,114.4,280.5,148.9z M178,87.3l-20,61.6H94.5C108.5,115.3,140.2,90.8,178,87.3z M86.8,187.5
					c0-7.7,0.9-15.3,2.6-22.5l51.3,37.3L121,263C100,244.5,86.8,217.6,86.8,187.5z M187.5,288.2c-19.6,0-37.9-5.6-53.3-15.3
					l51.9-37.7l53.2,38.7C224.1,282.9,206.4,288.2,187.5,288.2z M251.7,265l-20.4-62.8l53.8-39.1c1.9,7.8,3,16,3,24.4
					C288.2,218.7,274,246.5,251.7,265z"/>
			</g>
		</g>
	</g>
</g>
</svg>
