<?xml version="1.0" encoding="utf-8"?>
<!-- Generator: Adobe Illustrator 18.0.0, SVG Export Plug-In . SVG Version: 6.00 Build 0)  -->
<!DOCTYPE svg PUBLIC "-//W3C//DTD SVG 1.1//EN" "http://www.w3.org/Graphics/SVG/1.1/DTD/svg11.dtd">
<svg version="1.1" id="Layer_1" xmlns="http://www.w3.org/2000/svg" xmlns:xlink="http://www.w3.org/1999/xlink" x="0px" y="0px"
	 viewBox="0 0 375 375" enable-background="new 0 0 375 375" xml:space="preserve">
<g>
	<g>
		<path d="M297.8,204.3H77.2c0,36.7,17.9,69.2,45.5,89.2l-31.1,51.4l37.3,22.6l33.7-55.7c8,1.8,16.3,2.9,24.9,2.9
			c8.6,0,16.9-1,24.9-2.9l33.7,55.7l37.3-22.6l-31.1-51.4C279.9,273.5,297.8,241,297.8,204.3z"/>
		<rect x="77.2" y="177.9" width="220.6" height="19"/>
		<path d="M99.9,81.4c0,0,14.7,42.5,24,59.4c-0.4,2.9-0.7,5.5-0.7,7.6c0,9.7,2.2,12.6,6.1,20.8h116.5c2.9-6.2,4.9-6.6,5.7-13.7
			c9.5-17.7,24.8-58.5,24.8-58.5s-18.2,10.8-36.4,22.8c-0.3-0.9-0.6-1.8-0.9-2.7c0.2-0.6,0.5-1.1,0.7-1.7
			c4.7-14.9-2.1-62.1-2.1-62.1s-10,11.8-21.2,26c-14.8-38.8-28.7-71.8-28.7-71.8s-9.8,23.4-21.8,54c-15.3-14.6-30.4-27.8-30.4-27.8
			s3.4,38.5,9.5,58.1c-1.8,5.2-3.6,10.3-5.3,15.3C120.3,94,99.9,81.4,99.9,81.4z"/>
	</g>
</g>
</svg>
