<?xml version="1.0" encoding="utf-8"?>
<!-- Generator: Adobe Illustrator 18.0.0, SVG Export Plug-In . SVG Version: 6.00 Build 0)  -->
<!DOCTYPE svg PUBLIC "-//W3C//DTD SVG 1.1//EN" "http://www.w3.org/Graphics/SVG/1.1/DTD/svg11.dtd">
<svg version="1.1" id="Layer_1" xmlns="http://www.w3.org/2000/svg" xmlns:xlink="http://www.w3.org/1999/xlink" x="0px" y="0px"
	 viewBox="0 0 375 375" enable-background="new 0 0 375 375" xml:space="preserve">
<g>
	<g id="_x3C_Group_x3E__317_">
		<g>
			<path d="M88.2,131.6c0,0,0.6,11.6,1.8,23.7c-17.3-4.6-38.1-9.1-38.1-9.1s11.6,14.3,22.9,27.3c-27.9,5.4-67.4,14-67.4,14
				s39.5,8.6,67.4,14c-11.4,13.1-22.9,27.3-22.9,27.3s20.8-4.5,38.1-9.1c-1.2,12.1-1.8,23.7-1.8,23.7s23.8-16.8,33-26.9
				c6.8-6,11.4-16.7,11.4-29c0-12.3-4.6-23-11.4-29C112,148.4,88.2,131.6,88.2,131.6z"/>
			<path d="M303.5,355.1c0,0-14.7-73-29.2-89.2c-1.2,2.2-2.7,4.3-4.5,6.2c-5.7,6.2-15.7,6.6-25.9,3.9l-95-88.4l81.6,103
				c2.5,11,2.1,21.9-3.6,28c-1.8,1.9-3.7,3.5-5.7,4.9C236.2,339.1,303.5,355.1,303.5,355.1z"/>
			<path d="M367.5,187.5c0,0-58-40.3-78.8-40.7c0.6,2.5,0.9,5.1,0.9,7.8c0,8.7-6.8,16.7-15.8,22.6l-124.8,10.3l124.8,10.3
				c8.9,5.9,15.8,13.8,15.8,22.5c0,2.7-0.3,5.3-0.9,7.8C309.5,227.9,367.5,187.5,367.5,187.5z"/>
			<path d="M303.5,19.9c0,0-67.3,15.9-82.2,31.7c2,1.3,4,3,5.7,4.9c5.7,6.2,6,17,3.6,28l-81.6,103l95-88.4
				c10.2-2.7,20.2-2.3,25.9,3.9c1.8,1.9,3.3,4,4.5,6.2C288.8,92.9,303.5,19.9,303.5,19.9z"/>
		</g>
	</g>
</g>
</svg>
