<?xml version="1.0" encoding="utf-8"?>
<!-- Generator: Adobe Illustrator 18.0.0, SVG Export Plug-In . SVG Version: 6.00 Build 0)  -->
<!DOCTYPE svg PUBLIC "-//W3C//DTD SVG 1.1//EN" "http://www.w3.org/Graphics/SVG/1.1/DTD/svg11.dtd">
<svg version="1.1" id="Layer_1" xmlns="http://www.w3.org/2000/svg" xmlns:xlink="http://www.w3.org/1999/xlink" x="0px" y="0px"
	 viewBox="0 0 375 375" enable-background="new 0 0 375 375" xml:space="preserve">
<g>
	<g>
		<path d="M187.5,367.5c-99.3,0-180-80.7-180-180c0-99.3,80.7-180,180-180c99.3,0,180,80.7,180,180
			C367.5,286.8,286.8,367.5,187.5,367.5z M187.5,26.4c-88.8,0-161.1,72.3-161.1,161.1c0,88.8,72.3,161.1,161.1,161.1
			c88.8,0,161.1-72.3,161.1-161.1C348.6,98.7,276.3,26.4,187.5,26.4z"/>
		<g>
			<path d="M193.4,44.2v31.2h26.3C212,58.4,202.7,47.5,193.4,44.2z"/>
			<path d="M193.4,87.2v41.3h41.4c-2.6-15.6-6.1-29.5-10.4-41.3H193.4z"/>
			<path d="M217.4,49c5.5,7,10.5,16,14.9,26.5h22.1C243.6,63.5,231,54.4,217.4,49z"/>
			<path d="M193.4,140.3v41.3h46c-0.2-14.7-1.2-28.5-2.8-41.3H193.4z"/>
			<path d="M123.8,181.6c0.2-14.4,1.2-28.2,2.8-41.3H87.1c-3.3,13-5.3,26.9-5.7,41.3H123.8z"/>
			<path d="M120.6,75.4h22.1c4.4-10.5,9.4-19.5,14.9-26.5C144,54.4,131.4,63.5,120.6,75.4z"/>
			<path d="M193.4,193.4v41.3h43.1c1.6-12.8,2.6-26.6,2.8-41.3H193.4z"/>
			<path d="M128.3,128.5c2.5-15.1,5.8-29,9.9-41.3h-27.1c-8.5,12-15.5,25.9-20.6,41.3H128.3z"/>
			<path d="M181.6,330.8v-31.2h-26.3C163,316.6,172.3,327.5,181.6,330.8z"/>
			<path d="M181.6,234.7v-41.3h-46c0.2,14.7,1.2,28.5,2.8,41.3H181.6z"/>
			<path d="M181.6,181.6v-41.3h-43.2c-1.6,12.8-2.6,26.6-2.8,41.3H181.6z"/>
			<path d="M155.3,75.4h26.3V44.2C172.3,47.5,163,58.4,155.3,75.4z"/>
			<path d="M181.6,128.5V87.2h-31.1c-4.2,11.8-7.8,25.6-10.4,41.3H181.6z"/>
			<path d="M219.7,299.6h-26.3v31.2C202.7,327.5,212,316.6,219.7,299.6z"/>
			<path d="M193.4,246.5v41.3h31.1c4.2-11.8,7.8-25.6,10.4-41.3H193.4z"/>
			<path d="M181.6,287.8v-41.3h-41.4c2.6,15.6,6.1,29.5,10.4,41.3H181.6z"/>
			<path d="M138.3,287.8c-4.1-12.3-7.5-26.2-9.9-41.3H90.6c5.1,15.4,12.1,29.3,20.6,41.3H138.3z"/>
			<path d="M126.6,234.7c-1.6-13-2.6-26.9-2.8-41.3H81.4c0.4,14.4,2.4,28.3,5.7,41.3H126.6z"/>
			<path d="M97.1,287.8c-7.8-12.3-14.2-26.2-18.8-41.3h-29c6.5,15.2,15.4,29.1,26.3,41.3H97.1z"/>
			<path d="M78.2,128.5c4.7-15.1,11-29,18.8-41.3H75.6c-10.9,12.1-19.8,26.1-26.3,41.3H78.2z"/>
			<path d="M105.4,299.6h-18c14.8,13.2,32.1,23.5,51.3,30.1C126.3,322.2,115.1,311.9,105.4,299.6z"/>
			<path d="M69.6,181.6c0.4-14.3,2.3-28.2,5.4-41.3H44.8c-4.3,13.1-6.9,26.9-7.4,41.3H69.6z"/>
			<path d="M75,234.7c-3.1-13.1-5-26.9-5.4-41.3H37.4c0.6,14.4,3.1,28.2,7.4,41.3H75z"/>
			<path d="M300,140.3c3.1,13.1,5,26.9,5.4,41.3h32.2c-0.6-14.4-3.1-28.2-7.4-41.3H300z"/>
			<path d="M305.4,193.4c-0.4,14.3-2.3,28.2-5.4,41.3h30.2c4.3-13.1,6.9-26.9,7.4-41.3H305.4z"/>
			<path d="M296.8,246.5c-4.7,15.1-11,29-18.8,41.3h21.5c10.9-12.1,19.8-26.1,26.3-41.3H296.8z"/>
			<path d="M269.6,299.6c-9.6,12.4-20.9,22.6-33.2,30.1c19.1-6.6,36.5-16.9,51.3-30.1H269.6z"/>
			<path d="M105.4,75.4c9.6-12.4,20.9-22.6,33.2-30.1c-19.1,6.6-36.5,16.9-51.3,30.1H105.4z"/>
			<path d="M248.4,140.3c1.6,13.1,2.6,26.9,2.8,41.3h42.4c-0.4-14.4-2.4-28.3-5.7-41.3H248.4z"/>
			<path d="M157.6,326c-5.5-7-10.5-16-14.9-26.5h-22.1C131.4,311.5,144,320.6,157.6,326z"/>
			<path d="M246.7,246.5c-2.4,15.1-5.8,29-9.9,41.3h27.1c8.5-12,15.5-25.9,20.6-41.3H246.7z"/>
			<path d="M254.4,299.6h-22.1c-4.4,10.5-9.4,19.5-14.9,26.5C231,320.6,243.6,311.5,254.4,299.6z"/>
			<path d="M251.2,193.4c-0.2,14.4-1.2,28.2-2.8,41.3h39.5c3.3-13,5.3-26.9,5.7-41.3H251.2z"/>
			<path d="M269.6,75.4h18c-14.8-13.2-32.1-23.5-51.3-30.1C248.7,52.8,259.9,63.1,269.6,75.4z"/>
			<path d="M299.4,87.2h-21.5c7.8,12.3,14.2,26.2,18.8,41.3h29C319.3,113.3,310.3,99.4,299.4,87.2z"/>
			<path d="M236.7,87.2c4.1,12.3,7.5,26.2,9.9,41.3h37.7c-5.1-15.4-12.1-29.3-20.6-41.3H236.7z"/>
		</g>
	</g>
</g>
</svg>
