<?xml version="1.0" encoding="utf-8"?>
<!-- Generator: Adobe Illustrator 18.0.0, SVG Export Plug-In . SVG Version: 6.00 Build 0)  -->
<!DOCTYPE svg PUBLIC "-//W3C//DTD SVG 1.1//EN" "http://www.w3.org/Graphics/SVG/1.1/DTD/svg11.dtd">
<svg version="1.1" id="Layer_1" xmlns="http://www.w3.org/2000/svg" xmlns:xlink="http://www.w3.org/1999/xlink" x="0px" y="0px"
	 viewBox="0 0 375 375" enable-background="new 0 0 375 375" xml:space="preserve">
<g>
	<g>
		<g>
			<path d="M318.5,186.3c2.1-19.5,1.1-40,1.1-56.2c0-73-59.2-122.6-132.1-122.6c-73,0-132.1,49.7-132.1,122.6
				c0,16.2-0.9,36.6,1.1,56.2C57,191,67.1,198,68,202.5c0.7,3.5-8,4.5-7,7.8c1.9,6.5,4.4,12.5,7.8,18c3.4,5.6,7.9,10.2,13,14.3
				c7.7,6.1,26.9-13.9,36-9.6c9.1,4.3,8.2,33,15.8,37.4c17.1,9.9,33.7,8.5,53.8,8.5c20.1,0,36.8,1.4,53.8-8.5
				c7.6-4.4,6.7-33.1,15.8-37.4c9.1-4.3,28.4,15.7,36,9.6c5.1-4.1,9.6-8.8,13-14.3c3.3-5.4,5.9-11.5,7.8-18c1-3.3-7.7-4.3-7-7.8
				C307.9,198,318,191,318.5,186.3z M126.4,202.4c-17.4,0-26.7-14.1-26.7-31.5c0-17.4,9.3-31.5,26.7-31.5c17.4,0,38.6,9.3,38.6,26.7
				C164.9,183.5,143.7,202.4,126.4,202.4z M187.5,232.6c-12.5,0-22.6,13.6-22.6,1.2s10.1-43.9,22.6-43.9c12.5,0,22.5,31.5,22.5,43.9
				S200,232.6,187.5,232.6z M248.6,202.4c-17.4,0-38.6-18.8-38.6-36.2c0-17.4,21.2-26.7,38.6-26.7c17.4,0,26.7,14.1,26.7,31.5
				C275.3,188.3,266,202.4,248.6,202.4z"/>
			<path d="M193.2,329.2c0,0,40.4,8.8,60.9-9.9c16.7-15.2,19.6-56.3,19.6-57.8c0-7.2,5.8-13.1,13.1-13.1c7.2,0,10.7,5.8,10.7,13.1
				c0,2.5-5.7,11-7.2,21.1c-2.9,19.4-3.1,44.6-7.9,44.6c-1.5,0-25.1,24.7-46.3,36c-14.4,7.7-42.9,2.8-42.9,2.8s-28.5,4.9-42.9-2.8
				c-21.2-11.3-44.7-36-46.3-36c-4.7,0-5-25.2-7.9-44.6C94.7,272.5,89,264,89,261.5c0-7.2,3.5-13.1,10.7-13.1
				c7.2,0,13.1,5.8,13.1,13.1c0,1.5,2.8,42.6,19.6,57.8C152.9,337.9,193.2,329.2,193.2,329.2z"/>
			<path d="M170.1,293.5c0,5-4.1,9.1-9.1,9.1c-5,0-9.1-4.1-9.1-9.1c0-5,4.1-13.8,9.1-13.8C166,279.7,170.1,288.5,170.1,293.5z"/>
			<path d="M193.2,293.5c0,5-4.1,9.1-9.1,9.1c-5,0-9.1-4.1-9.1-9.1c0-5,4.1-13.8,9.1-13.8C189.1,279.7,193.2,288.5,193.2,293.5z"/>
			<path d="M165.9,315.5c0-5,4.1-9.1,9.1-9.1c5,0,9.1,4.1,9.1,9.1c0,5-4.1,13.8-9.1,13.8C170,329.3,165.9,320.5,165.9,315.5z"/>
			<path d="M142.8,315.5c0-5,4.1-9.1,9.1-9.1c5,0,9.1,4.1,9.1,9.1c0,5-4.1,13.8-9.1,13.8C146.9,329.3,142.8,320.5,142.8,315.5z"/>
			<path d="M214.6,315.5c0-5,4.1-9.1,9.1-9.1c5,0,9.1,4.1,9.1,9.1c0,5-4.1,13.8-9.1,13.8C218.7,329.3,214.6,320.5,214.6,315.5z"/>
			<path d="M191.5,315.5c0-5,4.1-9.1,9.1-9.1c5,0,9.1,4.1,9.1,9.1c0,5-4.1,13.8-9.1,13.8C195.6,329.3,191.5,320.5,191.5,315.5z"/>
			<path d="M150.5,293.5c0,5-4.1,9.1-9.1,9.1c-5,0-9.1-4.1-9.1-9.1c0-5,4.1-13.8,9.1-13.8C146.4,279.7,150.5,288.5,150.5,293.5z"/>
			<path d="M216.3,293.5c0,5-4.1,9.1-9.1,9.1c-5,0-9.1-4.1-9.1-9.1c0-5,4.1-13.8,9.1-13.8C212.3,279.7,216.3,288.5,216.3,293.5z"/>
			<path d="M239.5,293.5c0,5-4.1,9.1-9.1,9.1s-9.1-4.1-9.1-9.1c0-5,4.1-13.8,9.1-13.8S239.5,288.5,239.5,293.5z"/>
		</g>
	</g>
</g>
</svg>
