<?xml version="1.0" encoding="utf-8"?>
<!-- Generator: Adobe Illustrator 18.0.0, SVG Export Plug-In . SVG Version: 6.00 Build 0)  -->
<!DOCTYPE svg PUBLIC "-//W3C//DTD SVG 1.1//EN" "http://www.w3.org/Graphics/SVG/1.1/DTD/svg11.dtd">
<svg version="1.1" id="Layer_1" xmlns="http://www.w3.org/2000/svg" xmlns:xlink="http://www.w3.org/1999/xlink" x="0px" y="0px"
	 viewBox="0 0 375 375" enable-background="new 0 0 375 375" xml:space="preserve">
<g>
	<g>
		<path d="M209,342.4H104.1c-6.4,0-11.6,5.6-11.6,12.6c0,6.9,5.2,12.6,11.6,12.6H209c6.4,0,11.6-5.6,11.6-12.6
			C220.5,348,215.4,342.4,209,342.4z"/>
		<path d="M262.4,92.2l20.1-84.7h-98.9l-76.5,321.8H206l55.6-233.8h0.8V92.2z M237.9,90.4h-48c2.4-9.9,4.8-19.8,7.2-29.7h47.5
			c-0.1,1.5-0.3,3-0.7,4.5C242,73.6,240,82,237.9,90.4z M227.9,34.3c9.3,2.8,15.7,11.5,16.8,21.4h-46.2c0.3-1.3,0.6-2.5,0.9-3.8
			C202.6,38.6,215.8,30.7,227.9,34.3z M181.5,298.9h-26.8c-7.6-6-11.5-16.8-8.9-27.1c0.2-0.9,0.4-1.7,0.6-2.6h48
			c-1.3,5.3-2.6,10.7-3.9,16C189.1,291,185.8,295.7,181.5,298.9z M147.6,264.2c2.4-9.9,4.8-19.8,7.2-29.7h48
			c-2.4,9.9-4.8,19.8-7.2,29.7H147.6z M156.1,229.4c2.4-9.9,4.8-19.8,7.2-29.7h48c-2.4,9.9-4.8,19.8-7.2,29.7H156.1z M164.6,194.7
			c2.4-9.9,4.8-19.8,7.2-29.7h48c-2.4,9.9-4.8,19.8-7.2,29.7H164.6z M173,159.9c2.4-9.9,4.8-19.8,7.2-29.7h48
			c-2.4,9.9-4.8,19.8-7.2,29.7H173z M234.8,103.3c-1.8,7.3-3.6,14.6-5.3,21.9h-48c2.4-9.9,4.8-19.8,7.2-29.7h48
			C236.1,98.1,235.4,100.7,234.8,103.3z"/>
	</g>
</g>
</svg>
