<?xml version="1.0" encoding="utf-8"?>
<!-- Generator: Adobe Illustrator 18.0.0, SVG Export Plug-In . SVG Version: 6.00 Build 0)  -->
<!DOCTYPE svg PUBLIC "-//W3C//DTD SVG 1.1//EN" "http://www.w3.org/Graphics/SVG/1.1/DTD/svg11.dtd">
<svg version="1.1" id="Layer_1" xmlns="http://www.w3.org/2000/svg" xmlns:xlink="http://www.w3.org/1999/xlink" x="0px" y="0px"
	 viewBox="0 0 375 375" enable-background="new 0 0 375 375" xml:space="preserve">
<g>
	<g id="_x34_65_9_">
		<g>
			<path d="M114.9,192.1c0-8.4-6.8-15.2-15.2-15.2H54.3v30.4h45.4C108.1,207.3,114.9,200.5,114.9,192.1z"/>
			<rect x="46.6" y="176.9" width="4.1" height="30.4"/>
			<path d="M231.4,206.1c40.1-7.2,96.9-18.6,96.9-18.6s-56.8-11.4-96.9-18.6c16.3-17.3,33-36.3,33-36.3s-29.9,6-54.8,12.1
				c0.1-0.8,0.2-1.6,0.3-2.4c7.2-10.2,12.7-18.6,12.7-18.6s-4.5,0.2-11.1,0.7c0.5-6.6,0.7-11.1,0.7-11.1s-8.5,5.5-18.6,12.7
				c-0.8,0.1-1.6,0.2-2.4,0.3c6.1-24.9,12.1-54.8,12.1-54.8s-18.9,16.6-36.3,33c-7.2-40.2-18.6-96.9-18.6-96.9s-11.4,56.8-18.6,96.9
				c-17.3-16.3-36.3-33-36.3-33s1.1,5.3,2.7,13.2c14.1,17.5,24.7,38,30.7,60.4c0.1,0,0.1,0,0.1,0l-5.6-22.7
				c-0.4-1.5-0.7-2.9-1.1-4.4l20.2,19l5.3-29.6c0.8-4.5,1.7-9.2,2.5-14c0.9,4.8,1.7,9.5,2.5,14l5.3,29.6l20.2-19
				c-0.4,1.5-0.7,3-1.1,4.4l-5.6,22.7c0,0,23.5-2.7,23.7-2.7c0,0.2-2.6,23.7-2.6,23.7l22.7-5.6c1.5-0.4,2.9-0.7,4.4-1.1l-19,20.2
				l29.6,5.3c4.5,0.8,9.2,1.7,14,2.5c-4.8,0.9-9.5,1.7-14,2.5l-29.6,5.3l19,20.2c-1.5-0.4-3-0.7-4.4-1.1l-22.7-5.6
				c0,0,2.6,23.5,2.6,23.7l-23.7-2.6l5.6,22.7c0.4,1.5,0.7,2.9,1.1,4.4l-20.2-19l-5.3,29.6c-0.8,4.5-1.7,9.2-2.5,14
				c-0.9-4.8-1.7-9.5-2.5-14l-5.3-29.6l-20.2,19c0.4-1.5,0.7-3,1.1-4.4L117,257c-5.6,12-12.6,23.1-20.8,33.3
				c-1.7,8-2.7,13.2-2.7,13.2s18.9-16.6,36.3-33c7.2,40.2,18.6,96.9,18.6,96.9s11.4-56.8,18.6-96.9c17.3,16.3,36.3,33,36.3,33
				s-6-29.9-12.1-54.8c0.8,0.1,1.6,0.2,2.4,0.3c10.2,7.2,18.6,12.7,18.6,12.7s-0.2-4.5-0.7-11.1c6.6,0.5,11.1,0.7,11.1,0.7
				s-5.5-8.5-12.7-18.6c-0.1-0.8-0.2-1.6-0.3-2.4c24.9,6.1,54.8,12.1,54.8,12.1S247.8,223.4,231.4,206.1z"/>
		</g>
	</g>
</g>
</svg>
