<?xml version="1.0" encoding="utf-8"?>
<!-- Generator: Adobe Illustrator 18.0.0, SVG Export Plug-In . SVG Version: 6.00 Build 0)  -->
<!DOCTYPE svg PUBLIC "-//W3C//DTD SVG 1.1//EN" "http://www.w3.org/Graphics/SVG/1.1/DTD/svg11.dtd">
<svg version="1.1" id="Layer_1" xmlns="http://www.w3.org/2000/svg" xmlns:xlink="http://www.w3.org/1999/xlink" x="0px" y="0px"
	 viewBox="0 0 375 375" enable-background="new 0 0 375 375" xml:space="preserve">
<g>
	<g>
		<path d="M132.3,321.3H90.9c-4.1,0-7.4,3.3-7.4,7.4v31.4c0,4.1,3.3,7.4,7.4,7.4h41.3c4.1,0,7.4-3.3,7.4-7.4v-31.4
			C139.7,324.6,136.4,321.3,132.3,321.3z"/>
		<path d="M236.7,292.6l41-4.9c4.1-0.5,7-4.2,6.5-8.2L266.6,133c-0.9-7.1-7.3-12.2-14.4-11.3l-11.6,1.4c-0.3-3-0.7-6-1-9.1l0.6-0.1
			c6.8-1.2,11.3-7.7,10.1-14.5L246.5,79c-1.1-5.9-6.2-10.2-12.2-10.2c-0.7,0-1.5,0.1-2.2,0.2l-1.5,0.3c-1.5-3.5-3-7-4.5-10.5
			l1.4-0.9c5.7-3.8,7.3-11.5,3.6-17.2l-11.4-17.4c-2.3-3.5-6.2-5.6-10.4-5.6c-2.4,0-4.8,0.7-6.8,2l-7.2,4.7c0,0,0,0,0,0
			c-3.6-0.8-7.2-1.7-10.8-2.5l-0.1-2.4c-0.3-6.7-5.7-11.9-12.4-11.9l-21.3,0.9c-6.9,0.3-12.2,6.1-11.9,13l0.3,6.2
			c-3.3,2.5-6.6,5.1-9.9,7.6l-4-2.1c-1.8-0.9-3.8-1.5-5.8-1.5c-4.6,0-8.9,2.5-11,6.6l-9.7,18.4c-3.2,6.1-0.9,13.6,5.2,16.8l5.1,2.7
			c0,3.7,0,7.5,0,11.2c-6.7,0.2-12.1,5.7-12.1,12.4v20.8c0,6.7,5.4,12.2,12.1,12.4c0,3.5,0,7,0,10.5H96.5c-7.2,0-13,5.8-13,13v147.5
			c0,4.1,3.3,7.4,7.4,7.4h41.3c4.1,0,7.4-3.3,7.4-7.4V156.5c0-7.2-5.8-13-13-13h-8.8c0-3.5,0-7,0-10.5c6.7-0.2,12.1-5.7,12.1-12.4
			V99.8c0-6.7-5.4-12.2-12.1-12.4c0-2.8,0-5.7,0-8.5c4.2-0.4,8-2.8,10-6.6l9.7-18.4c1.6-2.9,1.9-6.3,0.9-9.5
			c-0.4-1.3-1.1-2.5-1.8-3.6c1.6-1.2,3.2-2.5,4.8-3.7c2.3,2.9,5.8,4.8,9.8,4.8l21.3-0.9c3.3-0.1,6.4-1.6,8.6-4
			c1.5-1.6,2.4-3.5,2.9-5.6c1.9,0.4,3.7,0.9,5.6,1.3c-0.5,3.1,0.1,6.2,1.8,8.9L203,59c2.3,3.5,6.2,5.6,10.4,5.6
			c1.6,0,3.2-0.3,4.7-0.9c1.1,2.5,2.1,5,3.2,7.5c-2.3,0.9-4.3,2.4-5.7,4.5c-1.9,2.7-2.6,6-2,9.3l3.7,20.5
			c1.1,5.9,6.2,10.2,12.3,10.2c0.3,0,0.6-0.1,0.9-0.1c0.3,2.9,0.7,5.8,1,8.6l-9.1,1.1c-7.1,0.9-12.2,7.3-11.3,14.4l17.5,146.4
			C228.9,290.2,232.6,293.1,236.7,292.6z M120.4,99.8v20.8c0,1.4-1.1,2.6-2.5,2.8c0-1.5,0-3,0-4.5c0-6-9.4-6-9.4,0c0,1.5,0,3,0,4.5
			c-1.4-0.2-2.5-1.3-2.5-2.8V99.8c0-1.4,1.1-2.6,2.5-2.8c0,0.3,0,0.5,0,0.8c0,6,9.4,6,9.4,0c0-0.3,0-0.5,0-0.8
			C119.3,97.3,120.4,98.4,120.4,99.8z M129.3,47.2c0.2,0.7,0.1,1.5-0.2,2.2l-9.7,18.4c-0.3,0.6-0.8,1-1.4,1.2c0-0.3,0-0.7,0-1
			c0-5.1-6.6-5.9-8.7-2.4l-1.3-0.7c-1.4-0.7-1.9-2.4-1.2-3.8l9.7-18.4c0.5-0.9,1.5-1.5,2.5-1.5c0.5,0,0.9,0.1,1.3,0.3l0.6,0.3
			c-1.9,3.9,2.1,9.4,6.2,6.3c0.6-0.5,1.3-1,1.9-1.4C129.1,46.9,129.2,47,129.3,47.2z M174.2,30.5c-0.5,0.6-1.2,0.9-2,0.9l-20.8,0.9
			l-0.1,0c-0.9,0-1.6-0.4-2.1-1.1c0.6-0.4,1.1-0.9,1.7-1.3c4-3.1,1.2-9.5-2.7-9v0c-0.1-1.6,1.2-2.9,2.7-2.9l20.9-0.9
			c1.5,0,2.8,1.2,2.8,2.7l0,0.2c-4.3,0.9-5.5,7.9-0.4,9.1c0.2,0,0.4,0.1,0.6,0.1C174.7,29.7,174.5,30.1,174.2,30.5z M211,53.7
			l-11.4-17.4c-0.3-0.4-0.4-0.9-0.4-1.4c1.4,0.3,2.7,0.6,4.1,0.9c5.1,1.2,7.7-5.6,4.3-8.2l0.1-0.1c0.5-0.3,1-0.5,1.5-0.5
			c1,0,1.8,0.5,2.4,1.3L223,45.8c0.8,1.3,0.5,3-0.7,3.9c0,0,0,0,0-0.1c-2.4-5.5-10.4-0.8-8.1,4.7c0.1,0.1,0.1,0.3,0.2,0.4
			C213.1,55.1,211.7,54.7,211,53.7z M226.7,103.7L223,83.2c-0.1-0.7,0-1.5,0.5-2.1c0.4-0.6,1-0.9,1.6-1.1c0.3,0.6,0.5,1.2,0.8,1.8
			c2.2,5.1,9.2,1.5,8.4-3.4h0c1.4,0,2.5,1,2.8,2.3l3.7,20.5c0.3,1.5-0.7,3-2.3,3.3c-0.1-0.5-0.1-1-0.2-1.5c-0.7-5.9-10-6-9.4,0
			c0.1,1,0.2,2,0.3,3C228,105.9,226.9,105,226.7,103.7z"/>
		<path d="M291.4,335.2l-3.7-31.1c-0.5-4.1-4.2-7-8.2-6.5l-41,4.9c-4.1,0.5-7,4.2-6.5,8.2l3.7,31.1c0.5,4.1,4.2,7,8.2,6.5l41-4.9
			C289,342.9,291.9,339.2,291.4,335.2z"/>
	</g>
</g>
</svg>
