<?xml version="1.0" encoding="utf-8"?>
<!-- Generator: Adobe Illustrator 18.0.0, SVG Export Plug-In . SVG Version: 6.00 Build 0)  -->
<!DOCTYPE svg PUBLIC "-//W3C//DTD SVG 1.1//EN" "http://www.w3.org/Graphics/SVG/1.1/DTD/svg11.dtd">
<svg version="1.1" id="Layer_1" xmlns="http://www.w3.org/2000/svg" xmlns:xlink="http://www.w3.org/1999/xlink" x="0px" y="0px"
	 viewBox="0 0 375 375" enable-background="new 0 0 375 375" xml:space="preserve">
<g>
	<g>
		<path d="M108.8,222.3c8.8-7.6,14.5-18.9,14.5-31.5c0-23-18.7-41.7-41.7-41.7c-23,0-41.7,18.7-41.7,41.7c0,13.2,6.2,25,15.7,32.6
			c-27.6,6.3-48.1,30.9-48.1,60.4v48.4h155.7v-48.4C163.2,252.2,139.4,226.1,108.8,222.3z"/>
		<path d="M359.6,87.5c-10.5-2-21-3.9-31.5-5.9c-2.1-10.3-4.3-20.6-6.4-30.9c-2.9-13.8-24-8-21.2,5.8c2.1,10.3,4.3,20.6,6.4,30.9
			c-2.4,2.4-4.8,4.8-7.2,7.2c-1.3-6.1-2.5-12.1-3.8-18.2c-2.9-13.8-24-8-21.2,5.8c2.1,10.3,4.3,20.6,6.4,30.9c-1.3,1.3-2.7,2.7-4,4
			c-1.3-6.1-2.5-12.1-3.8-18.2c-2.9-13.8-24-8-21.2,5.8c2.1,10.3,4.3,20.6,6.4,30.9c-19,19-38,38-57,57c-3.8-1.7-8.1-2.7-12.5-2.7
			c-17,0-30.7,13.7-30.7,30.7c0,17,13.7,30.7,30.7,30.7c17,0,30.7-13.7,30.7-30.7c0-4.5-1-8.7-2.7-12.5c19-19,38-38,57-57
			c10.4,1.9,20.8,3.9,31.2,5.8c13.8,2.6,19.7-18.6,5.8-21.2c-6.1-1.1-12.2-2.3-18.2-3.4c1.9-1.9,3.8-3.8,5.6-5.6
			c10.4,1.9,20.8,3.9,31.2,5.8c13.8,2.6,19.7-18.6,5.8-21.2c-6.1-1.1-12.2-2.3-18.2-3.4c1.8-1.8,3.5-3.5,5.3-5.3
			c10.4,1.9,20.8,3.9,31.2,5.8C367.6,111.3,373.5,90.1,359.6,87.5z"/>
		<g>
			<path d="M153.4,185.2c11.6-11.5,28.5-16.9,45.2-14c13.8,2.4,19.8-18.8,5.8-21.2c-25-4.2-49.3,2.9-66.4,19.8L153.4,185.2z"/>
			<path d="M259.6,204.2c-2.7-13.9-23.9-8-21.2,5.8c6.7,33.8-20,59.8-48.9,60.7c-0.9,0-12.5,0-13.4,0v21.9c13.6,0.9,34.5-1.8,47-7.9
				C252.9,270,265.8,235.4,259.6,204.2z"/>
		</g>
		<g>
			<path d="M125.3,157.1c25.6-25.8,65.8-32.5,100.2-18.7c13.1,5.3,18.8-15.9,5.8-21.2C188.7,100,141.8,111,110.2,142L125.3,157.1z"
				/>
			<path d="M297.2,191.4c-1.7-6.9-4.6-13.5-7.6-19.9c-5.9-12.8-24.8-1.7-18.9,11.1c19,41.3,4.3,89.9-33.6,114.4
				c-9.2,5.9-19.1,9.8-29.3,11.9c-3.4,0.7-31.1,1.5-31.1,1.5l-0.4,21.2c21.7,2.3,44.3-1.5,64.3-11.3
				C287.8,296.8,309.7,241.3,297.2,191.4z"/>
		</g>
	</g>
</g>
</svg>
