<?xml version="1.0" encoding="utf-8"?>
<!-- Generator: Adobe Illustrator 18.0.0, SVG Export Plug-In . SVG Version: 6.00 Build 0)  -->
<!DOCTYPE svg PUBLIC "-//W3C//DTD SVG 1.1//EN" "http://www.w3.org/Graphics/SVG/1.1/DTD/svg11.dtd">
<svg version="1.1" id="Layer_1" xmlns="http://www.w3.org/2000/svg" xmlns:xlink="http://www.w3.org/1999/xlink" x="0px" y="0px"
	 viewBox="0 0 375 375" enable-background="new 0 0 375 375" xml:space="preserve">
<g>
	<g>
		<path d="M304.7,205.6l62.8-18.1l-62.8-18.1c-1.3-8.6-3.5-16.9-6.6-24.8l45.3-47.1L280,113.2c-5.4-6.7-11.5-12.8-18.2-18.2
			l15.7-63.4l-47.1,45.3c-7.9-3.1-16.2-5.3-24.8-6.6L187.5,7.5l-18.1,62.8c-8.6,1.3-16.9,3.5-24.8,6.6L97.5,31.6L113.2,95
			c-6.7,5.4-12.8,11.5-18.2,18.2L31.6,97.5l45.3,47.1c-3.1,7.9-5.3,16.2-6.6,24.8L7.5,187.5l62.8,18.1c1.3,8.6,3.5,16.9,6.6,24.8
			l-45.3,47.1L95,261.8c5.4,6.7,11.5,12.8,18.2,18.2l-15.7,63.4l47.1-45.3c7.9,3.1,16.2,5.3,24.8,6.6l18.1,62.8l18.1-62.8
			c8.6-1.3,16.9-3.5,24.8-6.6l47.1,45.3L261.8,280c6.7-5.4,12.8-11.5,18.2-18.2l63.4,15.7l-45.3-47.1
			C301.1,222.5,303.4,214.2,304.7,205.6z M187.5,278.5c-50.2,0-91-40.8-91-91c0-50.2,40.8-91,91-91c50.2,0,91,40.8,91,91
			C278.5,237.7,237.7,278.5,187.5,278.5z"/>
		<path d="M187.5,115c-40,0-72.5,32.5-72.5,72.5c0,40,32.5,72.5,72.5,72.5c40,0,72.5-32.5,72.5-72.5C260,147.5,227.5,115,187.5,115z
			"/>
	</g>
</g>
</svg>
