<?xml version="1.0" encoding="utf-8"?>
<!-- Generator: Adobe Illustrator 18.0.0, SVG Export Plug-In . SVG Version: 6.00 Build 0)  -->
<!DOCTYPE svg PUBLIC "-//W3C//DTD SVG 1.1//EN" "http://www.w3.org/Graphics/SVG/1.1/DTD/svg11.dtd">
<svg version="1.1" id="Layer_1" xmlns="http://www.w3.org/2000/svg" xmlns:xlink="http://www.w3.org/1999/xlink" x="0px" y="0px"
	 viewBox="0 0 375 375" enable-background="new 0 0 375 375" xml:space="preserve">
<g>
	<path d="M315,83.6c-1.5,1.9-2.7,3.9-3.6,6c-0.5,0-1,0-1.5,0c-22.3,0-40.3,18.1-40.3,40.3c0,1.8,0.1,3.5,0.3,5.2
		c-18.4,21.7-36.7,43.4-55.1,65c0-13.5,0-27,0-40.5c8.1-7.4,13.1-18,13.1-29.8c0-13.7-6.8-25.7-17.2-33c1.3-3,2-6.3,2-9.8
		c0-13.9-25.2-52.4-25.2-52.4s-25.2,38.5-25.2,52.4c0,3.5,0.7,6.8,2,9.8c-10.4,7.3-17.2,19.4-17.2,33c0,11.8,5.1,22.4,13.1,29.8
		c0,13.5,0,27,0,40.5c-18.4-21.7-36.7-43.4-55.1-65c0.2-1.7,0.4-3.5,0.4-5.2c0-22.3-18.1-40.3-40.3-40.3c-0.5,0-1,0-1.5,0
		c-0.9-2.1-2.1-4.2-3.6-6C51.3,72.8,7.5,58.7,7.5,58.7s4.7,45.8,13.4,56.6c1.5,1.9,3.3,3.4,5.1,4.8c-0.8,3.2-1.2,6.5-1.2,9.9
		c0,21.8,17.3,39.6,39,40.3c23.1,27.3,46.3,54.6,69.4,81.9c0,0.5,0,1.1,0,1.6c0,29.8,54,86.6,54,86.6s54-56.8,54-86.6
		c0-0.2,0-0.5,0-0.7c23.4-27.6,46.8-55.2,70.2-82.8c21.6-0.7,39-18.5,39-40.3c0-3.4-0.4-6.7-1.2-9.9c1.9-1.3,3.6-2.9,5.1-4.8
		c8.7-10.8,13.4-56.6,13.4-56.6S323.7,72.8,315,83.6z"/>
</g>
</svg>
