<?xml version="1.0" encoding="utf-8"?>
<!-- Generator: Adobe Illustrator 18.0.0, SVG Export Plug-In . SVG Version: 6.00 Build 0)  -->
<!DOCTYPE svg PUBLIC "-//W3C//DTD SVG 1.1//EN" "http://www.w3.org/Graphics/SVG/1.1/DTD/svg11.dtd">
<svg version="1.1" id="Layer_1" xmlns="http://www.w3.org/2000/svg" xmlns:xlink="http://www.w3.org/1999/xlink" x="0px" y="0px"
	 viewBox="0 0 375 375" enable-background="new 0 0 375 375" xml:space="preserve">
<g>
	<g>
		<path d="M141,7.5c-22.1,0-39.9,17.9-39.9,39.9c0,3.4,0.5,6.8,1.3,10c-1.6-0.2-3.2-0.3-4.9-0.3c-22.1,0-39.9,17.9-39.9,39.9
			c0,5.7,1.2,11.1,3.4,16c-16.7,4.8-28.9,20.1-28.9,38.4c0,14.6,7.9,27.4,19.6,34.4c-9.2,7.3-15,18.6-15,31.2
			c0,17.3,11,32,26.4,37.5c-3.4,5.9-5.4,12.7-5.4,20c0,22.1,17.9,39.9,39.9,39.9c2.1,0,4.1-0.2,6.1-0.5c-1.5,4.3-2.4,8.8-2.4,13.6
			c0,22.1,17.9,39.9,39.9,39.9c20.6,0,37.5-15.6,39.7-35.5l0.3,0.1V47.4C180.9,25.4,163,7.5,141,7.5z M119,26.8
			c8.3-11,24-13.2,35-4.9c5.7,4.3,9,10.5,9.7,17c-1.7-3.1-4-6-7-8.2c-11-8.3-26.7-6.1-35,4.9c-4.1,5.4-5.6,11.8-4.9,18
			C112.5,45.3,113,34.8,119,26.8z M106.3,184.8c-0.7-6.7-4-12.5-8.8-16.5c8.9,3.1,15.7,11,16.8,21c1.5,13.7-8.5,26.1-22.2,27.5
			c-7,0.8-13.7-1.5-18.7-5.7c3.4,1.2,7,1.6,10.8,1.2C97.9,210.8,107.8,198.5,106.3,184.8z M95.9,151.7c3.4,1.2,7,1.6,10.8,1.2
			c13.7-1.5,23.7-13.8,22.2-27.5c-0.7-6.7-4-12.5-8.8-16.5c8.9,3.1,15.7,11,16.8,21c1.5,13.7-8.5,26.1-22.2,27.5
			C107.6,158.2,100.9,156,95.9,151.7z M127.7,99.3c-6.7-2.4-11.6-7.4-14.3-13.4c2.5,2.5,5.6,4.5,9.1,5.8c13,4.7,27.3-1.9,32.1-14.9
			c2.3-6.3,1.9-13-0.6-18.7c6.7,6.7,9.3,16.8,5.8,26.2C155.1,97.4,140.7,104.1,127.7,99.3z M97.4,72c7.1,0,13.5,3,18,7.7
			c-3.2-1.5-6.8-2.4-10.6-2.4c-13.8,0-25,11.2-25,25c0,6.7,2.7,12.8,7,17.3c-8.5-4-14.5-12.6-14.5-22.7C72.4,83.2,83.6,72,97.4,72z
			 M45.3,164.5c-7.2-11.8-3.4-27.2,8.4-34.4c6.1-3.7,13.1-4.5,19.4-2.8c-3.5,0.4-7,1.5-10.3,3.5c-11.8,7.2-15.6,22.6-8.4,34.4
			c3.5,5.8,8.9,9.6,15,11.2C60.1,177.4,50.5,173.1,45.3,164.5z M48.6,229.9c-7.2-11.8-3.4-27.2,8.4-34.4c6.1-3.7,13.1-4.5,19.4-2.8
			c-3.5,0.4-7,1.5-10.3,3.5c-11.8,7.2-15.6,22.6-8.4,34.4c3.5,5.8,8.9,9.6,15,11.2C63.4,242.8,53.8,238.5,48.6,229.9z M80.2,298.6
			c-11.8-7.1-15.6-22.5-8.5-34.4c3.7-6.1,9.5-10,15.9-11.4c-2.9,2-5.5,4.6-7.5,7.8c-7.1,11.8-3.4,27.2,8.5,34.4
			c5.8,3.5,12.4,4.4,18.4,3C99.2,303.2,88.8,303.8,80.2,298.6z M99.1,229c7.6-5.6,18-6.7,26.8-2c12.2,6.6,16.7,21.7,10.1,33.9
			c-3.4,6.2-9,10.5-15.3,12.2c2.8-2.1,5.3-4.9,7.1-8.2c6.6-12.2,2-27.3-10.1-33.9C111.7,227.9,105.1,227.4,99.1,229z M139.6,284.1
			c12.2,6.6,16.7,21.7,10.1,33.9c-3.4,6.2-9,10.5-15.3,12.2c2.8-2.1,5.3-4.8,7.1-8.2c6.6-12.2,2-27.3-10.1-33.9
			c-5.9-3.2-12.6-3.7-18.6-2.1C120.4,280.5,130.8,279.4,139.6,284.1z M155.1,355.4c-12,6.9-27.3,2.8-34.2-9.2
			c-3.5-6.1-4.2-13.1-2.3-19.5c0.3,3.5,1.3,7.1,3.2,10.3c6.9,12,22.2,16.1,34.2,9.2c5.8-3.4,9.8-8.7,11.5-14.7
			C168.3,340.9,163.8,350.4,155.1,355.4z M164.6,204.9c-3.4,6.2-9,10.5-15.3,12.2c2.8-2.1,5.3-4.9,7.1-8.2
			c6.6-12.2,2-27.3-10.1-33.9c-5.9-3.2-12.6-3.7-18.6-2.1c7.6-5.6,18-6.7,26.8-2C166.6,177.6,171.1,192.8,164.6,204.9z"/>
		<path d="M343.1,223.6c0-14.6-7.9-27.4-19.6-34.4c9.2-7.3,15-18.6,15-31.2c0-17.3-11-32-26.4-37.5c3.4-5.9,5.4-12.7,5.4-20
			c0-22.1-17.9-39.9-39.9-39.9c-2.1,0-4.1,0.2-6.1,0.5c1.5-4.3,2.4-8.8,2.4-13.6c0-22.1-17.9-39.9-39.9-39.9
			c-20.6,0-37.5,15.6-39.7,35.5l-0.3-0.1v284.6c0,22.1,17.9,39.9,39.9,39.9c22.1,0,39.9-17.9,39.9-39.9c0-3.4-0.5-6.8-1.3-10
			c1.6,0.2,3.3,0.3,4.9,0.3c22.1,0,39.9-17.9,39.9-39.9c0-5.7-1.2-11.1-3.4-16C330.9,257.2,343.1,241.9,343.1,223.6z M326.4,145.1
			c7.2,11.8,3.4,27.2-8.4,34.4c-6.1,3.7-13.1,4.5-19.4,2.8c3.5-0.4,7-1.5,10.3-3.5c11.8-7.2,15.6-22.6,8.4-34.4
			c-3.5-5.8-8.9-9.6-15-11.2C311.6,132.2,321.2,136.5,326.4,145.1z M221,316.8c-6.7-6.7-9.3-16.8-5.8-26.2
			c4.7-13,19.1-19.7,32.1-14.9c6.7,2.4,11.6,7.4,14.3,13.4c-2.5-2.5-5.6-4.5-9.1-5.8c-13-4.7-27.3,1.9-32.1,14.9
			C218.1,304.5,218.5,311.1,221,316.8z M246.1,249.6c0.7,6.7,4,12.5,8.8,16.5c-8.9-3.1-15.7-11-16.8-21
			c-1.5-13.7,8.5-26.1,22.2-27.5c7-0.8,13.7,1.5,18.7,5.7c-3.4-1.2-7-1.6-10.8-1.2C254.6,223.5,244.7,235.8,246.1,249.6z
			 M268.7,190.2c0.7,6.7,4,12.5,8.8,16.5c-8.9-3.1-15.7-11-16.8-21c-1.5-13.7,8.5-26.1,22.2-27.5c7-0.8,13.7,1.5,18.7,5.7
			c-3.4-1.2-7-1.6-10.8-1.2C277.1,164.2,267.2,176.5,268.7,190.2z M294.8,76.4c11.8,7.2,15.6,22.5,8.5,34.4
			c-3.7,6.1-9.5,10-15.9,11.4c2.9-2,5.5-4.6,7.5-7.8c7.2-11.8,3.4-27.2-8.5-34.4c-5.8-3.5-12.4-4.4-18.5-3
			C275.8,71.8,286.2,71.2,294.8,76.4z M275.9,146c-7.6,5.6-18,6.7-26.8,2c-12.2-6.6-16.7-21.7-10.1-33.9c3.4-6.2,9-10.5,15.3-12.2
			c-2.8,2.1-5.3,4.8-7.1,8.2c-6.6,12.2-2,27.3,10.1,33.9C263.3,147.1,269.9,147.6,275.9,146z M235.4,90.9
			c-12.2-6.6-16.7-21.7-10.1-33.9c3.4-6.2,9-10.5,15.3-12.2c-2.8,2.1-5.3,4.9-7.1,8.2c-6.6,12.2-2,27.3,10.1,33.9
			c5.9,3.2,12.6,3.7,18.6,2.1C254.6,94.5,244.2,95.7,235.4,90.9z M219.9,19.6c12-6.9,27.3-2.8,34.2,9.2c3.5,6.1,4.2,13.1,2.3,19.5
			c-0.3-3.5-1.3-7.1-3.2-10.3c-6.9-12-22.2-16.1-34.2-9.2c-5.8,3.4-9.8,8.7-11.5,14.7C206.7,34.1,211.2,24.6,219.9,19.6z
			 M210.4,170.1c3.4-6.2,9-10.5,15.3-12.2c-2.8,2.1-5.3,4.8-7.1,8.2c-6.6,12.2-2,27.3,10.1,33.9c5.9,3.2,12.6,3.7,18.6,2.1
			c-7.6,5.6-18,6.7-26.8,2C208.4,197.4,203.9,182.2,210.4,170.1z M256,348.2c-8.3,11-24,13.2-35,4.9c-5.7-4.3-9-10.5-9.7-17
			c1.7,3.1,4,6,7,8.3c11,8.3,26.7,6.1,35-4.9c4.1-5.4,5.6-11.9,4.9-18C262.5,329.7,262,340.2,256,348.2z M277.6,303
			c-7.1,0-13.5-3-18-7.7c3.2,1.5,6.8,2.4,10.6,2.4c13.8,0,25-11.2,25-25c0-6.7-2.7-12.8-7-17.3c8.5,4,14.5,12.6,14.5,22.7
			C302.6,291.8,291.4,303,277.6,303z M321.3,244.8c-6.1,3.7-13,4.5-19.4,2.8c3.5-0.4,7-1.5,10.3-3.5c11.8-7.2,15.6-22.6,8.4-34.4
			c-3.5-5.8-8.9-9.6-15-11.2c9.4-1,18.9,3.3,24.1,11.9C336.9,222.3,333.1,237.7,321.3,244.8z"/>
	</g>
</g>
</svg>
