<?xml version="1.0" encoding="utf-8"?>
<!-- Generator: Adobe Illustrator 18.0.0, SVG Export Plug-In . SVG Version: 6.00 Build 0)  -->
<!DOCTYPE svg PUBLIC "-//W3C//DTD SVG 1.1//EN" "http://www.w3.org/Graphics/SVG/1.1/DTD/svg11.dtd">
<svg version="1.1" id="Layer_1" xmlns="http://www.w3.org/2000/svg" xmlns:xlink="http://www.w3.org/1999/xlink" x="0px" y="0px"
	 viewBox="0 0 375 375" enable-background="new 0 0 375 375" xml:space="preserve">
<g>
	<path d="M333.6,41.4C266.4-25.8,116.1,15.7,43,88.8c-14.6,14.6-26.4,30.7-35.5,47.8l71.3,23.2c4.4-6.9,9.6-13.4,15.7-19.5
		c42.1-42.1,144.3-81.6,183-42.9c38.7,38.7-0.7,140.9-42.9,183c-6.1,6.1-12.6,11.3-19.5,15.7l23.2,71.3
		c17.1-9.1,33.3-20.9,47.8-35.5C359.3,258.9,400.8,108.6,333.6,41.4z M64.6,117.8c-5.2-5.2-5.2-13.7,0-18.9c5.2-5.2,13.7-5.2,18.9,0
		c5.2,5.2,5.2,13.7,0,18.9S69.8,123.1,64.6,117.8z M121.2,80.1c-5.2-5.2-5.2-13.7,0-18.9c5.2-5.2,13.7-5.2,18.9,0
		c5.2,5.2,5.2,13.7,0,18.9C134.9,85.3,126.4,85.3,121.2,80.1z M182.2,56.9c-5.2-5.2-5.2-13.7,0-18.9c5.2-5.2,13.7-5.2,18.9,0
		c5.2,5.2,5.2,13.7,0,18.9C195.8,62.1,187.4,62.1,182.2,56.9z M248,54.7c-5.2-5.2-5.2-13.7,0-18.9c5.2-5.2,13.7-5.2,18.9,0
		c5.2,5.2,5.2,13.7,0,18.9C261.6,59.9,253.2,59.9,248,54.7z M295.7,79.3c-5.2-5.2-5.2-13.7,0-18.9c5.2-5.2,13.7-5.2,18.9,0
		c5.2,5.2,5.2,13.7,0,18.9C309.4,84.5,300.9,84.5,295.7,79.3z M320.3,127c-5.2-5.2-5.2-13.7,0-18.9c5.2-5.2,13.7-5.2,18.9,0
		c5.2,5.2,5.2,13.7,0,18.9C333.9,132.3,325.5,132.3,320.3,127z M318.1,192.8c-5.2-5.2-5.2-13.7,0-18.9c5.2-5.2,13.7-5.2,18.9,0
		c5.2,5.2,5.2,13.7,0,18.9C331.8,198.1,323.3,198.1,318.1,192.8z M294.9,234.9c5.2-5.2,13.7-5.2,18.9,0c5.2,5.2,5.2,13.7,0,18.9
		c-5.2,5.2-13.7,5.2-18.9,0C289.7,248.6,289.7,240.1,294.9,234.9z M257.2,310.4c-5.2-5.2-5.2-13.7,0-18.9c5.2-5.2,13.7-5.2,18.9,0
		c5.2,5.2,5.2,13.7,0,18.9C270.8,315.6,262.4,315.6,257.2,310.4z"/>
</g>
</svg>
