<?xml version="1.0" encoding="utf-8"?>
<!-- Generator: Adobe Illustrator 18.0.0, SVG Export Plug-In . SVG Version: 6.00 Build 0)  -->
<!DOCTYPE svg PUBLIC "-//W3C//DTD SVG 1.1//EN" "http://www.w3.org/Graphics/SVG/1.1/DTD/svg11.dtd">
<svg version="1.1" id="Layer_1" xmlns="http://www.w3.org/2000/svg" xmlns:xlink="http://www.w3.org/1999/xlink" x="0px" y="0px"
	 viewBox="0 0 375 375" enable-background="new 0 0 375 375" xml:space="preserve">
<g>
	<path d="M263,228l-3.2-11.4l-12.4,5.2l-12.2,5.1c0-1.5,0-3,0-4.6c0-10.1-0.3-19.5-0.7-28.4l16.9-21.9l57.3,26.6l1.8,0.8l1.2-0.6
		l40.4-18.2l-41,10.8l-57.9-39.5l-5.6-3.8l-6.1,5.7l-9.9,9.2c-1.9-13.1-4.4-24.3-7.4-33.7l27.3-21.6l1.1-0.9l0.1-0.9l2.1-26.7
		l-7,24.3l-28.1,14.2c-4.2-9.2-9.1-15.9-14.4-20.4c0.9-2.1,1.4-4.4,1.4-6.7c0-1.2-0.1-2.4-0.4-3.6c0.4-2.6,0.9-6,1.5-10
		c1.4-9,3.1-20.8,7.2-31.8c1-2.8,2.2-5.4,3.4-8.1c1.4-2.5,2.7-5.1,4.3-7.4c1.4-2.4,3.1-4.5,4.7-6.6c1.6-2,3.3-3.8,4.8-5.5
		c1.6-1.6,3.1-3.1,4.4-4.4c1.3-1.3,2.6-2.3,3.6-3.2c2-1.7,3.2-2.7,3.2-2.7s-1.3,0.8-3.5,2.3c-1.1,0.8-2.5,1.5-4,2.7
		c-1.5,1.1-3.2,2.3-5,3.8c-1.7,1.5-3.7,3.1-5.6,5c-1.9,1.9-3.9,3.8-5.8,6.1c-2,2.2-3.7,4.7-5.6,7.2c-1.7,2.6-3.4,5.3-4.9,8.1
		c-0.8,1.4-1.5,2.8-2.1,4.2c-0.7,1.4-1.4,2.8-1.9,4.3c-1.2,2.9-2.3,5.7-3.3,8.5c-1.9,5.5-3.5,10.7-4.8,15.2c0,0.1,0,0.1,0,0.2
		c-2.7-1.4-5.8-2.2-9.1-2.2c-3.3,0-6.4,0.8-9.1,2.2c0-0.1,0-0.1,0-0.2c-1.3-4.4-2.9-9.6-4.8-15.2c-1-2.8-2.1-5.6-3.3-8.5
		c-0.6-1.4-1.3-2.8-1.9-4.3c-0.7-1.4-1.3-2.8-2.1-4.2c-1.4-2.8-3.2-5.5-4.9-8.1c-1.9-2.5-3.6-5-5.6-7.2c-1.9-2.3-3.9-4.2-5.8-6.1
		c-1.9-1.9-3.9-3.4-5.6-5c-1.8-1.4-3.5-2.7-5-3.8c-1.5-1.2-2.9-1.9-4-2.7c-2.2-1.5-3.5-2.3-3.5-2.3s1.2,1,3.2,2.7
		c1,0.9,2.3,1.9,3.6,3.2c1.3,1.3,2.8,2.7,4.4,4.4c1.5,1.7,3.2,3.5,4.8,5.5c1.6,2.1,3.2,4.2,4.7,6.6c1.6,2.3,2.9,4.9,4.3,7.4
		c1.2,2.6,2.5,5.3,3.4,8.1c4.1,11,5.8,22.8,7.2,31.8c0.6,4.1,1.1,7.5,1.5,10c-0.2,1.2-0.4,2.4-0.4,3.6c0,2.4,0.5,4.7,1.4,6.7
		c-5.4,4.4-10.2,11.2-14.4,20.4l-28.1-14.2l-7-24.3l2.1,26.7l0.1,0.9l1.1,0.9l27.3,21.6c-3.1,9.4-5.6,20.6-7.4,33.7l-9.9-9.2
		l-6.1-5.7l-5.6,3.8l-57.9,39.5l-41-10.8L63.4,199l1.2,0.6l1.8-0.8l57.3-26.6l16.9,21.9c-0.5,8.8-0.7,18.3-0.7,28.4c0,1.5,0,3,0,4.6
		l-12.2-5.1l-12.4-5.2L112,228L87,316.9l-39.8,39.8l46.5-34.4l0.6-0.5l0.6-1.3l32.7-72.7l13.3,8.1c4.5,72.1,23.7,111.5,46.7,111.5
		c23,0,42.2-39.3,46.7-111.5l13.3-8.1l32.7,72.7l0.6,1.3l0.6,0.5l46.5,34.4L288,316.9L263,228z"/>
</g>
</svg>
