<?xml version="1.0" encoding="utf-8"?>
<!-- Generator: Adobe Illustrator 18.0.0, SVG Export Plug-In . SVG Version: 6.00 Build 0)  -->
<!DOCTYPE svg PUBLIC "-//W3C//DTD SVG 1.1//EN" "http://www.w3.org/Graphics/SVG/1.1/DTD/svg11.dtd">
<svg version="1.1" id="Layer_1" xmlns="http://www.w3.org/2000/svg" xmlns:xlink="http://www.w3.org/1999/xlink" x="0px" y="0px"
	 viewBox="0 0 375 375" enable-background="new 0 0 375 375" xml:space="preserve">
<g>
	<g>
		<g>
			<path d="M168.9,352.8h-61.4c-3.8,0-6.8,3.3-6.8,7.4c0,4.1,3,7.4,6.8,7.4h61.4c3.8,0,6.8-3.3,6.8-7.4
				C175.7,356.1,172.7,352.8,168.9,352.8z"/>
			<path d="M200.2,206.2l11.8-49.6h-58l-44.8,188.5h58l32.6-137h0.5V206.2z M185.9,205.2h-28.1c1.4-5.8,2.8-11.6,4.2-17.4h27.9
				c-0.1,0.9-0.2,1.8-0.4,2.7C188.3,195.3,187.1,200.2,185.9,205.2z M180,172.3c5.5,1.6,9.2,6.8,9.8,12.5h-27.1
				c0.2-0.7,0.4-1.5,0.5-2.2C165.2,174.8,172.9,170.2,180,172.3z M152.8,327.3h-15.7c-4.5-3.5-6.7-9.8-5.2-15.9
				c0.1-0.5,0.2-1,0.4-1.5h28.1c-0.8,3.1-1.5,6.2-2.3,9.4C157.3,322.7,155.3,325.4,152.8,327.3z M133,307c1.4-5.8,2.8-11.6,4.2-17.4
				h28.1c-1.4,5.8-2.8,11.6-4.2,17.4H133z M137.9,286.6c1.4-5.8,2.8-11.6,4.2-17.4h28.1c-1.4,5.8-2.8,11.6-4.2,17.4H137.9z
				 M142.9,266.2c1.4-5.8,2.8-11.6,4.2-17.4h28.1c-1.4,5.8-2.8,11.6-4.2,17.4H142.9z M147.9,245.9c1.4-5.8,2.8-11.6,4.2-17.4h28.1
				c-1.4,5.8-2.8,11.6-4.2,17.4H147.9z M184,212.7c-1,4.3-2.1,8.5-3.1,12.8h-28.1c1.4-5.8,2.8-11.6,4.2-17.4h28.1
				C184.8,209.6,184.4,211.2,184,212.7z"/>
		</g>
		<g>
			<path d="M276,236.4c0,0-15-21.1-29.1-39.2l-7.5,28C257.9,231.2,276,236.4,276,236.4z"/>
			<path d="M328.9,84.6c0,0-49.1,14.3-83.4,25.2c6.1-21.7,11.7-44.9,11.7-44.9s-21.2,17.8-38.4,33.5c-0.2-0.7-0.5-1.5-0.7-2.2
				c1.7-11.7,2.7-21.3,2.7-21.3s-3.4,2.1-8.4,5.3c-2.2-5.9-3.8-9.8-3.8-9.8s-4.5,8.3-9.7,18.7c-0.6,0.4-1.2,0.8-1.8,1.3
				c-4.9-23.8-11.9-51.8-11.9-51.8s-8.4,22.2-15.6,43.5C148.3,51,117.2,7.5,117.2,7.5s13.2,53.2,23.3,90.5
				C120.4,91.4,99,85.2,99,85.2s16.4,23,30.9,41.6c-0.7,0.3-1.3,0.5-2,0.8c-10.8-1.8-19.6-3-19.6-3s1.9,3.7,4.9,9.2
				c-5.4,2.4-9,4.1-9,4.1s7.7,4.9,17.3,10.5c0.4,0.6,0.8,1.3,1.2,2c-21.9,5.3-47.8,12.9-47.8,12.9s20.5,9.1,40.1,16.9
				c-28.7,23.1-68.9,56.9-68.9,56.9s36.4-10.6,68.4-20.5l4.7-17.6c-1.9,0.6-3.7,1.2-5.6,1.8c2.2-1.8,4.4-3.6,6.6-5.4l7.1-26.8
				l-5.3-2.1c1.3-0.3,2.6-0.6,3.9-1l2.4-0.6l6.2-23.3c0.1-0.1,19.7-7.8,19.7-7.8l-13.2-17c-0.8-1.1-1.7-2.2-2.6-3.3l23.3,7.6
				l-7.4-27.5c-1.1-4.1-2.3-8.5-3.5-13c2.6,3.7,5.1,7.3,7.5,10.8l15.8,23l8.4-24.7c0.3,1.4,0.6,2.8,0.9,4.2l4.5,21.7
				c0,0,17.5-12.2,17.6-12.3c0,0.1,7.2,21.3,7.2,21.3l15.6-14.3c1-0.9,2-1.9,3.1-2.8l-7,25.2l25.4-8c3.8-1.2,7.8-2.5,12-3.7
				c-3.4,2.8-6.8,5.5-10,8.1l-21.2,17.1l22.8,9.1c-1.3,0.3-2.6,0.6-3.9,1l-20,4.9c0,0,4.1,6.9,7.4,12.5l15.3,4.8l-4.2,15.8
				c10.5,1.8,18.9,2.8,18.9,2.8s-1.9-3.7-4.9-9.2c5.4-2.4,9-4.1,9-4.1s-7.7-4.9-17.3-10.5c-0.4-0.6-0.8-1.3-1.2-2
				c21.9-5.3,47.8-12.9,47.8-12.9s-20.5-9.1-40.1-16.9C288.8,118.4,328.9,84.6,328.9,84.6z"/>
			<path d="M227.2,271c16,22.8,30.6,43.2,30.6,43.2s-11.1-44.5-20.6-80.6L227.2,271z"/>
		</g>
	</g>
</g>
</svg>
