<?xml version="1.0" encoding="utf-8"?>
<!-- Generator: Adobe Illustrator 18.0.0, SVG Export Plug-In . SVG Version: 6.00 Build 0)  -->
<!DOCTYPE svg PUBLIC "-//W3C//DTD SVG 1.1//EN" "http://www.w3.org/Graphics/SVG/1.1/DTD/svg11.dtd">
<svg version="1.1" id="Layer_1" xmlns="http://www.w3.org/2000/svg" xmlns:xlink="http://www.w3.org/1999/xlink" x="0px" y="0px"
	 viewBox="0 0 375 375" enable-background="new 0 0 375 375" xml:space="preserve">
<g>
	<g>
		<g>
			<g>
				<polygon points="161.1,268.4 107.6,215 272.4,24.7 366.4,7.5 351.4,103.7 				"/>
				<rect x="37.1" y="242.6" transform="matrix(0.7071 0.7071 -0.7071 0.7071 216.2548 -9.7537)" width="165.6" height="27.1"/>
				<rect x="63.5" y="269.8" transform="matrix(0.7071 0.7071 -0.7071 0.7071 225.3115 12.1094)" width="69.1" height="16.5"/>
				<rect x="43.7" y="289.5" transform="matrix(0.7071 0.7071 -0.7071 0.7071 233.4863 31.8435)" width="69.1" height="16.5"/>
				<rect x="24" y="309.2" transform="matrix(0.7071 0.7071 -0.7071 0.7071 241.6519 51.5692)" width="69.1" height="16.5"/>
				<rect x="4.3" y="329" transform="matrix(0.7071 0.7071 -0.7071 0.7071 249.8329 71.3074)" width="69.1" height="16.5"/>
			</g>
		</g>
	</g>
</g>
</svg>
