<?xml version="1.0" encoding="utf-8"?>
<!-- Generator: Adobe Illustrator 18.0.0, SVG Export Plug-In . SVG Version: 6.00 Build 0)  -->
<!DOCTYPE svg PUBLIC "-//W3C//DTD SVG 1.1//EN" "http://www.w3.org/Graphics/SVG/1.1/DTD/svg11.dtd">
<svg version="1.1" id="Layer_1" xmlns="http://www.w3.org/2000/svg" xmlns:xlink="http://www.w3.org/1999/xlink" x="0px" y="0px"
	 viewBox="0 0 375 375" enable-background="new 0 0 375 375" xml:space="preserve">
<g>
	<g>
		<g>
			<g>
				<g>
					<path d="M303.6,265.9L172.1,134.4c-4.8-4.8-12.6-4.8-17.4,0l0,0c-4.8,4.8-4.8,12.6,0,17.4l21.6,21.6L7.5,342.1l63.7,14.2
						l-7.6-35.4l35.4,7.6l-7.6-35.4l35.4,7.6l-7.6-35.4l35.4,7.6l-7.6-35.4l35.4,7.6l-7.6-35.4l35.4,7.6l-2.9-13.5l79.2,79.2
						c4.8,4.8,12.6,4.8,17.4,0l0,0C308.4,278.5,308.4,270.7,303.6,265.9z"/>
					<path d="M361.9,197.8l-66.6-66.6l39.9-39.9c5.2-5.2,5.2-13.8,0-19l-49.7-49.7c-5.2-5.2-13.8-5.2-19,0L213,76.1l-13.6,13.6
						l-13.6,13.6c-7.5,7.5-7.5,19.7,0,27.2l121.7,121.7c7.5,7.5,19.7,7.5,27.2,0l27.2-27.2C369.4,217.5,369.4,205.4,361.9,197.8z
						 M260.3,47.6c8.2,0,16.5,0,24.7,0c8.9,0,8.9,13.9,0,13.9c-8.2,0-16.5,0-24.7,0C251.3,61.5,251.3,47.6,260.3,47.6z M286.1,118.3
						c-27.5,0-55.1,0-82.6,0c-8.9,0-8.9-13.9,0-13.9c27.5,0,55.1,0,82.6,0C295,104.4,295,118.3,286.1,118.3z M314.5,89.9
						c-27.5,0-55.1,0-82.6,0c-8.9,0-8.9-13.9,0-13.9c27.5,0,55.1,0,82.6,0C323.4,76,323.4,89.9,314.5,89.9z M331.1,237.1
						c-5.5,5.5-14.3,5.5-19.8,0l-43.6-43.6c-5.5-5.5-5.5-14.3,0-19.8l15.6-15.6c5.5-5.5,14.3-5.5,19.8,0l43.6,43.6
						c5.5,5.5,5.5,14.3,0,19.8L331.1,237.1z"/>
				</g>
			</g>
		</g>
	</g>
</g>
</svg>
