<?xml version="1.0" encoding="utf-8"?>
<!-- Generator: Adobe Illustrator 18.0.0, SVG Export Plug-In . SVG Version: 6.00 Build 0)  -->
<!DOCTYPE svg PUBLIC "-//W3C//DTD SVG 1.1//EN" "http://www.w3.org/Graphics/SVG/1.1/DTD/svg11.dtd">
<svg version="1.1" id="Layer_1" xmlns="http://www.w3.org/2000/svg" xmlns:xlink="http://www.w3.org/1999/xlink" x="0px" y="0px"
	 viewBox="0 0 375 375" enable-background="new 0 0 375 375" xml:space="preserve">
<g>
	<g id="_x3C_Group_x3E__301_">
		<g>
			<g>
				<g>
					<path d="M187.5,98.3c-49.2,0-89.2,40-89.2,89.2s40,89.2,89.2,89.2c49.2,0,89.2-40,89.2-89.2S236.7,98.3,187.5,98.3z
						 M187.5,254.3c-36.8,0-66.8-30-66.8-66.8s30-66.8,66.8-66.8c36.8,0,66.8,30,66.8,66.8S224.3,254.3,187.5,254.3z"/>
					<path d="M316.7,163.8h-23.6c-2.2-9.8-5.7-19.2-10.4-27.8l28.9,7.7l11.8-1.3l7.7-9.6l9.6,7.7l25.9-2.9l-79.1-35.3l-20.5,11.8
						c-6.7-7.3-14.4-13.6-22.9-18.9l28.9-7.7l9.6-7l1.8-12.2l12.2,1.8l21-15.4l-86.1,9l-11.8,20.4c-9.3-2.9-19.1-4.6-29.3-4.9
						l21.2-21.2l4.8-10.9L212,35.9l11.5-4.5l10.5-23.9l-70.1,50.8v23.6c-9.8,2.2-19.2,5.7-27.8,10.4l7.7-28.9l-1.3-11.8l-9.6-7.7
						l7.7-9.6l-2.9-25.9l-35.3,79.1l11.8,20.5c-7.3,6.7-13.6,14.4-18.9,22.9l-7.7-28.9l-7-9.6l-12.2-1.8l1.8-12.2l-15.4-21l9,86.1
						l20.4,11.8c-2.9,9.3-4.6,19.1-4.8,29.3l-21.2-21.2l-10.9-4.8L35.9,163l-4.5-11.5L7.5,141.1l50.8,70.1h23.6
						c2.2,9.8,5.7,19.2,10.4,27.8l-28.9-7.7l-11.8,1.3l-7.7,9.6l-9.6-7.7l-25.9,2.9l79.1,35.3l20.5-11.8
						c6.7,7.3,14.4,13.6,22.9,18.9l-28.9,7.8l-9.6,7l-1.8,12.2l-12.2-1.8l-21,15.4l86.1-9l11.8-20.4c9.3,2.9,19.1,4.6,29.3,4.8
						l-21.2,21.2l-4.8,10.9l4.5,11.5l-11.5,4.5l-10.5,23.9l70.1-50.8v-23.6c9.8-2.2,19.2-5.7,27.8-10.4l-7.7,28.9l1.3,11.8l9.6,7.7
						l-7.7,9.6l2.9,25.9l35.3-79.1l-11.8-20.5c7.3-6.7,13.6-14.4,18.9-22.9l7.7,28.9l7,9.6l12.2,1.8l-1.8,12.2l15.4,21l-9-86.1
						l-20.4-11.8c2.9-9.3,4.6-19.1,4.8-29.3l21.2,21.2l10.9,4.8l11.5-4.5l4.5,11.5l23.9,10.5L316.7,163.8z M187.5,288.2
						c-55.6,0-100.7-45.2-100.7-100.7S131.9,86.8,187.5,86.8c55.6,0,100.7,45.2,100.7,100.7S243.1,288.2,187.5,288.2z"/>
				</g>
			</g>
		</g>
	</g>
</g>
</svg>
