<?xml version="1.0" encoding="utf-8"?>
<!-- Generator: Adobe Illustrator 18.0.0, SVG Export Plug-In . SVG Version: 6.00 Build 0)  -->
<!DOCTYPE svg PUBLIC "-//W3C//DTD SVG 1.1//EN" "http://www.w3.org/Graphics/SVG/1.1/DTD/svg11.dtd">
<svg version="1.1" id="Layer_1" xmlns="http://www.w3.org/2000/svg" xmlns:xlink="http://www.w3.org/1999/xlink" x="0px" y="0px"
	 viewBox="0 0 375 375" enable-background="new 0 0 375 375" xml:space="preserve">
<g>
	<g>
		<g>
			<path d="M251.1,169.7c0,35.1-28.5,63.6-63.6,63.6s-63.6-28.5-63.6-63.6c0-35.1,63.6-162.2,63.6-162.2S251.1,134.6,251.1,169.7z"
				/>
			<path d="M256.8,266.1l78.5,16.1l-56-63.1c0.2-0.7,0.4-1.5,0.6-2.2c0.5-2.8,1-5.5,1.5-7.9c0.3-2.5,0.4-4.8,0.6-6.8
				c0.1-1,0.1-2,0.2-2.9c0-0.9-0.1-1.8-0.1-2.5c-0.1-1.6-0.1-2.9-0.2-4c-0.1-2.2-0.1-3.3-0.1-3.3s-0.2,1.2-0.5,3.3
				c-0.4,2.1-0.5,5.4-1.6,9.3c-0.5,1.9-1,4.1-1.5,6.4c-0.8,2.3-1.6,4.7-2.4,7.3l-16.1,27.9c-1.6,1.9-3.1,3.9-5,5.7
				c-5.1,5.6-11.6,10.4-18.5,14.9c-6.9,4.5-14.9,7.6-23,10.2c-8.3,2.4-17,3.4-25.7,3.6c-4-0.3-9.3-0.2-13.2-1
				c-4.1-0.4-8.3-1.6-12.5-2.6c-8.1-2.6-16.1-5.8-23-10.2c-6.8-4.5-13.3-9.3-18.5-14.9c-1.9-1.8-3.5-3.8-5.1-5.8l-16-27.8l0,0
				c-0.9-2.6-1.7-5.1-2.4-7.4c-0.6-2.3-1.1-4.5-1.5-6.4c-1-3.9-1.2-7.1-1.6-9.2c-0.3-2.2-0.5-3.3-0.5-3.3s0,1.2-0.1,3.3
				c0,1.1-0.1,2.4-0.2,4c0,0.8-0.1,1.7-0.1,2.6c0.1,0.9,0.1,1.9,0.2,2.9c0.2,2,0.3,4.3,0.6,6.8c0.5,2.5,1,5.1,1.5,7.9
				c0.2,0.7,0.4,1.5,0.6,2.2l-56,63.1l78.5-16.1l-16.1,78.5l60-53.2l25.3,76l25.3-76l60,53.2L256.8,266.1z"/>
		</g>
	</g>
</g>
</svg>
