<?xml version="1.0" encoding="utf-8"?>
<!-- Generator: Adobe Illustrator 18.0.0, SVG Export Plug-In . SVG Version: 6.00 Build 0)  -->
<!DOCTYPE svg PUBLIC "-//W3C//DTD SVG 1.1//EN" "http://www.w3.org/Graphics/SVG/1.1/DTD/svg11.dtd">
<svg version="1.1" id="Layer_1" xmlns="http://www.w3.org/2000/svg" xmlns:xlink="http://www.w3.org/1999/xlink" x="0px" y="0px"
	 viewBox="0 0 375 375" enable-background="new 0 0 375 375" xml:space="preserve">
<g>
	<g>
		<g>
			<path d="M84.1,328.1H38.5c-10.9,0-19.7,8.8-19.7,19.7c0,10.9,8.8,19.7,19.7,19.7h45.6c10.9,0,19.7-8.8,19.7-19.7
				C103.8,337,95,328.1,84.1,328.1z"/>
			<path d="M103.6,237c-2-24.4-20.2-65.9-42.3-65.9C39.2,171.1,21,212.6,19,237H103.6z"/>
			<path d="M18.8,245.5v55.8c0,10.9,8.8,19.7,19.7,19.7h45.6c10.9,0,19.7-8.8,19.7-19.7v-55.8H18.8z"/>
		</g>
		<g>
			<path d="M210.9,328.1h-45.6c-10.9,0-19.7,8.8-19.7,19.7c0,10.9,8.8,19.7,19.7,19.7h45.6c10.9,0,19.7-8.8,19.7-19.7
				C230.5,337,221.7,328.1,210.9,328.1z"/>
			<path d="M230.3,181.7c-2-24.4-20.2-89.2-42.3-89.2c-22.1,0-40.3,64.8-42.3,89.2H230.3z"/>
			<path d="M145.5,190.2v111c0,10.9,8.8,19.7,19.7,19.7h45.6c10.9,0,19.7-8.8,19.7-19.7v-111H145.5z"/>
		</g>
		<g>
			<path d="M336.5,328.1h-45.6c-10.9,0-19.7,8.8-19.7,19.7c0,10.9,8.8,19.7,19.7,19.7h45.6c10.9,0,19.7-8.8,19.7-19.7
				C356.2,337,347.4,328.1,336.5,328.1z"/>
			<path d="M356,113.7C354,89.3,313.7,7.5,313.7,7.5s-40.3,81.8-42.3,106.2H356z"/>
			<path d="M271.2,122.2v179c0,10.9,8.8,19.7,19.7,19.7h45.6c10.9,0,19.7-8.8,19.7-19.7v-179H271.2z"/>
		</g>
	</g>
</g>
</svg>
