<?xml version="1.0" encoding="utf-8"?>
<!-- Generator: Adobe Illustrator 18.0.0, SVG Export Plug-In . SVG Version: 6.00 Build 0)  -->
<!DOCTYPE svg PUBLIC "-//W3C//DTD SVG 1.1//EN" "http://www.w3.org/Graphics/SVG/1.1/DTD/svg11.dtd">
<svg version="1.1" id="Layer_1" xmlns="http://www.w3.org/2000/svg" xmlns:xlink="http://www.w3.org/1999/xlink" x="0px" y="0px"
	 viewBox="0 0 375 375" enable-background="new 0 0 375 375" xml:space="preserve">
<g>
	<g>
		<circle cx="318.1" cy="45.7" r="38.2"/>
		<circle cx="56.9" cy="187.5" r="38.2"/>
		<path d="M356.3,187.5c0-21.1-17.1-38.2-38.2-38.2c-17.2,0-31.8,11.4-36.6,27h-57.5c-3.7-12.1-13.3-21.7-25.4-25.4V82.3
			c15.7-4.8,27-19.3,27-36.6c0-21.1-17.1-38.2-38.2-38.2c-17.2,0-31.8,11.4-36.6,27H93.5c-4.8-15.7-19.3-27-36.6-27
			c-21.1,0-38.2,17.1-38.2,38.2C18.7,66.9,35.8,84,56.9,84c17.2,0,31.8-11.4,36.6-27h57.5c3.7,12.1,13.3,21.7,25.4,25.4v68.6
			c-15.7,4.8-27,19.3-27,36.6c0,21.1,17.1,38.2,38.2,38.2c17.2,0,31.8-11.4,36.6-27h57.5c3.7,12.1,13.3,21.7,25.4,25.4v68.6
			c-12.1,3.7-21.7,13.3-25.4,25.4h-57.5c-4.8-15.7-19.3-27-36.6-27c-21.1,0-38.2,17.1-38.2,38.2c0,21.1,17.1,38.2,38.2,38.2
			c17.2,0,31.8-11.4,36.6-27h57.5c4.8,15.7,19.3,27,36.6,27c21.1,0,38.2-17.1,38.2-38.2c0-17.2-11.4-31.8-27-36.6v-68.6
			C344.9,219.3,356.3,204.7,356.3,187.5z"/>
		<circle cx="56.9" cy="329.3" r="38.2"/>
	</g>
</g>
</svg>
