<?xml version="1.0" encoding="utf-8"?>
<!-- Generator: Adobe Illustrator 18.0.0, SVG Export Plug-In . SVG Version: 6.00 Build 0)  -->
<!DOCTYPE svg PUBLIC "-//W3C//DTD SVG 1.1//EN" "http://www.w3.org/Graphics/SVG/1.1/DTD/svg11.dtd">
<svg version="1.1" id="Layer_1" xmlns="http://www.w3.org/2000/svg" xmlns:xlink="http://www.w3.org/1999/xlink" x="0px" y="0px"
	 viewBox="0 0 375 375" enable-background="new 0 0 375 375" xml:space="preserve">
<g>
	<g>
		<path d="M289.2,162.3c27.9-3.9,56.4-23,74.6-40.7c11.3-11.1-6-28.4-17.4-17.4c-12.7,12.4-38,31.8-60.8,34.6
			c-3.5-11.8-9.5-22.5-18.2-31.2c-8.7-8.7-19.4-14.8-31.2-18.2c2.8-22.8,22.2-48.1,34.6-60.8c11-11.3-6.3-28.7-17.4-17.4
			c-17.7,18.2-36.9,46.7-40.7,74.6c-9.2-0.2-18.7,0.8-28.3,3c9,18.9,23.1,39.4,42.8,59s40.2,33.8,59,42.8
			C288.4,181,289.4,171.4,289.2,162.3z"/>
		<path d="M130.7,113.1c-10.8-14.8-28.3-25.5-46.9-19.2c-15,5-8.8,28.8,6.2,23.8c9.3-3.1,16.5,3.2,21.5,10.8
			c-1.9,1.7-3.7,3.5-5.6,5.3c-5.8,5.8-11,11.8-15.8,18c-13.9-9-31.5-12.7-45.9-2.5c-12.8,9-0.8,30.5,12.1,21.4
			c6.8-4.8,14.1-2.8,20.3,1.5c-7.4,13-12.6,26.4-15.7,39.6c-15.9-8.6-35.1-10.4-49.7,3c-11.7,10.7,5.7,28,17.4,17.4
			c8.5-7.8,22.6,1,29.3,7.3c0.2,16.3,4.2,31.4,12.4,44l129.2-129.2c-16.9-18.9-30-38.7-38.8-57.8
			C150.6,100.7,140.5,106.3,130.7,113.1z M83.2,229.8c-4.8-4.8-4.8-12.6,0-17.4c4.8-4.8,12.6-4.8,17.4,0c4.8,4.8,4.8,12.6,0,17.4
			C95.8,234.6,88,234.6,83.2,229.8z M144.3,195.5c-5.1,5.1-13.4,5.1-18.5,0c-5.1-5.1-5.1-13.4,0-18.5c5.1-5.1,13.4-5.1,18.5,0
			C149.5,182.1,149.5,190.4,144.3,195.5z M160.1,132.3c5.1,5.1,5.1,13.4,0,18.5c-5.1,5.1-13.4,5.1-18.5,0c-5.1-5.1-5.1-13.4,0-18.5
			C146.7,127.2,155,127.2,160.1,132.3z"/>
		<path d="M257.3,284.9c-5,15,18.7,21.2,23.8,6.2c6.3-18.6-4.4-36.1-19.2-46.9c6.8-9.8,12.4-19.9,16.7-30.1
			c-19.2-8.7-39-21.8-57.8-38.8L91.6,304.6c12.6,8.1,27.8,12.1,44,12.4c6.3,6.7,15.2,20.8,7.3,29.3c-10.7,11.6,6.6,29,17.4,17.4
			c13.4-14.6,11.7-33.8,3-49.7c13.2-3,26.6-8.3,39.6-15.7c4.2,6.3,6.3,13.5,1.5,20.3c-9.1,12.9,12.3,25,21.4,12.1
			c10.1-14.4,6.5-32-2.5-45.9c6.2-4.8,12.2-10,18-15.8c1.8-1.8,3.6-3.7,5.3-5.6C254.1,268.4,260.5,275.6,257.3,284.9z M180.2,231.4
			c5.1-5.1,13.4-5.1,18.5,0c5.1,5.1,5.1,13.4,0,18.5c-5.1,5.1-13.4,5.1-18.5,0C175.1,244.8,175.1,236.5,180.2,231.4z M145.2,291.8
			c-4.8-4.8-4.8-12.6,0-17.4c4.8-4.8,12.6-4.8,17.4,0c4.8,4.8,4.8,12.6,0,17.4C157.8,296.6,150,296.6,145.2,291.8z M222.4,231.7
			c-5.1-5.1-5.1-13.4,0-18.5c5.1-5.1,13.4-5.1,18.5,0c5.1,5.1,5.1,13.4,0,18.5S227.5,236.8,222.4,231.7z"/>
	</g>
</g>
</svg>
