<?xml version="1.0" encoding="utf-8"?>
<!-- Generator: Adobe Illustrator 18.0.0, SVG Export Plug-In . SVG Version: 6.00 Build 0)  -->
<!DOCTYPE svg PUBLIC "-//W3C//DTD SVG 1.1//EN" "http://www.w3.org/Graphics/SVG/1.1/DTD/svg11.dtd">
<svg version="1.1" id="Layer_1" xmlns="http://www.w3.org/2000/svg" xmlns:xlink="http://www.w3.org/1999/xlink" x="0px" y="0px"
	 viewBox="0 0 375 375" enable-background="new 0 0 375 375" xml:space="preserve">
<g>
	<g>
		<path d="M224.3,165.5C224.2,163.2,224.5,167.8,224.3,165.5L224.3,165.5z"/>
		<path d="M97.8,240.5C98.6,244,97.1,236.9,97.8,240.5L97.8,240.5z"/>
		<path d="M65.2,184.6C63.6,185.5,68.4,182.9,65.2,184.6L65.2,184.6z"/>
		<path d="M348,186.8C357.6,187.1,343.2,186.7,348,186.8L348,186.8z"/>
		<path d="M348,186.8c-7.1-0.2-14.1-0.3-21.2-0.5c-3.4-0.1-6.9-0.7-10.3-0.5c-1.9,0.1-2.5,0.4-4.1-0.7c-1.4-1.2-2.6-2.4-3.8-3.8
			c-4.6-5.7-6.8-12.9-9.9-19.4c-3.6-7.6-6.8-15-9-23.1c-3.8-13.8-6.2-27.9-7.9-42.1c-0.2-1.4,6-6.4,7.2-7.5c2.3-2.3,4.6-4.7,6.9-7
			c1.8-1.9,3.7-3.8,5.5-5.6c-0.1-0.1-0.2-0.2-0.3-0.3c-2.3,2.2-4.6,4.5-6.9,6.7c-2.8,2.8-5.6,5.5-8.4,8.3c-1.6,1.6-3.2,3.1-4.8,4.7
			c-1.7-0.7-3.4-1.2-5.1-1.8c-8.3-2.9-16.8-5.2-25.2-7.8c-9.3-2.9-18.9-4.9-27.6-9.5c-15.1-7.9-28.1-20.3-31.8-37.4
			c-2.2-10-0.9-21.5-1-32c-0.1,0-0.3,0-0.4,0c-0.1,10.3,0.5,21.1-0.8,31c-2.8,17-15.9,30-30.5,38.1c-8.2,4.5-17,6.7-25.8,9.4
			c-8.2,2.6-16.5,5.2-24.7,7.7c-1.8,0.5-3.6,1.1-5.4,1.7c-0.7,0.2-2.3,1.2-2.9,1.1c-3.2-3.2-6.4-6.3-9.7-9.5
			c-2.8-2.7-5.6-5.5-8.4-8.2c-0.1,0.1-0.2,0.2-0.3,0.3c2.3,2.3,4.6,4.6,6.8,7c2.6,2.7,5.3,5.4,7.9,8.1c1.4,1.5,3,2.2,2.7,4.3
			c-0.2,2-0.5,4-0.8,6c-2.5,17.5-8.6,35.1-19,49.5c-4.9,6.8-11.4,12.3-17.7,17.6c-6.1,5.1-12.6,9.1-19.7,12.4c-1.9,0.9-5,2.5-6.8,3
			c-4,0-8.1,0.1-12.1,0.1c-3.7,0-7.3,0.1-11,0.1c0,0.1,0,0.3,0,0.4c3.7,0,7.3,0.1,11,0.1c4,0,8.1,0.1,12.1,0.1
			c2.1,0.5,4.9,1.6,7.5,1.8c6.9,0.5,13.1,5.4,18.3,9.8c6.3,5.4,12.5,12,17.5,18.7C88.5,232,94,249.7,96.9,266.5
			c0.6,3.5,1.1,7,1.5,10.5c0.2,1.3-2.6,3.3-3.5,4.3c-1.6,1.7-3.2,3.3-4.7,5c-3.8,4-7.6,8-11.3,12.1c0.1,0.1,0.2,0.2,0.3,0.3
			c3.3-3,6.6-6.1,9.9-9.2c2.9-2.7,5.9-5.5,8.8-8.3c1.9-1.8,1.9-1.9,4.3-1.1c1.8,0.6,3.5,1.2,5.3,1.7c8.1,2.5,16.2,5,24.4,7.3
			c8.4,2.4,16.9,4.2,24.8,8c14.3,6.9,27.2,17.9,31.8,33.6c1.1,3.7,0.8,7.6,0.8,11.4c0.1,3.8,0.2,7.6,0.3,11.3
			c0.1,4.7,0.3,9.4,0.4,14.1c0.1,0,0.3,0,0.4,0c0.2-4.3,0.3-8.5,0.4-12.8c0.1-3.4,0.2-6.8,0.3-10.3c0.1-3.7-0.4-8,0.4-11.6
			c3.5-15.8,16-27.3,29.9-34.5c7.4-3.8,15.2-6,23.2-8.1c8.3-2.2,16.5-4.8,24.7-7.3c3.3-1,6.5-2,9.7-3.1c2.1-0.7,2.6,0.6,4.2,2
			c1.4,1.3,2.7,2.6,4.1,3.9c3.7,3.5,7.4,6.9,11.2,10.4c0.1-0.1,0.2-0.2,0.3-0.3c-3.2-3.5-6.5-6.9-9.7-10.4c-2.4-2.6-4.9-5.2-7.3-7.7
			c0.4-3.4,0.8-6.8,1.4-10.2c2.4-15.6,6-32.1,13.4-46.2c3.5-6.8,7.7-13.6,12.1-20c2.3-3.3,4.8-6.5,7.9-9c1.5-1.2,3.1-2.3,4.8-3.2
			c1.6-0.8,4-0.5,5.7-0.5c12-0.3,24-0.5,36-1c0-0.1,0-0.3,0-0.4C358,187.1,353,187,348,186.8z M263.5,190.6c0,0-0.1,0.1-0.2,0.2
			c-0.2,0.1-0.2,0.2-0.2,0.2c-7.9,7.1-10.6,17.2-12.6,27.4c-1.6,8.4-1.9,17-1.4,25.5c-5.5-5.7-11.1-11.3-16.7-16.9
			c-2.2-2.2-6.6-5-6.2-8.1c0.4-3.5,1-7.1,1.7-10.5c1.3-5.9,3.2-13.2,6.8-18.3c1.3-1.8,9.5-0.6,11.8-0.6c4.2,0,8.3,0,12.5,0
			c2.1,0,4.1,0,6.2,0C264.5,189.8,264,190.2,263.5,190.6z M246.4,246.7c-0.5-0.1-0.4-0.1-0.3-0.1c-11-2.3-21.6-0.6-31.5,4.7
			c-9,4.8-17.8,11.2-22.5,20.4c0-0.2,0-0.4,0-0.6c0-8.5,0.1-17,0-25.5c0-1.8-0.5-4.5,0.3-6.1c1.1-1.6,2.2-3.2,3.6-4.6
			c2.5-2.5,5.5-4.4,8.8-5.8c3.4-1.4,7-2.1,10.4-3.3c1.8-0.5,3.5-0.9,5.3-1.4c2.5-0.6,2.9-1,4.8,0.9c6,6,12,12,18,17.9
			c1.2,1.2,2.4,2.3,3.6,3.5C246.7,246.7,246.6,246.7,246.4,246.7C246.5,246.7,246.5,246.7,246.4,246.7z M225,216.7c0,1,0,2,0.1,3
			c-3.9-3.9-7.9-7.8-11.8-11.6c0.3-2.3,0.6-4.5,1.1-6.7c0.8-3.9,2.1-8.7,4.5-12.1c4.3,0,8.5,0.1,12.8,0.1
			C225.1,195.8,224.9,208.1,225,216.7z M221.9,222.1c-11-1.3-24.7,4.8-29.9,15c0-5.5-0.1-11-0.1-16.5c0.4-0.5,0.8-1,1.3-1.4
			c1.7-1.6,3.7-2.9,5.8-3.8c2.2-1,4.6-1.4,6.9-2.2c1.2-0.3,2.3-0.6,3.5-0.9c1.7-0.4,1.9-0.6,3.2,0.6c2.1,2.2,4.3,4.3,6.4,6.4
			C220,220.1,221,221.1,221.9,222.1z M191.4,145.7c3.4,3.9,9.1,5.7,14,7c5.5,1.6,10.9,2.3,16.6,1.2c-1.5,1.4-2.9,2.9-4.4,4.3
			c-0.3,0.3-0.7,0.8-1.3,1.4c-1.4,1.3-2.7,2.7-4.1,4c-0.4,0.3-0.7,0.4-1,0.3c-5.2-1.5-10.6-1.3-15.8-2.7c-1.3-0.4-2.5-0.8-3.7-1.4
			c-0.1,0-0.2-0.1-0.2-0.1C191.4,155.1,191.4,150.4,191.4,145.7z M218.7,185.7c-0.2-0.2-0.4-0.5-0.6-0.8c-2.3-3.8-3.8-8.3-4.7-12.7
			c-0.4-1.8-0.6-3.6-0.8-5.4c3.9-3.9,7.8-7.9,11.6-11.8c-0.2,3.5-0.2,7,0.1,10.5c0.5,6.8,1.5,15.2,6.8,20.1
			C227,185.6,222.9,185.7,218.7,185.7z M212.5,207c0,0.1,0,0.3,0,0.4c-6.2-6.1-12.4-12.2-18.6-18.3c7.5,0.1,15,0.1,22.6,0.2
			C212.5,193.6,212.4,201.5,212.5,207z M191.7,196c0.2,0.2,0.3,0.3,0.5,0.4c1.8,8.2,7.5,4.5,1.1-3.3c5.7,5.8,11.4,11.6,17.1,17.4
			c-6.5-0.8-14.4,2.4-18.6,7.8C191.8,210.9,191.8,203.5,191.7,196z M191.7,191.6L191.7,191.6c0-0.1,0-0.1,0-0.2h0
			C191.7,191.5,191.7,191.6,191.7,191.6z M193.8,185.9c6-6.1,12.1-12.3,18.1-18.4c-0.1,1.8,0,3.6,0.1,5.3c0.3,4.3,1,9.6,4.1,12.9
			C208.7,185.8,201.3,185.9,193.8,185.9z M191.5,160.9c2.3,1.7,5.3,2.7,7.9,3.4c3.7,1.1,7.3,1.6,11.2,0.8
			c-5.7,5.6-11.5,11.3-17.2,16.9c6.2-7.3,0.5-9.6-1.3-2.5c-0.2,0.1-0.3,0.2-0.5,0.4C191.6,173.6,191.5,167.3,191.5,160.9z
			 M191.6,183.6c0,0.1,0,0.1,0,0.1l0,0.1C191.6,183.7,191.6,183.6,191.6,183.6L191.6,183.6z M254.8,185.5c-4,0-7.9,0-11.9,0
			c-1.8,0-3.5,0-5.3,0c-2.5,0-2.8,0.2-4.1-2c-3.5-5.7-5.7-12.5-7-19c-0.7-3.3-1.1-6.6-1.5-9.9c-0.1-1,2.2-2.7,2.9-3.4
			c1.6-1.6,3.2-3.3,4.9-4.9c5.5-5.6,11-11.2,16.5-16.7c-0.4,4.4-0.6,8.9-0.5,13.4c0.1,8,1.2,15.9,2.8,23.8
			c1.5,7.2,4.5,14.3,10.6,18.7C259.6,185.5,257.2,185.5,254.8,185.5z M224,151.8c-0.1,0.1-0.3,0.3-0.4,0.4c-0.2,0.1-0.5,0.1-0.7,0.1
			c-7.8-2.3-15.9-1.9-23.7-4c-1.9-0.5-3.8-1.2-5.5-2.1c-2.4-1.3-2.4-2.1-2.5-4.7c0-4.6-0.1-9.3-0.1-13.9c-0.1-9.1-0.1-18.3-0.2-27.4
			c4.6,10.7,13.8,18.1,23.9,23.6c10.2,5.6,22.4,7.5,33.6,4.1C240.4,135.8,232.2,143.8,224,151.8z M283.5,156.5
			c2.4,11.5,7.4,23,17.8,29.4c-10.3-0.1-20.6-0.2-30.9-0.3c-0.8-0.7-1.5-1.4-2.2-2.2c-3-3.8-4.6-8.6-6.6-12.9c-2.4-5-4.5-10-6-15.4
			c-2.4-8.8-4-17.7-5.1-26.7c9.9-10.1,19.9-20.2,29.8-30.3c-0.8,7.6-1.1,15.2-1,22.8C279.4,132.8,281,144.7,283.5,156.5z M192,54.4
			c0,0,0,0.1,0.1,0.4c0.5,1.2,0.4,1,0.3,0.6c6.8,16.6,20.8,27.9,36.2,36.4c15.2,8.3,33.6,11.3,50.5,6.1
			c-5.3,5.2-10.5,10.4-15.8,15.5c0,0,0,0,0,0c-1.5,1.5-3,3-4.6,4.5c-1.9,1.8-3.7,3.7-5.6,5.5c-1.1,1-2.1,2.1-3.2,3.1
			c-1.1-0.5-2.3-0.8-3.4-1.2c-5.5-1.9-11.2-3.5-16.8-5.2c-6.2-1.9-12.6-3.3-18.4-6.3c-9.1-4.7-17-11.9-20.3-21.7
			c-0.1-14-0.2-28.1-0.3-42.1C191.1,51.5,191.5,53,192,54.4z M104.8,99.3c-0.1,0-0.1,0,0.3,0.1c0.6,0.1,0.6,0.1,0.4,0.1
			c17.8,3.6,34.7,0,50.2-9.3c15.3-9.2,29.3-22,34-39.8c-0.1,10.9-0.2,21.9-0.2,32.8c-0.3-5.1,0.1-10.5,0-15.6c-0.1,0-0.2,0-0.3,0
			c-0.1,6.9,0.3,14.1-0.6,20.7c-1.9,11.4-10.6,20-20.3,25.4c-5.4,3-11.3,4.4-17.2,6.3c-5.5,1.7-11,3.4-16.5,5.1
			c-1.2,0.4-2.4,0.8-3.6,1.2c-0.2,0.1-0.4,0.2-0.7,0.3c-9.5-9.3-19-18.7-28.5-28C102.7,98.7,103.8,99,104.8,99.3z M187.7,274.5
			C187.2,273.1,187.6,274.2,187.7,274.5c-4.4-11-14.4-18.3-24.6-23.6c-8.9-4.6-19.2-6.6-29.1-4.6c2.1-2,4.1-4,6.2-6
			c3.2-3.2,6.4-6.4,9.6-9.5c1.9-1.8,7-8.8,9.4-8.2c6.1,1.4,13.1,3.2,18.5,6.4c3.6,2.1,9.1,6,10.3,10.5c0,0.7,0,1.4,0,2.1
			c0,8.2,0.1,16.3,0.2,24.5c0,0.8,0,1.7,0,2.5c0,2.5,0,4.9,0.1,7.4C188.1,275.4,187.9,274.9,187.7,274.5
			C187.8,274.6,187.8,274.6,187.7,274.5z M129.5,128.2c7.5,7.7,15.1,15.4,22.6,23c0.8,0.9,1.7,1.7,2.5,2.6c0.6,0.9,0.7,1.7,0.3,3.6
			c-0.3,1.7-0.7,3.4-1.1,5.1c-1.1,4-2.8,7.8-5,11.3c-2.6,4.2-7.3,8.9-11.8,10.8c-1.8,0.8-3.1,1.7-5.1,1.7c-2.3,0-4.7,0-7,0.1
			c-4.6,0-9.1,0.1-13.7,0.1c-2.4,0-4.9,0-7.3,0.1c0.7-0.3,1.4-0.6,2-1c9.8-5.1,16-16.1,19.6-26.2
			C129.2,149.3,130.2,138.8,129.5,128.2z M188.6,129.7c0,4.9-0.1,9.8-0.1,14.7c-0.3,0.7-0.9,1.2-2.1,1.8c-2.1,1.2-4.4,1.9-6.8,2.5
			c-7.4,1.8-15.1,1.5-22.4,3.7c-1.8,0.5-7.9-7.1-9.4-8.5c-3.5-3.4-6.9-6.8-10.4-10.2c-1.6-1.6-3.2-3.2-4.9-4.8
			c0.3,0.1,0.3,0.1,0.2,0c11.9,2.4,23.1,0,33.4-6.2c10.2-6.1,19.6-14.6,22.6-26.6C188.8,107.2,188.7,118.5,188.6,129.7z
			 M156.5,218.4c0-0.4,0-0.9,0-1.3c-0.7-10.4-4.6-23.5-14.9-28.4c3.7,0,7.4,0.1,11.2,0.1l0,0c3.4,1.6,6.5,4.1,8.8,7
			c1.5,1.8,2.6,4.2,3.3,6.5c0.6,1.8,2.2,5.6,0.8,7c-2.6,2.5-5.1,5.1-7.6,7.6C157.5,217.4,157,217.9,156.5,218.4z M171,170.4
			c1.7,1.8,3.5,3.5,5.2,5.3c3.4,3.4,6.8,6.9,10.1,10.3c-9.6,0.1-19.2,0.1-28.8,0.2c6.5-3.9,9.1-13.2,8.9-20.3
			C166.5,166.6,170.2,169.6,171,170.4z M186.2,189c-6.5,6.4-13,12.7-19.4,19.1c0-0.3,0-0.6,0-0.9c-0.5-6.6-2.8-14.8-9-18.4
			C167.3,188.9,176.8,189,186.2,189z M185.4,194.5c-0.1,0.4-0.1,0.7-0.1,1c-3.2,5.9,1.4,8,2.8,0.4c-0.1,8-0.1,16.1-0.2,24.1
			c-3-6.2-10.5-10.5-17.3-10.5C175.6,204.5,180.5,199.5,185.4,194.5z M188.1,191.7L188.1,191.7C188.2,191.7,188.2,191.7,188.1,191.7
			L188.1,191.7C188.2,191.7,188.2,191.7,188.1,191.7z M155.9,155.1C155.9,155.2,155.9,155.6,155.9,155.1L155.9,155.1
			c0.1,0.8,3.1,3.5,5.2,5.3c1.2,1.2,2.4,2.5,3.6,3.7c1.3,1.3,1.4,1.6,1.1,3.4c-0.2,1.2-0.4,2.3-0.7,3.4c-0.7,2.7-1.9,5.2-3.3,7.6
			c-1.7,2.8-4.9,5.9-7.9,7.2c-0.5,0.2-0.9,0.4-1.3,0.6c-3.8,0-7.5,0.1-11.3,0.1C152,180.9,156.2,166.2,155.9,155.1L155.9,155.1z
			 M169.2,211c3.9,0.9,8.3,2.1,11.7,4.1c2.7,1.6,7,4.7,7,8.2c0,4.2,0,8.3,0,12.5c-5-9.8-17.5-16.2-28.2-15.1
			C162.9,217.4,166.1,214.2,169.2,211z M188.2,183.4L188.2,183.4C188.2,183.4,188.2,183.5,188.2,183.4L188.2,183.4
			C188.2,183.5,188.2,183.4,188.2,183.4z M185.3,179.8c-0.1,0.2-0.1,0.4,0,0.7c-5.1-5.1-10.3-10.1-15.4-15.2
			c2.9,0.3,5.7-0.1,8.5-0.8c3.5-0.9,7.7-2.1,10.1-4.9c0,6.8-0.1,13.6-0.1,20.4C186.9,173.2,181.8,174.2,185.3,179.8z M188.4,156.8
			c0,1.7-0.1,2.3-1.6,3.2c-1.4,0.8-3,1.3-4.5,1.6c-4.6,1.2-9.4,1.1-14,2.2c-3.4-3.3-6.7-6.6-10.1-9.9c5.3,1.1,10.4,0.5,15.6-0.9
			c5-1.3,11.1-3,14.8-7c0,0.5,0,1,0,1.4C188.5,150.6,188.5,153.7,188.4,156.8z M109.9,188.5c4.1,0,8.2,0.1,12.2,0.1
			c4.1,0,9.4-0.9,13.1,0.9c5.1,2.4,9.7,6.1,13.2,10.5c2.3,2.8,3.9,6.3,5,9.7c0.9,2.6,3.4,8.3,1.2,10.5c-6.4,6.3-12.8,12.8-19.1,19.2
			c-2.1,2.2-4.2,4.3-6.4,6.5c0.5-7.7,0.1-15.5-1.5-23c-2.6-13-9-28.4-21.7-34.4C107.4,188.5,108.6,188.5,109.9,188.5z M60.3,186.9
			c1.7-0.7,3.3-1.4,4.9-2.3c14.7-7.7,23.9-24.2,29.4-39.3c5.4-15,7-30.9,6-46.7c5.4,5.6,10.9,11.1,16.3,16.6c0,0,0,0-0.1,0.1
			c1.5,1.5,3,3.1,4.6,4.6c1.8,1.8,3.5,3.6,5.3,5.4c0.9,1,2,1.5,1.8,2.9c-0.2,1.3-0.3,2.7-0.5,4c-1.7,11.7-5.7,23.4-12.6,33
			c-3.2,4.5-7.6,8.2-11.8,11.8c-4,3.4-8.4,6.1-13.1,8.3c-0.8,0.4-2,1-3,1.4C78.3,186.8,69.3,186.8,60.3,186.9z M100,276
			c0.9-11.9,0.3-23.9-2.2-35.5c-4-20.1-14-43.9-34.1-52.3c8,0.1,16.1,0.1,24.1,0.2c1,0.3,2,0.6,3,0.6c4.6,0.3,8.7,3.6,12.2,6.5
			c4.2,3.6,8.4,8,11.7,12.4c6.8,9.2,10.6,21,12.5,32.2c0.4,2.3,0.7,4.5,1,6.8C118.7,256.6,109.3,266.3,100,276z M187.9,318
			C187.9,318.1,187.9,318.2,187.9,318C187,315.9,187.7,317.5,187.9,318c-6.7-16.6-21.7-27.4-36.9-35.4c-14.7-7.7-32.2-10.4-48.4-5.8
			c9.5-9.1,18.9-18.2,28.3-27.4c1.1,0.4,2.2,0.7,3.2,1c5.4,1.6,10.8,3.3,16.3,4.9c5.6,1.6,11.2,2.8,16.5,5.3
			c9.5,4.6,18.2,11.9,21.2,22.4c0.1,0.3,0.2,0.6,0.2,0.9c0.1,12.2,0.2,24.3,0.5,36.5C188.5,319.6,188.2,318.8,187.9,318z
			 M275.9,276.2c-0.8-0.2-0.7-0.1-0.4-0.1c-16.5-3.4-32.4-0.9-47.3,7c-15.6,8.3-30.8,19.9-36.7,37.2c0.3-13.9,0.4-27.8,0.5-41.6
			c3.6-7.7,10.5-13.5,18.1-17.4c5-2.6,10.1-4,15.5-5.4c5.5-1.5,11-3.2,16.5-4.9c2.2-0.7,4.3-1.3,6.5-2.1c0.2-0.1,0.4-0.1,0.5-0.1
			c9.6,9.3,19.4,18.4,28.8,27.8c-0.6-0.2-1.2-0.3-1.8-0.5C276,276.3,276,276.3,275.9,276.2z M301.5,192.1c0,0-0.1,0.1-0.4,0.3
			c-0.3,0.2-0.3,0.3-0.3,0.3c-11.9,10.7-15.8,25.8-18.9,41.1c-2.6,13.9-3,28.3-1.7,42.3c-9.8-10.3-19.6-20.5-29.6-30.7
			c0.2-1.5,0.4-3.1,0.6-4.6c1.6-10.4,4-21.4,8.9-30.8c2.4-4.5,5.2-9.1,8.1-13.3c1.5-2.2,3.2-4.3,5.3-6c0.6-0.5,1.3-1,1.9-1.4
			c10.2-0.1,20.4-0.2,30.6-0.3C304.4,189.9,302.9,191,301.5,192.1z"/>
		<path d="M156.4,217.1C156.5,217.6,156.4,216.2,156.4,217.1L156.4,217.1z"/>
		<path d="M279.3,120.8C279.2,118,279.3,123.6,279.3,120.8L279.3,120.8z"/>
		<path d="M225,216.7C225,213,225.1,217.8,225,216.7L225,216.7z"/>
		<path d="M166.8,207.2C166.8,207.6,166.7,206.6,166.8,207.2L166.8,207.2z"/>
		<path d="M212.5,207C212.5,204.5,212.5,207.7,212.5,207L212.5,207z"/>
		<path d="M127.7,222.8C128.2,225.1,127.3,220.5,127.7,222.8L127.7,222.8z"/>
		<path d="M106,185.6C104.9,186.2,108.1,184.4,106,185.6L106,185.6z"/>
		<path d="M166.5,165.9C166.5,165.9,166.5,166.3,166.5,165.9L166.5,165.9z"/>
		<path d="M212.1,172.8C211.9,171.3,212.2,174.4,212.1,172.8L212.1,172.8z"/>
		<path d="M248.7,143C248.7,141.2,248.7,144.9,248.7,143L248.7,143z"/>
	</g>
</g>
</svg>
