<?xml version="1.0" encoding="utf-8"?>
<!-- Generator: Adobe Illustrator 18.0.0, SVG Export Plug-In . SVG Version: 6.00 Build 0)  -->
<!DOCTYPE svg PUBLIC "-//W3C//DTD SVG 1.1//EN" "http://www.w3.org/Graphics/SVG/1.1/DTD/svg11.dtd">
<svg version="1.1" id="Layer_1" xmlns="http://www.w3.org/2000/svg" xmlns:xlink="http://www.w3.org/1999/xlink" x="0px" y="0px"
	 viewBox="0 0 375 375" enable-background="new 0 0 375 375" xml:space="preserve">
<g>
	<path d="M303.1,7.5H180.4c-6.9,0-13.5,2.7-18.4,7.6L53.4,123.7c-4.9,4.9-7.6,11.5-7.6,18.4v199.3c0,14.4,11.7,26.1,26.1,26.1h231.3
		c14.4,0,26.1-11.7,26.1-26.1V33.6C329.2,19.2,317.5,7.5,303.1,7.5z M190.6,296.2c-24.2,0-43.9-19.7-43.9-43.9
		c0-24.2,43.9-114.1,43.9-114.1s43.9,89.9,43.9,114.1C234.5,276.5,214.8,296.2,190.6,296.2z M290.2,73.4h-95.7
		c-11.5,0-20.9-9.3-20.9-20.9c0-11.5,9.3-20.9,20.9-20.9h95.7c11.5,0,20.9,9.3,20.9,20.9C311.1,64,301.7,73.4,290.2,73.4z"/>
</g>
</svg>
