<?xml version="1.0" encoding="utf-8"?>
<!-- Generator: Adobe Illustrator 18.0.0, SVG Export Plug-In . SVG Version: 6.00 Build 0)  -->
<!DOCTYPE svg PUBLIC "-//W3C//DTD SVG 1.1//EN" "http://www.w3.org/Graphics/SVG/1.1/DTD/svg11.dtd">
<svg version="1.1" id="Layer_1" xmlns="http://www.w3.org/2000/svg" xmlns:xlink="http://www.w3.org/1999/xlink" x="0px" y="0px"
	 viewBox="0 0 375 375" enable-background="new 0 0 375 375" xml:space="preserve">
<g>
	<g id="_x3C_Group_x3E__304_">
		<g>
			<g>
				<g>
					<g>
						<polygon points="236.4,76 147.1,219.9 145.6,207.9 234.5,325.5 129.5,222 124.8,217.4 128.1,210 195.6,54.6 						"/>
					</g>
					<g>
						<rect x="155.8" y="257.3" transform="matrix(-0.7123 -0.7019 0.7019 -0.7123 102.4563 556.5861)" width="19" height="0"/>
						<polygon points="165.5,89.1 112,46.6 85,83.9 149.3,126.5 						"/>
						<polygon points="265.9,168.6 218.5,131 200.3,160.2 233.6,182.3 180.3,230.8 193.1,247.8 266.7,191.6 281.1,180.6 						"/>
						<polygon points="161,272.4 148.3,259.9 128.3,278.2 122.4,283.6 127.4,289 199.8,367.4 144,285.4 						"/>
					</g>
					<path d="M71.1,126.7c0,0-2.3,3.5-5.9,8.5c-3.5,5.1-8.5,11.8-13.3,18.5c-2.5,3.3-4.7,6.9-7.1,9.9c-2.5,2.9-5.1,5.5-7.5,7.5
						c-4.7,4.1-8.7,6.2-8.7,6.2l-0.6-0.5c0,0,1.3-4.3,4.6-9.6c1.6-2.7,3.6-5.7,6.1-8.7c2.5-2.9,5.7-5.7,8.5-8.7
						c5.8-5.9,11.5-11.9,15.9-16.3c4.4-4.4,7.4-7.3,7.4-7.3L71.1,126.7z"/>
					<path d="M76.8,189.5c0,0-0.5,3.8-1.5,9.4c-0.9,5.6-2.3,13.1-3.7,20.5c-0.7,3.7-1.1,7.5-2,11c-0.9,3.4-2.2,6.5-3.4,9.1
						c-2.4,5.2-5,8.4-5,8.4l-0.7-0.2c0,0-0.7-4.1-0.2-9.8c0.2-2.9,0.7-6.2,1.6-9.6c1-3.4,2.5-6.9,3.8-10.5c2.5-7.1,4.9-14.3,7-19.6
						c2-5.3,3.4-8.9,3.4-8.9L76.8,189.5z"/>
					<path d="M104,260.2c0,0-2.6,3-6.6,7.3c-3.9,4.4-9.4,10-14.8,15.8c-2.7,2.8-5.2,5.9-7.9,8.4c-2.7,2.5-5.5,4.5-8.1,6.1
						c-5,3.2-9.1,4.6-9.1,4.6l-0.5-0.6c0,0,1.7-3.9,5.4-8.6c1.8-2.4,4.1-5,6.8-7.4c2.8-2.4,6.1-4.6,9.1-7.1
						c6.2-4.8,12.3-9.7,17.1-13.2c4.7-3.6,7.9-5.9,7.9-5.9L104,260.2z"/>
					<path d="M257,250.3c0,0,11.7,6.2,23,13c2.8,1.7,5.9,3.1,8.4,4.8c2.5,1.8,4.6,3.8,6.3,5.6c3.5,3.6,5.1,6.9,5.1,6.9l-0.4,0.6
						c0,0-3.7-0.5-8.3-2.6c-2.3-1-4.9-2.3-7.4-4.1c-2.5-1.8-4.8-4.3-7.3-6.3c-10.2-8.4-19.9-17.4-19.9-17.4L257,250.3z"/>
					<path d="M301.8,209.4c0,0,11,1.7,21.8,4.2c2.7,0.6,5.5,0.8,8,1.6c2.5,0.8,4.6,1.9,6.4,3c3.6,2.2,5.7,4.7,5.7,4.7l-0.2,0.7
						c0,0-3.2,0.8-7.4,0.5c-2.1-0.1-4.5-0.5-7-1.3c-2.4-0.8-4.9-2.3-7.4-3.4c-10.2-4.3-20.1-9.3-20.1-9.3L301.8,209.4z"/>
					<path d="M288.1,130.6c0,0,3.6-1.2,9-2.8c5.4-1.7,12.6-3.7,19.8-5.7c3.6-1,7.2-2.3,10.6-3.1c3.4-0.7,6.7-0.9,9.6-1
						c5.7-0.2,9.7,0.8,9.7,0.8l0.2,0.8c0,0-3.3,2.4-8.6,4.5c-2.6,1.1-5.8,2.1-9.2,2.8c-3.5,0.6-7.2,0.8-11,1.3
						c-7.5,0.9-14.9,1.9-20.5,2.4c-5.6,0.6-9.4,0.9-9.4,0.9L288.1,130.6z"/>
					<path d="M261,72.7c0,0,7.8-3.6,15.9-6.5c2-0.7,3.9-1.8,5.8-2.3c1.9-0.4,3.8-0.5,5.5-0.3c3.3,0.2,5.8,1.4,5.8,1.4l0.2,0.8
						c0,0-1.7,2.2-4.5,3.8c-1.4,0.9-3.1,1.7-5.1,2.1c-1.9,0.4-4.1,0.2-6.3,0.5c-8.5,1-17.1,1.2-17.1,1.2L261,72.7z"/>
					<path d="M172.1,34.6c0,0-3-6.4-5.2-13c-0.5-1.6-1.5-3.2-1.8-4.8c-0.3-1.6-0.2-3.1,0.1-4.5c0.5-2.7,1.9-4.7,1.9-4.7l0.8-0.1
						c0,0,2,1.4,3.4,3.7c0.8,1.2,1.4,2.6,1.7,4.1c0.2,1.6-0.1,3.4,0,5.1c0.3,6.9-0.1,14-0.1,14L172.1,34.6z"/>
					<path d="M129.5,325.6c0,0-1,10.9-2.8,21.6c-0.5,2.7-0.5,5.5-1.1,7.9c-0.6,2.5-1.6,4.7-2.6,6.5c-1.9,3.7-4.3,5.9-4.3,5.9
						l-0.7-0.2c0,0-1-3.1-0.9-7.2c0-2.1,0.2-4.5,0.8-6.9c0.7-2.4,2-4.9,2.9-7.5c3.6-10.2,8-20.3,8-20.3L129.5,325.6z"/>
				</g>
			</g>
		</g>
	</g>
</g>
</svg>
