<?xml version="1.0" encoding="utf-8"?>
<!-- Generator: Adobe Illustrator 18.0.0, SVG Export Plug-In . SVG Version: 6.00 Build 0)  -->
<!DOCTYPE svg PUBLIC "-//W3C//DTD SVG 1.1//EN" "http://www.w3.org/Graphics/SVG/1.1/DTD/svg11.dtd">
<svg version="1.1" id="Layer_1" xmlns="http://www.w3.org/2000/svg" xmlns:xlink="http://www.w3.org/1999/xlink" x="0px" y="0px"
	 viewBox="0 0 375 375" enable-background="new 0 0 375 375" xml:space="preserve">
<g>
	<g>
		<path d="M156.3,189.4c-0.4,0-0.9-0.1-1.3-0.1c-16.4,0-29.8,13.4-29.8,29.8s13.4,29.8,29.8,29.8c16.4,0,29.8-13.4,29.8-29.8
			c0-0.4,0-0.9-0.1-1.3c-5.2,5.2-10.3,10.3-15.5,15.5c-6.5,6.5-14.2,7.1-20.6,4.4c-5.7-2-10.2-6.5-12.2-12.2
			c-2.7-6.5-2-14.2,4.4-20.6C146,199.8,151.1,194.6,156.3,189.4z"/>
		<path d="M186.6,159.1c-9.5-5-20.2-7.9-31.7-7.9c-37.4,0-67.9,30.5-67.9,67.9c0,37.4,30.5,67.9,67.9,67.9
			c37.4,0,67.9-30.5,67.9-67.9c0-11.4-2.9-22.2-7.9-31.7c-2.5,2.5-5,5-7.5,7.5c3.4,7.4,5.3,15.5,5.3,24.2c0,31.9-26,57.9-57.9,57.9
			c-31.9,0-57.9-26-57.9-57.9s26-57.9,57.9-57.9c8.6,0,16.8,1.9,24.2,5.3C181.7,164.1,184.1,161.6,186.6,159.1z"/>
		<path d="M216.8,129c-17.6-12.1-38.9-19.2-61.8-19.2c-60.3,0-109.3,49-109.3,109.3c0,60.3,49.1,109.3,109.3,109.3
			c60.3,0,109.3-49.1,109.3-109.3c0-22.9-7.1-44.2-19.2-61.8c-2.4,2.4-4.8,4.8-7.2,7.2c10.3,15.7,16.4,34.4,16.4,54.5
			c0,54.8-44.5,99.3-99.3,99.3c-54.8,0-99.3-44.5-99.3-99.3c0-54.8,44.5-99.3,99.3-99.3c20.1,0,38.9,6,54.5,16.4
			C211.9,133.8,214.3,131.4,216.8,129z"/>
		<path d="M265.3,137.2c17,22.9,27.1,51.2,27.1,81.9c0,75.8-61.7,137.4-137.4,137.4c-75.8,0-137.4-61.7-137.4-137.4
			c0-75.8,61.7-137.4,137.4-137.4c30.7,0,59,10.1,81.9,27.1c2.4-2.4,4.8-4.8,7.2-7.2c-24.8-18.8-55.6-30-89.1-30
			C73.7,71.7,7.5,137.8,7.5,219.1c0,81.3,66.2,147.5,147.5,147.5c81.3,0,147.5-66.2,147.5-147.5c0-33.4-11.2-64.3-30-89.1
			C270.1,132.5,267.7,134.8,265.3,137.2z"/>
		<path d="M367.5,47V37h-30.4V8.4h-10v31.6l-12.3,12.3V30.7h-10v31.6l-8.9,8.9V49.6h-10v31.6L151.4,215.6l7.1,7.1L292.1,89.2h33.3
			v-10h-23.3l8.9-8.9h33.3v-10H321L334.2,47H367.5z M333.8,43.8l-1.7-1.7h1.7V43.8z"/>
	</g>
</g>
</svg>
