<?xml version="1.0" encoding="utf-8"?>
<!-- Generator: Adobe Illustrator 18.0.0, SVG Export Plug-In . SVG Version: 6.00 Build 0)  -->
<!DOCTYPE svg PUBLIC "-//W3C//DTD SVG 1.1//EN" "http://www.w3.org/Graphics/SVG/1.1/DTD/svg11.dtd">
<svg version="1.1" id="Layer_1" xmlns="http://www.w3.org/2000/svg" xmlns:xlink="http://www.w3.org/1999/xlink" x="0px" y="0px"
	 viewBox="0 0 375 375" enable-background="new 0 0 375 375" xml:space="preserve">
<g>
	<g>
		<path d="M161.2,95.7c-0.6,0.6-1.3,1.1-1.9,1.7c-22.6,22.6-14.4,67.3,18.2,100c32.6,32.6,77.4,40.8,100,18.2
			c0.6-0.6,1.2-1.2,1.7-1.9l0.1,0.1l29.7-29.7L191,66L161.2,95.7z"/>
		<path d="M271.7,117.8c15.3-15.3,30.6-30.6,45.8-45.8c9.3-9.3-5.1-23.8-14.5-14.5c-15.3,15.3-30.6,30.6-45.8,45.8
			C247.9,112.6,262.4,127.1,271.7,117.8L271.7,117.8z"/>
		<path d="M242.9,82.1c8.9-19.7,17.7-39.4,26.6-59.1c5.4-11.9-12.4-22.2-17.8-10.1c-8.9,19.7-17.7,39.4-26.6,59.1
			C219.7,83.9,237.4,94.2,242.9,82.1L242.9,82.1z"/>
		<path d="M303,149.9c19.7-8.9,39.4-17.7,59.1-26.6c12.1-5.4,1.8-23.2-10.1-17.8c-19.7,8.9-39.4,17.7-59.1,26.6
			C280.8,137.6,291.1,155.3,303,149.9L303,149.9z"/>
		<path d="M15.3,294c-10.4,10.4-10.4,27.2,0,37.5l28.2,28.2c10.4,10.4,27.2,10.4,37.5,0l122.2-122.2l-65.7-65.7L15.3,294z
			 M138.6,261.3L86,313.8L61.2,289l52.5-52.5L138.6,261.3z"/>
		<rect x="98.7" y="253.4" transform="matrix(0.7071 -0.7071 0.7071 0.7071 -153.2307 156.2135)" width="26.5" height="19.3"/>
	</g>
</g>
</svg>
