<?xml version="1.0" encoding="utf-8"?>
<!-- Generator: Adobe Illustrator 18.0.0, SVG Export Plug-In . SVG Version: 6.00 Build 0)  -->
<!DOCTYPE svg PUBLIC "-//W3C//DTD SVG 1.1//EN" "http://www.w3.org/Graphics/SVG/1.1/DTD/svg11.dtd">
<svg version="1.1" id="Layer_1" xmlns="http://www.w3.org/2000/svg" xmlns:xlink="http://www.w3.org/1999/xlink" x="0px" y="0px"
	 viewBox="0 0 375 375" enable-background="new 0 0 375 375" xml:space="preserve">
<g>
	<path d="M311.8,203c-8.6-5.1-17.1-8.3-25-10.2c7.9-1.9,16.4-5.1,25-10.2c39.9-23.6,55.7-70.8,55.7-70.8s-48.9-9-88.9,14.6
		c-14.1,8.3-23.6,18.7-29.9,28.6c-11.3-8.7-25.3-17.2-42.1-23l15-23.1c-9.9-5.7-26.5-9.4-45.3-9.4c-9.6,0-18.7,1-26.6,2.7
		l-15.6,23.9C62.3,137.5,7.5,192.8,7.5,192.8s68,68.7,151.8,68.7c39.1,0,68.8-14.9,89.4-30.9c6.3,9.9,15.8,20.2,29.9,28.6
		c39.9,23.6,88.9,14.6,88.9,14.6S351.7,226.6,311.8,203z M85.5,186.7c-7.3,0-13.2-5.9-13.2-13.2c0-7.3,5.9-13.2,13.2-13.2
		c7.3,0,13.2,5.9,13.2,13.2C98.6,180.8,92.7,186.7,85.5,186.7z M127.9,204.4c0.1,3.5,0.1,6.9,0.4,10.3c0.3,3.3,0.5,6.5,0.9,9.6
		c0.4,3,0.8,5.9,1.2,8.6c0.5,2.6,0.9,5.1,1.3,7.2c0.4,2.2,0.8,4,1.2,5.6c0.7,3.1,1.2,4.9,1.2,4.9s-0.2-0.4-0.7-1.1
		c-0.4-0.7-1.1-1.8-1.8-3.3c-0.7-1.4-1.6-3.2-2.4-5.3c-0.9-2.1-1.8-4.4-2.6-7.1c-0.9-2.6-1.7-5.5-2.4-8.6c-0.7-3.1-1.4-6.4-1.8-9.9
		c-0.5-3.4-0.9-7-1-10.7c-0.2-3.6-0.2-7.4,0-11c0.2-3.8,0.5-7.5,1-11.1c0.5-3.6,1.2-7.2,2-10.6c0.7-3.4,1.7-6.6,2.7-9.7
		c1-3,2.1-5.8,3.2-8.4c1.1-2.5,2.3-4.8,3.4-6.8c1.1-2,2.1-3.6,3-5c0.8-1.4,1.6-2.4,2.1-3.1c0.5-0.7,0.8-1.1,0.8-1.1
		s-0.6,1.7-1.7,4.7c-0.6,1.5-1.1,3.3-1.8,5.4c-0.6,2.1-1.3,4.5-2.1,7.1c-0.7,2.6-1.4,5.4-2,8.4c-0.6,3-1.2,6.2-1.7,9.5
		c-0.6,3.3-0.9,6.7-1.3,10.2c-0.3,3.5-0.6,7-0.7,10.5C127.9,197.3,127.8,200.9,127.9,204.4z M149.6,156.9c-0.5,1.7-1,3.6-1.6,5.8
		c-1,4.2-2.1,9.2-2.8,14.5c-0.4,2.7-0.7,5.4-1,8.2c-0.3,2.8-0.5,5.7-0.6,8.5c-0.3,5.8-0.2,11.5,0.1,16.9c0.2,2.7,0.3,5.3,0.6,7.8
		c0.3,2.5,0.6,4.8,0.9,7c0.3,2.2,0.6,4.1,1,5.9c0.3,1.8,0.6,3.3,0.9,4.6c0.5,2.6,0.8,4,0.8,4s-0.2-0.3-0.6-0.9
		c-0.4-0.6-0.9-1.5-1.5-2.6c-0.6-1.2-1.4-2.6-2.1-4.3c-0.8-1.7-1.5-3.6-2.3-5.7c-1.5-4.3-2.8-9.4-3.6-15c-0.4-2.8-0.7-5.7-0.9-8.7
		c-0.2-3-0.2-6,0-9c0.3-6.1,1.1-12.1,2.5-17.7c0.6-2.8,1.5-5.4,2.3-7.9c0.8-2.5,1.8-4.7,2.7-6.8c0.9-2.1,1.9-3.9,2.8-5.5
		c0.9-1.6,1.8-2.9,2.6-4c0.7-1.1,1.4-1.9,1.8-2.4c0.4-0.5,0.7-0.8,0.7-0.8s-0.5,1.4-1.3,3.9C150.6,153.7,150.1,155.2,149.6,156.9z
		 M162.5,165.7c-0.4,1.7-1,4.2-1.6,7.1c-0.6,2.9-1.1,6.3-1.6,9.9c-0.2,1.8-0.4,3.7-0.6,5.6c-0.1,1.9-0.3,3.9-0.4,5.7
		c-0.2,3.9-0.2,7.8-0.1,11.4c0.1,3.7,0.4,7.1,0.6,10c0.3,3,0.6,5.5,0.9,7.2c0.2,1.8,0.4,2.8,0.4,2.8s-0.7-0.8-1.6-2.4
		c-1-1.6-2.2-3.8-3.4-6.8c-1.2-2.9-2.2-6.5-2.8-10.4c-0.3-1.9-0.6-4-0.7-6c-0.1-2.1-0.1-4.2-0.1-6.2c0.2-4.3,0.8-8.4,1.8-12.2
		c0.5-1.9,1.1-3.7,1.7-5.4c0.6-1.7,1.4-3.2,2.1-4.6c0.7-1.4,1.5-2.6,2.2-3.7c0.7-1.1,1.4-2,1.9-2.7c1.1-1.4,1.9-2.2,1.9-2.2
		S162.9,163.9,162.5,165.7z"/>
</g>
</svg>
