<?xml version="1.0" encoding="utf-8"?>
<!-- Generator: Adobe Illustrator 18.0.0, SVG Export Plug-In . SVG Version: 6.00 Build 0)  -->
<!DOCTYPE svg PUBLIC "-//W3C//DTD SVG 1.1//EN" "http://www.w3.org/Graphics/SVG/1.1/DTD/svg11.dtd">
<svg version="1.1" id="Layer_1" xmlns="http://www.w3.org/2000/svg" xmlns:xlink="http://www.w3.org/1999/xlink" x="0px" y="0px"
	 viewBox="0 0 375 375" enable-background="new 0 0 375 375" xml:space="preserve">
<g>
	<g>
		<path d="M180.9,194.8c0,0,0-0.8,0-2.3c0-0.7,0-1.7,0-2.7c0-0.5,0-1.1,0-1.7c0-0.6,0-1.2-0.1-1.8c-0.1-1.3-0.1-2.7-0.2-4.3
			c-0.1-1.6-0.3-3.3-0.4-5.1c-0.4-3.7-0.9-7.8-1.8-12.3c-0.4-2.2-1-4.5-1.5-6.9c-0.6-2.4-1.3-4.8-2.1-7.3c-0.9-2.5-1.6-5-2.7-7.6
			c-0.5-1.3-1-2.6-1.5-3.9c-0.6-1.3-1.2-2.6-1.7-3.9c-2.5-5.2-5.2-10.4-8.5-15.5c-3.3-5-6.9-10.1-11-14.7c-4.1-4.6-8.4-9-13.1-13
			c-4.7-3.9-9.5-7.5-14.4-10.6c-5-3.1-9.9-5.8-14.8-7.9c-2.4-1.2-4.9-2-7.2-3c-2.4-0.9-4.7-1.6-6.9-2.4c-2.3-0.6-4.4-1.3-6.5-1.8
			c-2.1-0.4-4.1-0.9-6-1.3c-1.9-0.3-3.7-0.6-5.3-0.9c-1.6-0.2-3.2-0.4-4.5-0.5c-2.7-0.4-4.9-0.4-6.4-0.5c-1.5-0.1-2.3-0.1-2.3-0.1
			s0.8,0,2.3,0c1.5,0,3.7-0.1,6.4,0.1c1.4,0.1,2.9,0.1,4.6,0.2c1.7,0.2,3.5,0.3,5.4,0.5c1.9,0.2,4,0.6,6.1,0.9
			c2.1,0.4,4.4,0.9,6.7,1.4c2.3,0.6,4.7,1.2,7.2,1.9c2.5,0.8,5,1.5,7.6,2.6c5.2,1.9,10.5,4.3,15.8,7.1c5.3,2.8,10.6,6.3,15.7,10
			c5.1,3.8,10,8.1,14.6,12.6c4.6,4.6,8.8,9.6,12.6,14.7c3.9,5.1,7.2,10.5,10.2,15.9c0.7,1.4,1.4,2.7,2.1,4c0.7,1.3,1.3,2.7,1.9,4
			c1.3,2.7,2.3,5.4,3.4,8c1,2.6,1.9,5.2,2.8,7.7c0.7,2.5,1.6,5,2.2,7.4c1.3,4.8,2.2,9.2,2.8,13.2c0.3,2,0.6,3.9,0.8,5.6
			c0.2,1.8,0.3,3.4,0.5,4.9c0.1,0.7,0.1,1.4,0.2,2.1c0,0.6,0.1,1.2,0.1,1.7c0.1,1.1,0.1,2,0.2,2.7c0.1,1.5,0.1,2.3,0.1,2.3
			L180.9,194.8z"/>
		<path d="M181.2,196.9c0,0-0.2-0.8-0.7-2.2c-0.2-0.7-0.5-1.6-0.8-2.6c-0.2-0.5-0.3-1.1-0.5-1.6c-0.2-0.5-0.4-1.1-0.6-1.7
			c-0.4-1.2-0.9-2.5-1.5-4c-0.6-1.5-1.3-3-2-4.7c-1.5-3.4-3.3-7.1-5.6-11.1c-1.1-2-2.4-4-3.6-6.1c-1.3-2.1-2.8-4.2-4.3-6.3
			c-1.6-2.1-3.1-4.3-4.9-6.4c-0.9-1-1.7-2.2-2.7-3.2c-0.9-1-1.9-2.1-2.9-3.1c-4-4.1-8.2-8.3-13-12c-4.7-3.7-9.7-7.4-15.1-10.5
			c-5.3-3.1-10.8-5.9-16.5-8.2c-5.7-2.2-11.4-4.2-17-5.5c-5.7-1.3-11.2-2.4-16.6-2.9c-2.7-0.3-5.3-0.4-7.8-0.6
			c-2.5-0.1-5-0.1-7.3-0.1c-2.3,0.1-4.6,0.2-6.7,0.4c-2.1,0.2-4.2,0.4-6.1,0.6c-1.9,0.3-3.7,0.6-5.3,0.8c-1.6,0.3-3.1,0.6-4.5,0.9
			c-2.7,0.5-4.8,1.2-6.2,1.5c-1.4,0.4-2.2,0.6-2.2,0.6s0.7-0.3,2.2-0.7c1.4-0.4,3.4-1.3,6.1-1.9c1.3-0.4,2.8-0.8,4.4-1.2
			c1.6-0.4,3.4-0.8,5.3-1.2c1.9-0.4,3.9-0.7,6.1-1.1c2.1-0.3,4.4-0.5,6.8-0.8c2.4-0.2,4.9-0.4,7.5-0.4c2.6,0,5.3-0.1,8,0
			c5.5,0.1,11.3,0.8,17.2,1.8c5.9,1,12,2.6,18,4.6c6,2,12,4.5,17.8,7.4c5.8,2.9,11.3,6.3,16.6,10c5.3,3.6,10.1,7.7,14.6,11.9
			c1.1,1.1,2.2,2.1,3.3,3.2c1.1,1,2.1,2.2,3.1,3.2c2.1,2.1,3.9,4.4,5.8,6.5c1.8,2.2,3.5,4.3,5.1,6.5c1.5,2.2,3.1,4.2,4.4,6.3
			c2.7,4.1,5,8.1,6.8,11.6c0.9,1.8,1.8,3.5,2.6,5c0.7,1.6,1.4,3.1,2,4.5c0.3,0.7,0.6,1.3,0.9,1.9c0.2,0.6,0.4,1.1,0.6,1.6
			c0.4,1,0.7,1.9,1,2.5c0.5,1.4,0.8,2.1,0.8,2.1L181.2,196.9z"/>
		<path d="M182.3,198.7c0,0-0.5-0.6-1.3-1.8c-0.4-0.6-1-1.3-1.6-2.2c-0.3-0.4-0.7-0.9-1-1.4c-0.4-0.4-0.7-0.9-1.1-1.4
			c-0.8-1-1.7-2.1-2.7-3.3c-1.1-1.2-2.2-2.5-3.4-3.9c-2.5-2.7-5.4-5.7-8.8-8.8c-1.6-1.6-3.5-3-5.4-4.6c-1.9-1.5-3.9-3.1-6-4.6
			c-2.2-1.5-4.3-3.1-6.7-4.5c-1.2-0.7-2.3-1.5-3.6-2.2c-1.2-0.7-2.5-1.4-3.7-2.1c-5.1-2.7-10.4-5.3-16.1-7.3
			c-5.7-2.1-11.5-3.9-17.6-5.2c-6-1.3-12.1-2.2-18.2-2.6c-6.1-0.4-12.1-0.4-17.9,0.1c-5.8,0.5-11.4,1.3-16.6,2.5
			c-2.6,0.5-5.1,1.3-7.6,1.9c-2.4,0.7-4.7,1.5-7,2.2c-2.2,0.9-4.3,1.6-6.3,2.5c-2,0.9-3.8,1.7-5.6,2.5c-1.7,0.9-3.3,1.7-4.8,2.4
			c-1.5,0.8-2.8,1.6-4,2.3c-2.4,1.3-4.2,2.6-5.4,3.4c-1.2,0.8-1.9,1.2-1.9,1.2s0.6-0.5,1.8-1.4c1.2-0.9,2.9-2.3,5.2-3.8
			c1.2-0.8,2.4-1.6,3.8-2.6c1.4-0.9,3-1.8,4.6-2.8c1.7-1,3.5-1.9,5.4-2.9c1.9-1,4-1.9,6.2-2.9c2.2-0.9,4.5-1.9,6.9-2.8
			c2.4-0.8,5-1.8,7.6-2.5c5.3-1.6,11-2.8,16.9-3.7c6-0.9,12.2-1.3,18.6-1.3c6.4,0,12.8,0.5,19.2,1.5c6.4,0.9,12.8,2.4,18.9,4.3
			c6.2,1.8,12,4.2,17.6,6.7c1.4,0.7,2.8,1.3,4.1,2c1.4,0.7,2.7,1.4,4,2.1c2.6,1.3,5.1,2.9,7.5,4.3c2.4,1.5,4.7,3,6.8,4.6
			c2.1,1.6,4.3,3,6.1,4.6c3.9,3.1,7.2,6.1,10.1,8.9c1.4,1.4,2.8,2.7,4,4c1.2,1.3,2.3,2.5,3.3,3.6c0.5,0.5,1,1.1,1.4,1.6
			c0.4,0.5,0.8,0.9,1.1,1.3c0.7,0.8,1.3,1.5,1.7,2.1c0.9,1.1,1.5,1.7,1.5,1.7L182.3,198.7z"/>
		<path d="M183.8,200.2c0,0-0.6-0.5-1.8-1.3c-0.6-0.4-1.3-1-2.2-1.6c-0.4-0.3-0.9-0.6-1.4-1c-0.5-0.3-1-0.6-1.5-1
			c-1.1-0.7-2.3-1.5-3.6-2.3c-1.4-0.8-2.9-1.7-4.5-2.6c-3.2-1.8-6.9-3.7-11.1-5.6c-2.1-1-4.3-1.8-6.6-2.7c-2.3-0.9-4.7-1.7-7.2-2.5
			c-2.5-0.7-5.1-1.6-7.8-2.2c-1.3-0.3-2.7-0.7-4.1-1c-1.4-0.3-2.8-0.5-4.2-0.8c-5.6-0.9-11.5-1.7-17.6-1.9c-6-0.2-12.2-0.1-18.3,0.6
			C86,175,79.8,176,74,177.6c-5.9,1.6-11.6,3.4-17,5.7c-5.3,2.3-10.4,4.8-15,7.6c-2.3,1.3-4.5,2.8-6.6,4.2c-2.1,1.4-4,2.9-5.9,4.3
			c-1.8,1.5-3.6,2.9-5.2,4.3c-1.6,1.5-3.1,2.8-4.5,4.1c-1.3,1.4-2.6,2.6-3.8,3.8c-1.1,1.2-2.1,2.4-3,3.4c-1.9,2-3.1,3.8-4.1,4.9
			c-0.9,1.2-1.4,1.8-1.4,1.8s0.5-0.7,1.3-1.9c0.9-1.2,2-3.1,3.8-5.2c0.9-1.1,1.8-2.3,2.8-3.6c1.1-1.3,2.3-2.6,3.5-4.1
			c1.3-1.4,2.8-2.9,4.2-4.5c1.5-1.5,3.2-3.1,5-4.7c1.8-1.5,3.7-3.2,5.7-4.8c2.1-1.6,4.1-3.2,6.5-4.7c4.5-3.2,9.5-6.1,14.9-8.8
			c5.4-2.7,11.2-5,17.2-7.1c6-2,12.3-3.5,18.7-4.7c6.4-1.2,12.9-1.7,19.3-1.9c6.4-0.2,12.7,0.2,18.8,0.8c1.5,0.2,3,0.4,4.5,0.6
			c1.5,0.2,3,0.5,4.4,0.7c2.9,0.5,5.7,1.2,8.5,1.8c2.7,0.7,5.4,1.4,7.9,2.2c2.5,0.9,5,1.6,7.3,2.5c4.6,1.7,8.8,3.5,12.4,5.2
			c1.8,0.9,3.5,1.7,5.1,2.5c1.6,0.9,3,1.7,4.3,2.4c0.6,0.4,1.3,0.7,1.8,1c0.5,0.3,1,0.6,1.5,0.9c0.9,0.6,1.7,1,2.3,1.4
			c1.3,0.8,1.9,1.2,1.9,1.2L183.8,200.2z"/>
		<path d="M185.7,201c0,0-0.8-0.2-2.2-0.7c-0.7-0.2-1.6-0.5-2.6-0.8c-0.5-0.2-1.1-0.3-1.7-0.5c-0.6-0.1-1.1-0.3-1.8-0.5
			c-1.2-0.3-2.6-0.7-4.1-1.1c-1.6-0.3-3.2-0.7-5-1.1c-3.6-0.7-7.7-1.4-12.3-1.8c-2.3-0.3-4.6-0.3-7.1-0.5c-2.5-0.1-5-0.1-7.6-0.1
			c-2.6,0.1-5.3,0.1-8,0.4c-1.4,0.1-2.8,0.2-4.2,0.4c-1.4,0.2-2.8,0.4-4.2,0.5c-5.7,0.9-11.5,2-17.3,3.7c-5.8,1.7-11.6,3.7-17.2,6.3
			c-5.6,2.6-11.1,5.5-16.2,8.8c-5.1,3.3-10,6.9-14.3,10.8c-4.4,3.9-8.4,7.8-11.9,11.9c-1.8,2-3.4,4.1-4.9,6.1c-1.5,2-2.9,4-4.3,6
			c-1.2,2-2.5,3.9-3.6,5.7c-1,1.9-2.1,3.6-3,5.3c-0.8,1.7-1.6,3.3-2.4,4.8c-0.7,1.5-1.3,2.9-1.8,4.2c-1.1,2.5-1.8,4.6-2.3,6
			c-0.5,1.4-0.8,2.1-0.8,2.1s0.2-0.8,0.6-2.2c0.4-1.4,0.9-3.5,1.9-6.1c0.5-1.3,1-2.8,1.5-4.3c0.6-1.5,1.3-3.2,2.1-5
			c0.8-1.8,1.7-3.6,2.6-5.6c1-1.9,2.1-3.9,3.2-6c1.2-2,2.5-4.2,3.9-6.3c1.5-2.1,2.9-4.4,4.6-6.5c3.3-4.4,7.2-8.8,11.4-13.1
			c4.2-4.3,9-8.3,14.1-12.1c5.1-3.8,10.6-7.2,16.3-10.3c5.7-3.1,11.7-5.6,17.7-7.9c6-2.2,12.1-3.8,18.1-5.2c1.5-0.3,3-0.6,4.5-0.9
			c1.5-0.3,3-0.5,4.4-0.7c2.9-0.5,5.8-0.7,8.6-1c2.8-0.2,5.6-0.3,8.2-0.4c2.7,0,5.2-0.1,7.7,0.1c4.9,0.2,9.5,0.6,13.4,1.1
			c2,0.3,3.9,0.6,5.6,0.8c1.7,0.3,3.4,0.6,4.8,0.9c0.7,0.1,1.4,0.3,2.1,0.4c0.6,0.1,1.2,0.3,1.7,0.4c1,0.2,1.9,0.5,2.7,0.6
			c1.4,0.3,2.2,0.5,2.2,0.5L185.7,201z"/>
		<path d="M180.9,194.5c0,0,0-0.8,0.1-2.3c0-0.7,0.1-1.7,0.2-2.7c0-0.5,0.1-1.1,0.1-1.7c0.1-0.7,0.1-1.4,0.2-2.1
			c0.2-1.5,0.3-3.1,0.5-4.9c0.3-1.7,0.5-3.6,0.8-5.6c0.7-4,1.6-8.4,2.8-13.2c0.6-2.4,1.4-4.8,2.2-7.4c0.8-2.5,1.8-5.1,2.8-7.7
			c1.1-2.6,2.1-5.3,3.4-8c0.6-1.3,1.2-2.7,1.9-4c0.7-1.3,1.4-2.7,2.1-4c3-5.3,6.3-10.8,10.2-15.9c3.9-5.1,8-10.1,12.6-14.7
			c4.6-4.6,9.4-8.9,14.6-12.6c5.1-3.8,10.4-7.2,15.7-10c5.3-2.8,10.6-5.3,15.8-7.1c2.6-1,5.1-1.8,7.6-2.6c2.5-0.7,4.9-1.3,7.2-1.9
			c2.3-0.5,4.6-1,6.7-1.4c2.2-0.3,4.2-0.7,6.1-0.9c1.9-0.2,3.7-0.4,5.4-0.5c1.7-0.1,3.2-0.2,4.6-0.2c2.8-0.2,4.9,0,6.4-0.1
			c1.5,0,2.3,0,2.3,0s-0.8,0-2.3,0.1c-1.5,0.1-3.7,0.1-6.4,0.5c-1.4,0.2-2.9,0.3-4.5,0.5c-1.6,0.3-3.4,0.6-5.3,0.9
			c-1.9,0.4-3.9,0.8-6,1.3c-2.1,0.5-4.2,1.2-6.5,1.8c-2.2,0.7-4.6,1.5-6.9,2.4c-2.4,0.9-4.8,1.8-7.2,3c-4.9,2.1-9.9,4.9-14.8,7.9
			c-5,3.1-9.8,6.7-14.4,10.6c-4.7,3.9-9,8.3-13.1,13c-4.1,4.6-7.7,9.6-11,14.7c-3.3,5-6.1,10.3-8.5,15.5c-0.6,1.3-1.2,2.6-1.7,3.9
			c-0.6,1.3-1,2.6-1.6,3.9c-1.1,2.5-1.8,5.1-2.7,7.6c-0.8,2.5-1.5,4.9-2.1,7.3c-0.5,2.4-1.2,4.7-1.5,6.9c-0.9,4.5-1.4,8.6-1.8,12.3
			c-0.2,1.8-0.3,3.5-0.4,5.1c-0.1,1.6-0.1,3-0.2,4.3c0,0.6,0,1.3-0.1,1.8c0,0.6,0,1.2,0,1.7c0,1.1,0,2,0,2.7c0,1.5,0,2.3,0,2.3
			L180.9,194.5z"/>
		<path d="M181.2,192.4c0,0,0.3-0.7,0.8-2.1c0.3-0.7,0.6-1.5,1-2.5c0.2-0.5,0.4-1,0.6-1.6c0.3-0.6,0.6-1.2,0.9-1.9
			c0.6-1.3,1.3-2.8,2-4.5c0.8-1.6,1.6-3.2,2.6-5c1.9-3.6,4.1-7.5,6.8-11.6c1.3-2.1,2.9-4.1,4.4-6.3c1.6-2.1,3.3-4.3,5.1-6.5
			c1.9-2.1,3.7-4.4,5.8-6.5c1-1.1,2-2.2,3.1-3.2c1.1-1,2.2-2.1,3.3-3.2c4.5-4.1,9.3-8.2,14.6-11.9c5.3-3.6,10.8-7.1,16.6-10
			c5.8-2.9,11.8-5.5,17.8-7.4c6-2,12.1-3.6,18-4.6c5.9-1,11.7-1.7,17.2-1.8c2.7-0.2,5.4-0.1,8,0c2.6,0.1,5.1,0.3,7.5,0.4
			c2.4,0.3,4.7,0.5,6.8,0.8c2.1,0.4,4.2,0.7,6.1,1.1c1.9,0.4,3.7,0.8,5.3,1.2c1.6,0.4,3.1,0.9,4.4,1.2c2.7,0.7,4.7,1.5,6.1,1.9
			c1.4,0.5,2.2,0.7,2.2,0.7s-0.8-0.2-2.2-0.6c-1.4-0.3-3.5-1-6.2-1.5c-1.4-0.3-2.8-0.6-4.5-0.9c-1.6-0.3-3.4-0.5-5.3-0.8
			c-1.9-0.3-3.9-0.4-6.1-0.6c-2.1-0.2-4.4-0.2-6.7-0.4c-2.3,0-4.8,0-7.3,0.1c-2.5,0.2-5.1,0.2-7.8,0.6c-5.3,0.5-10.9,1.5-16.6,2.9
			c-5.7,1.3-11.4,3.3-17,5.5c-5.7,2.3-11.2,5.1-16.5,8.2c-5.3,3.1-10.3,6.7-15.1,10.5c-4.7,3.7-9,7.9-13,12c-1,1.1-1.9,2.1-2.9,3.1
			c-0.9,1-1.8,2.1-2.7,3.2c-1.8,2.1-3.4,4.3-4.9,6.4c-1.5,2.1-2.9,4.2-4.3,6.3c-1.3,2.1-2.6,4.1-3.6,6.1c-2.2,4-4.1,7.7-5.6,11.1
			c-0.7,1.7-1.4,3.3-2,4.7c-0.5,1.5-1,2.8-1.5,4c-0.2,0.6-0.4,1.2-0.6,1.7c-0.2,0.6-0.4,1.1-0.5,1.6c-0.3,1-0.6,1.9-0.8,2.6
			c-0.5,1.4-0.7,2.2-0.7,2.2L181.2,192.4z"/>
		<path d="M182.3,190.5c0,0,0.5-0.6,1.5-1.7c0.5-0.6,1.1-1.3,1.8-2.1c0.3-0.4,0.7-0.9,1.1-1.3c0.4-0.5,0.9-1,1.4-1.6
			c1-1.1,2.1-2.3,3.3-3.6c1.2-1.2,2.6-2.6,4-4c2.9-2.8,6.3-5.8,10.1-8.9c1.9-1.6,4-3,6.1-4.6c2.2-1.5,4.5-3,6.8-4.6
			c2.4-1.4,4.9-3,7.5-4.3c1.3-0.7,2.6-1.4,4-2.1c1.4-0.6,2.7-1.3,4.1-2c5.6-2.5,11.5-4.9,17.6-6.7c6.1-1.8,12.5-3.4,18.9-4.3
			c6.4-0.9,12.9-1.5,19.2-1.5c6.4,0,12.6,0.4,18.6,1.3c6,0.9,11.7,2.1,16.9,3.7c2.7,0.7,5.2,1.6,7.6,2.5c2.4,0.9,4.7,1.9,6.9,2.8
			c2.2,1,4.3,1.9,6.2,2.9c1.9,1,3.8,2,5.4,2.9c1.7,1,3.2,1.9,4.6,2.8c1.4,0.9,2.7,1.8,3.8,2.6c2.3,1.5,4,2.9,5.2,3.8
			c1.2,0.9,1.8,1.4,1.8,1.4s-0.7-0.4-1.9-1.2c-1.3-0.8-3-2.1-5.4-3.4c-1.2-0.7-2.5-1.5-4-2.3c-1.5-0.8-3.1-1.6-4.8-2.4
			c-1.7-0.8-3.6-1.6-5.6-2.5c-2-0.8-4.1-1.6-6.3-2.5c-2.2-0.7-4.5-1.6-7-2.2c-2.4-0.7-4.9-1.4-7.6-1.9c-5.2-1.2-10.8-2-16.6-2.5
			c-5.8-0.5-11.8-0.4-17.9-0.1c-6.1,0.4-12.2,1.3-18.2,2.6c-6,1.2-11.9,3.1-17.6,5.2c-5.7,2.1-11,4.7-16.1,7.3
			c-1.2,0.7-2.5,1.4-3.7,2.1c-1.2,0.7-2.4,1.5-3.6,2.2c-2.4,1.4-4.5,3-6.7,4.5c-2.1,1.5-4.1,3.1-6,4.6c-1.9,1.6-3.7,3.1-5.4,4.6
			c-3.4,3.1-6.3,6-8.8,8.8c-1.2,1.4-2.4,2.7-3.4,3.9c-1,1.2-1.9,2.3-2.7,3.3c-0.4,0.5-0.8,1-1.1,1.4c-0.4,0.5-0.7,1-1,1.4
			c-0.6,0.9-1.2,1.6-1.6,2.2c-0.9,1.2-1.3,1.8-1.3,1.8L182.3,190.5z"/>
		<path d="M183.8,189.1c0,0,0.7-0.4,1.9-1.2c0.6-0.4,1.4-0.9,2.3-1.4c0.5-0.3,0.9-0.6,1.5-0.9c0.6-0.3,1.2-0.7,1.8-1
			c1.3-0.7,2.7-1.5,4.3-2.4c1.6-0.8,3.2-1.6,5.1-2.5c3.6-1.7,7.8-3.5,12.4-5.2c2.3-0.9,4.8-1.6,7.3-2.5c2.5-0.8,5.2-1.5,7.9-2.2
			c2.8-0.6,5.6-1.3,8.5-1.8c1.5-0.2,2.9-0.5,4.4-0.7c1.5-0.2,3-0.4,4.5-0.6c6.1-0.6,12.4-1,18.8-0.8c6.4,0.2,12.9,0.7,19.3,1.9
			c6.4,1.1,12.7,2.6,18.7,4.7c6,2,11.8,4.3,17.2,7.1c5.4,2.7,10.4,5.6,14.9,8.8c2.3,1.5,4.4,3.2,6.5,4.7c2,1.6,3.9,3.3,5.7,4.8
			c1.7,1.7,3.4,3.2,5,4.7c1.5,1.6,3,3,4.2,4.5c1.3,1.5,2.4,2.8,3.5,4.1c1.1,1.3,2,2.5,2.8,3.6c1.7,2.2,2.9,4,3.8,5.2
			c0.8,1.2,1.3,1.9,1.3,1.9s-0.5-0.6-1.4-1.8c-0.9-1.1-2.2-2.9-4.1-4.9c-0.9-1-1.9-2.2-3-3.4c-1.2-1.2-2.4-2.5-3.8-3.8
			c-1.4-1.3-2.9-2.7-4.5-4.1c-1.6-1.4-3.4-2.8-5.2-4.3c-1.9-1.4-3.8-2.9-5.9-4.3c-2.1-1.4-4.3-2.9-6.6-4.2c-4.6-2.8-9.7-5.3-15-7.6
			c-5.4-2.3-11.1-4.1-17-5.7c-5.9-1.6-12-2.6-18.1-3.3c-6.1-0.7-12.3-0.8-18.3-0.6c-6,0.2-11.9,1-17.6,1.9c-1.4,0.3-2.8,0.5-4.2,0.8
			c-1.4,0.3-2.7,0.6-4.1,1c-2.7,0.6-5.2,1.4-7.8,2.2c-2.5,0.8-4.9,1.6-7.2,2.5c-2.3,1-4.5,1.7-6.6,2.7c-4.2,1.8-7.9,3.8-11.1,5.6
			c-1.6,0.9-3.1,1.8-4.4,2.6c-1.3,0.8-2.5,1.6-3.6,2.3c-0.5,0.4-1.1,0.7-1.5,1c-0.5,0.4-1,0.7-1.4,1c-0.9,0.6-1.6,1.2-2.2,1.6
			c-1.2,0.9-1.8,1.3-1.8,1.3L183.8,189.1z"/>
		<path d="M185.7,188.2c0,0,0.8-0.2,2.2-0.5c0.7-0.2,1.6-0.4,2.7-0.6c0.5-0.1,1.1-0.3,1.7-0.4c0.6-0.1,1.3-0.3,2.1-0.4
			c1.5-0.3,3.1-0.6,4.8-0.9c1.7-0.2,3.6-0.5,5.6-0.8c4-0.5,8.5-0.9,13.4-1.1c2.5-0.2,5,0,7.7-0.1c2.7,0.1,5.4,0.2,8.2,0.4
			c2.8,0.3,5.7,0.5,8.6,1c1.5,0.2,2.9,0.4,4.4,0.7c1.5,0.3,3,0.6,4.5,0.9c6,1.3,12.1,2.9,18.1,5.2c6,2.2,12,4.7,17.7,7.9
			c5.7,3.1,11.2,6.5,16.3,10.3c5.1,3.8,9.9,7.8,14.1,12.1c4.2,4.3,8.1,8.6,11.4,13.1c1.7,2.2,3.2,4.4,4.6,6.5
			c1.4,2.2,2.7,4.3,3.9,6.3c1.1,2.1,2.3,4.1,3.2,6c0.9,2,1.9,3.8,2.6,5.6c0.7,1.8,1.4,3.5,2.1,5c0.6,1.6,1.1,3,1.5,4.3
			c1,2.6,1.5,4.7,1.9,6.1c0.4,1.4,0.6,2.2,0.6,2.2s-0.3-0.7-0.8-2.1c-0.5-1.4-1.2-3.5-2.3-6c-0.6-1.3-1.1-2.7-1.8-4.2
			c-0.7-1.5-1.5-3.1-2.4-4.8c-0.9-1.7-1.9-3.5-3-5.3c-1.1-1.9-2.3-3.7-3.6-5.7c-1.4-1.9-2.7-4-4.3-6c-1.6-2-3.1-4.1-4.9-6.1
			c-3.5-4.1-7.5-8.1-11.9-11.9c-4.4-3.9-9.2-7.4-14.3-10.8c-5.1-3.3-10.6-6.2-16.2-8.8c-5.6-2.6-11.4-4.6-17.2-6.3
			c-5.8-1.7-11.6-2.8-17.3-3.7c-1.4-0.2-2.8-0.4-4.2-0.5c-1.4-0.2-2.8-0.2-4.2-0.4c-2.7-0.3-5.4-0.3-8-0.4c-2.6,0-5.2,0-7.6,0.1
			c-2.5,0.2-4.8,0.2-7.1,0.5c-4.5,0.4-8.6,1.1-12.3,1.8c-1.8,0.4-3.5,0.7-5,1.1c-1.5,0.4-2.9,0.8-4.1,1.1c-0.6,0.2-1.2,0.3-1.8,0.5
			c-0.6,0.2-1.1,0.4-1.7,0.5c-1,0.3-1.9,0.6-2.6,0.8c-1.4,0.4-2.2,0.7-2.2,0.7L185.7,188.2z"/>
		<ellipse cx="184.8" cy="177.3" rx="21" ry="37.2"/>
		<circle cx="186.8" cy="255" r="57.1"/>
	</g>
</g>
</svg>
