<?xml version="1.0" encoding="utf-8"?>
<!-- Generator: Adobe Illustrator 18.0.0, SVG Export Plug-In . SVG Version: 6.00 Build 0)  -->
<!DOCTYPE svg PUBLIC "-//W3C//DTD SVG 1.1//EN" "http://www.w3.org/Graphics/SVG/1.1/DTD/svg11.dtd">
<svg version="1.1" id="Layer_1" xmlns="http://www.w3.org/2000/svg" xmlns:xlink="http://www.w3.org/1999/xlink" x="0px" y="0px"
	 viewBox="0 0 375 375" enable-background="new 0 0 375 375" xml:space="preserve">
<g>
	<g id="_x34_62_9_">
		<g>
			<path d="M367.5,188.3c0,0-69.5,15.7-118.2,27.7c9.7-27.7,18.9-57.3,18.9-57.3s-30.6,21.7-55.5,41c-0.3-1-0.6-1.9-0.9-2.9
				c3-15,5-27.3,5-27.3s-4.9,2.5-12.1,6.4c-2.8-7.7-4.7-12.9-4.7-12.9s-6.8,10.5-14.6,23.6c-0.9,0.5-1.7,1-2.6,1.5
				c-5.6-31-13.9-67.6-13.9-67.6s-12.9,28.2-24.2,55.2c-28.2-41.5-69.5-99.6-69.5-99.6s15.7,69.5,27.7,118.2
				c-27.7-9.7-57.3-18.9-57.3-18.9s21.7,30.6,41,55.5c-1,0.3-1.9,0.6-2.9,0.9c-15-3-27.3-5-27.3-5s2.5,4.9,6.4,12.1
				C55.1,242,50,244,50,244s10.5,6.8,23.6,14.6c0.5,0.9,1,1.7,1.5,2.6C44.1,266.8,7.5,275,7.5,275s22.4,10.3,46.5,20.5
				c12.3-3,24.6-5,36.9-6.3l-17.7-7.4c1.9-0.3,3.7-0.7,5.5-1l28.3-5.1c0,0-14.8-25.1-14.9-25.3c0.2-0.1,27.9-8.9,27.9-8.9
				l-17.6-22.7c-1.1-1.5-2.3-2.9-3.4-4.4l32.2,11.2l-8.9-36c-1.3-5.4-2.7-11.1-4.1-17c3.4,4.9,6.7,9.8,9.9,14.4l20.8,30.6l13.1-31.4
				c0.3,1.9,0.7,3.7,1,5.5l5.1,28.3c0,0,25.1-14.7,25.3-14.8l8.9,27.9l22.7-17.6c1.5-1.1,2.9-2.3,4.4-3.4l-11.2,32.2l36-8.9
				c5.4-1.3,11.1-2.7,17-4.1c-4.9,3.4-9.8,6.7-14.4,9.9L226,262l31.4,13.1c-1.8,0.3-3.7,0.7-5.5,1l35.4,13.5
				c19.8-4.1,35.9-7.7,35.9-7.7s-28.2-12.9-55.2-24.2C309.4,229.6,367.5,188.3,367.5,188.3z"/>
			<path d="M171.6,248.9c-27.5,0-49.8,22.3-49.8,49.8h99.6C221.4,271.2,199.1,248.9,171.6,248.9z"/>
		</g>
	</g>
</g>
</svg>
