<?xml version="1.0" encoding="utf-8"?>
<!-- Generator: Adobe Illustrator 18.0.0, SVG Export Plug-In . SVG Version: 6.00 Build 0)  -->
<!DOCTYPE svg PUBLIC "-//W3C//DTD SVG 1.1//EN" "http://www.w3.org/Graphics/SVG/1.1/DTD/svg11.dtd">
<svg version="1.1" id="Layer_1" xmlns="http://www.w3.org/2000/svg" xmlns:xlink="http://www.w3.org/1999/xlink" x="0px" y="0px"
	 viewBox="0 0 375 375" enable-background="new 0 0 375 375" xml:space="preserve">
<g>
	<g>
		<path d="M313.9,124.5c0,0-8.9-10.9-17-20.1c0.3-0.5,0.5-1,0.8-1.5c5.6,0.5,10,0.8,10,0.8s-1.2-1.9-2.9-4.7
			c2.8-1.5,4.7-2.5,4.7-2.5s-3.4-1.9-7.9-4.1c0.2-0.9,0.4-1.9,0.6-2.8c10.9-3.6,22.3-7.8,22.3-7.8s-11.3-4.1-22.1-7.6
			c14.7-13.5,35.2-33.2,35.2-33.2s-25.2,9.3-43.2,16.4c-0.2-0.3-0.4-0.5-0.6-0.8c2.5-11.6,4.6-23.5,4.6-23.5s-7.2,6.9-14.7,14.5
			c-1.5-1-3.2-1.8-4.9-2.6c0.2-3.1,0.3-5.1,0.3-5.1s-1.8,1.3-4.4,3.2c-1.4-3.1-2.3-5.1-2.3-5.1s-0.8,1.8-2.1,4.6
			c-1.8-0.3-3.6-0.4-5.4-0.4c-3-10.5-6.1-20.4-6.1-20.4s-3.6,11.5-6.7,22.9c-0.3,0.1-0.5,0.2-0.8,0.4
			c-12.4-15.9-30.1-37.5-30.1-37.5s8.8,28.1,15.4,47.7C225.6,52.5,214,50,214,50s8,9.8,15.8,18.8c-0.3,0.9-0.6,1.8-0.8,2.7
			c-5-0.5-8.8-0.7-8.8-0.7s0.5,0.9,1.4,2.3c-49.9,5.7-93.8,44-107.4,99.6l8.3,2.4c-25.1-7.2-50.9,9-57.5,36.2
			c-6.7,27.2,19.1,10.9,44.3,18.1c25.1,7.2,40.1,35.3,46.7,8c6.7-27.2-8.3-55.1-33.4-62.4l8.3,2.4c10.3-42.2,40.9-72.9,77.4-83
			c4.3,1.5,10.9,3.8,17.3,5.9c-14.7,13.5-35.2,33.2-35.2,33.2s25.9-9.6,44-16.7c-2.6,11.9-4.9,24.6-4.9,24.6s10.8-10.4,19.5-19.5
			c0.2,0.4,0.3,0.8,0.5,1.1c-0.5,6.4-0.8,11.5-0.8,11.5s1.8-1.3,4.4-3.2c1.4,3.1,2.3,5.1,2.3,5.1s2.2-4.6,4.6-10.4
			c0.3-0.2,0.6-0.5,0.9-0.7c3.4,12.6,8.1,27.4,8.1,27.4s3.8-12.2,7-23.9c12.5,15.9,30.6,38.2,30.6,38.2s-8.8-28.1-15.4-47.7
			C302.2,122,313.9,124.5,313.9,124.5z M299.2,66c-0.2-0.5-0.5-1-0.7-1.4c1.3-0.5,2.5-1,3.9-1.5C301.3,64,300.2,65,299.2,66z
			 M241.6,45.5c0.9,1.2,1.8,2.3,2.7,3.4c-0.4,0.3-0.8,0.6-1.3,0.9C242.5,48.4,242.1,47,241.6,45.5z M225.5,111.5
			c1.8-1.6,3.5-3.2,5.1-4.7l2.6-2.4c0.6,1.1,1.3,2.2,2.1,3.3l-3.5,1.4C229.7,109.8,227.6,110.6,225.5,111.5z M242.6,115.5
			c0.3,0.2,0.6,0.4,0.9,0.7c-0.4,0.5-0.9,0.9-1.3,1.4L242.6,115.5z M268.5,123.3c0.4,0,0.7-0.1,1.1-0.1l-0.6,2
			C268.8,124.6,268.6,124,268.5,123.3z M281.9,123.4l-2.4-3.1c1.1-0.5,2.2-1.1,3.3-1.7l1.2,3.5c0.7,2.2,1.5,4.5,2.3,6.8
			C284.8,127,283.3,125.2,281.9,123.4z"/>
		<path d="M89.2,311.4c-25.1-7.2-40.1-35.3-46.7-8c-6.7,27.2,8.3,55.2,33.4,62.4c25.1,7.2,50.9-9,57.5-36.2
			C140.1,302.3,114.3,318.7,89.2,311.4z"/>
		<path d="M135.4,256.6c-11.5-3.3-23.4,4.1-26.4,16.6c-3.1,12.5,3.8,25.3,15.4,28.7c11.5,3.3,39.1,0.4,42.2-12.1
			C169.6,277.3,147,260,135.4,256.6z"/>
		<path d="M95.4,269.4c3.1-12.5-3.8-25.3-15.4-28.7c-11.5-3.3-39.1-0.4-42.2,12.1c-3.1,12.5,19.6,29.9,31.1,33.2
			C80.5,289.3,92.3,281.9,95.4,269.4z"/>
	</g>
</g>
</svg>
