<?xml version="1.0" encoding="utf-8"?>
<!-- Generator: Adobe Illustrator 18.0.0, SVG Export Plug-In . SVG Version: 6.00 Build 0)  -->
<!DOCTYPE svg PUBLIC "-//W3C//DTD SVG 1.1//EN" "http://www.w3.org/Graphics/SVG/1.1/DTD/svg11.dtd">
<svg version="1.1" id="Layer_1" xmlns="http://www.w3.org/2000/svg" xmlns:xlink="http://www.w3.org/1999/xlink" x="0px" y="0px"
	 viewBox="0 0 375 375" enable-background="new 0 0 375 375" xml:space="preserve">
<g>
	<g>
		<path d="M246.6,49c-13.2-7-31.7-20.9-55.2-41.5c-25,18.6-44.6,31.1-58.3,37c-15.8,6.8-44.7,12.8-86.2,17.6l-3,76.2
			c5.2,54.3,69.7,151.1,132.6,229.2c70.2-74.2,143-167,150.7-220.3l1.2-8.3l2.6-65.6C290.1,65.3,261.7,57.1,246.6,49z M217.6,211.6
			l4.9,4.9l-3,4.5l-40.6,61.6L194,244l-22.9,34.8l24.4-62.3l-54.9-38l-9.9-6.9l7.6-12.6l48.1-79.8l7,5.2l0.8-1.3l37,27.3l-54,60.5
			L217.6,211.6z"/>
	</g>
</g>
</svg>
