<?xml version="1.0" encoding="utf-8"?>
<!-- Generator: Adobe Illustrator 18.0.0, SVG Export Plug-In . SVG Version: 6.00 Build 0)  -->
<!DOCTYPE svg PUBLIC "-//W3C//DTD SVG 1.1//EN" "http://www.w3.org/Graphics/SVG/1.1/DTD/svg11.dtd">
<svg version="1.1" id="Layer_1" xmlns="http://www.w3.org/2000/svg" xmlns:xlink="http://www.w3.org/1999/xlink" x="0px" y="0px"
	 viewBox="0 0 375 375" enable-background="new 0 0 375 375" xml:space="preserve">
<g>
	<g id="_x34_45_9_">
		<g>
			<path d="M198.6,126.7c12,13.6,24.1,27,36.5,40.2c-35.9,6.4-71.6,13.4-107.3,20.6c35.7,7.2,71.5,14.2,107.3,20.6
				c-12.4,13.2-24.6,26.6-36.5,40.2c16-3.2,31.9-6.6,47.8-10.3c11.1-2.6,22.3-5.2,33.3-8.4c2-0.6,4.1-1.2,6.1-1.9
				c2.6-0.9,4.9-1.1,7.6-1.5c6.8-0.9,13.3-3.6,18.8-7.9c11.1-8.6,16.7-22.9,14.6-36.7c-2.1-13.6-11.6-25.4-24.5-30.4
				c-5.6-2.1-11.4-2.1-17-3.9c-4.6-1.5-9.3-2.8-13.9-4c-11.6-3.1-23.3-5.8-35-8.4C223.8,132,211.2,129.3,198.6,126.7z"/>
			<path d="M101.9,7.5c9.1,10.4,18.4,20.7,27.9,30.7C102.4,43.2,75.1,48.5,47.8,54c27.3,5.5,54.7,10.8,82.1,15.8
				c-9.5,10.1-18.8,20.3-27.9,30.7c17.8-3.6,35.5-7.4,53.1-11.9c4.7-1.2,9.5-2.5,14.1-4.1c2.6-0.9,5.3-0.8,8-1.4
				c3.5-0.8,6.8-2.2,9.8-4.1c11.9-7.8,16.7-23.3,11.2-36.4c-2.2-5.2-5.9-9.8-10.6-13c-2.5-1.7-5.2-3-8-3.9c-2.8-0.9-6.1-0.6-8.7-1.5
				c-8.3-3-16.9-5-25.4-7C131,13.6,116.5,10.4,101.9,7.5z"/>
			<path d="M101.9,367.5c9.1-10.4,18.4-20.7,27.9-30.7c-27.4-4.9-54.8-10.3-82.1-15.8c27.3-5.5,54.7-10.8,82.1-15.8
				c-9.5-10.1-18.8-20.3-27.9-30.7c17.8,3.6,35.5,7.4,53.1,11.9c4.7,1.2,9.5,2.5,14.1,4.1c2.6,0.9,5.3,0.8,8,1.4
				c3.5,0.8,6.8,2.2,9.8,4.1c11.9,7.8,16.7,23.3,11.2,36.4c-2.2,5.2-5.9,9.8-10.6,13c-2.5,1.7-5.2,3-8,3.9c-2.8,0.9-6.1,0.6-8.7,1.5
				c-8.3,3-16.9,5-25.4,7C131,361.4,116.5,364.6,101.9,367.5z"/>
		</g>
	</g>
</g>
</svg>
