<?xml version="1.0" encoding="utf-8"?>
<!-- Generator: Adobe Illustrator 18.0.0, SVG Export Plug-In . SVG Version: 6.00 Build 0)  -->
<!DOCTYPE svg PUBLIC "-//W3C//DTD SVG 1.1//EN" "http://www.w3.org/Graphics/SVG/1.1/DTD/svg11.dtd">
<svg version="1.1" id="Layer_1" xmlns="http://www.w3.org/2000/svg" xmlns:xlink="http://www.w3.org/1999/xlink" x="0px" y="0px"
	 viewBox="0 0 375 375" enable-background="new 0 0 375 375" xml:space="preserve">
<g>
	<g>
		<path d="M83.6,136.6c16.4-12.8,37.6-17,57.5-11.6c1.2-18.6,10.2-35.5,24.9-47.1c22.3-17.5,53.1-18.5,76.4-3
			c4.3-9.7,11-18.2,19.4-24.8C290.3,28,331.4,33,353.6,61.4c22.2,28.4,17.2,69.6-11.2,91.8c-9.3,7.3-20.2,11.8-31.8,13.3l3.1,9.6
			c1.1-1.8,2.4-3.3,4-4.5c4.9-3.9,11.6-4.7,17.3-2.1l0.2,0.1c4.3,1.9,7.6,5.5,9.1,9.9c1.5,4.4,1.1,9.3-1.1,13.5
			c-19.6,36.7-45.5,67.9-77.1,92.6c-31.6,24.7-68.1,42.4-108.5,52.6c-4.5,1.1-9.4,0.3-13.3-2.2c-3.9-2.5-6.6-6.6-7.5-11.2l0-0.2
			c-1.1-6.2,1.3-12.4,6.2-16.3c1.1-0.9,2.3-1.6,3.6-2.2l-10.9-5.6c-7.3,9.6-12.2,13.7-19.4,19.3l-3.2,2.5
			c-28.4,22.2-69.6,17.2-91.8-11.2c-22.2-28.4-17.2-69.6,11.2-91.8c8.4-6.6,18.2-11,28.6-12.8C53.6,180.9,62.4,153.3,83.6,136.6z
			 M147.8,222.3c18.1-14.2,21.3-40.4,7.1-58.5c-14.2-18.1-40.4-21.3-58.5-7.1c-18.1,14.1-21.3,40.4-7.1,58.5
			C103.5,233.2,129.7,236.4,147.8,222.3z M231.1,162.9c18.1-14.2,21.3-40.4,7.1-58.5c-14.2-18.1-40.4-21.3-58.5-7.1
			c-18.1,14.2-21.3,40.4-7.1,58.5C186.8,173.9,213.1,177.1,231.1,162.9z M96.6,306.6c18.1-14.2,21.3-40.4,7.1-58.5
			c-14.2-18.1-40.4-21.3-58.5-7.1c-18.1,14.2-21.3,40.4-7.1,58.5C52.2,317.6,78.5,320.8,96.6,306.6z M328.7,133.8
			c18.1-14.2,21.3-40.4,7.1-58.5c-14.2-18.1-40.4-21.3-58.5-7.1c-18.1,14.1-21.3,40.4-7.1,58.5C284.4,144.7,310.6,147.9,328.7,133.8
			z M240.4,253.5c33.7-26.4,48.8-55.5,41.2-65.2c-7.6-9.7-39.5-2.1-73.2,24.3c-33.7,26.4-48.8,55.5-41.2,65.2
			C174.8,287.4,206.7,279.8,240.4,253.5z"/>
	</g>
</g>
</svg>
