<?xml version="1.0" encoding="utf-8"?>
<!-- Generator: Adobe Illustrator 18.0.0, SVG Export Plug-In . SVG Version: 6.00 Build 0)  -->
<!DOCTYPE svg PUBLIC "-//W3C//DTD SVG 1.1//EN" "http://www.w3.org/Graphics/SVG/1.1/DTD/svg11.dtd">
<svg version="1.1" id="Layer_1" xmlns="http://www.w3.org/2000/svg" xmlns:xlink="http://www.w3.org/1999/xlink" x="0px" y="0px"
	 viewBox="0 0 375 375" enable-background="new 0 0 375 375" xml:space="preserve">
<g>
	<path d="M212.3,41.3c-24.2,24.2-31.9,58.8-23,89.5L7.5,312.6l3.9,34.9l34.9,3.9l48.8,8.9l-6.6-36.2l36.2,6.6l-6.6-36.2l36.2,6.6
		l-6.6-36.2l36.2,6.6l-6.6-36.2l36.2,6.6l-6.6-36.2l36.2,6.6l-4.3-23.7c33.5,15.2,74.4,9.1,101.9-18.5c35.5-35.5,35.5-93.1,0-128.6
		C305.4,5.8,247.8,5.8,212.3,41.3z M324,108.7c-13.9,13.9-36.5,13.9-50.4,0c-13.9-13.9-13.9-36.5,0-50.4c13.9-13.9,36.5-13.9,50.4,0
		C337.9,72.1,337.9,94.7,324,108.7z"/>
</g>
</svg>
