<?xml version="1.0" encoding="utf-8"?>
<!-- Generator: Adobe Illustrator 18.0.0, SVG Export Plug-In . SVG Version: 6.00 Build 0)  -->
<!DOCTYPE svg PUBLIC "-//W3C//DTD SVG 1.1//EN" "http://www.w3.org/Graphics/SVG/1.1/DTD/svg11.dtd">
<svg version="1.1" id="Layer_1" xmlns="http://www.w3.org/2000/svg" xmlns:xlink="http://www.w3.org/1999/xlink" x="0px" y="0px"
	 viewBox="0 0 375 375" enable-background="new 0 0 375 375" xml:space="preserve">
<g>
	<g>
		<path d="M265.3,360l-23.7-28.8c-2.6,1.2-5.5,2.4-7.6,3.2c-29.8,11-63.1,11-92.9,0c-2.1-0.8-5-2-7.6-3.2L109.7,360L90,305.6
			l-33.5,11.8l1.1-59.9l-34.5,4.7l18.2-64.5l-33.8,0.3l8.9-14.3c12.4-20,26.7-44.2,28.1-48.6c3.7-12,9.6-23.5,17.5-34.3
			c-2.9-2-5.6-4.4-9.2-8.1c-23.6-24.5-10-68.4-9.4-70.2l1.8-5.6l5.8-0.8c0.3,0,7.2-1,16.8-1c17.7,0,42,3.2,56.5,18.3
			c4.1,4.2,6.8,8.2,8.9,12c17.2-7.7,35.5-11.5,54.4-11.5s37.2,3.9,54.4,11.5c2.1-3.8,4.8-7.7,8.9-12C265.3,18.2,289.5,15,307.3,15
			c9.7,0,16.6,0.9,16.9,1l5.4,0.7l2,5.1c0.7,1.8,16.6,43.7-7.3,68.5c-3.7,3.9-7.2,7.3-11.2,10.4c7.9,10.8,13.8,22.3,17.5,34.3
			c1.4,4.4,15.7,28.6,28.1,48.6l8.9,14.3l-33.8-0.3l18.2,64.5l-34.5-4.7l1.1,59.9L285,305.6L265.3,360z M128.2,308.4l6.5,3.1
			c2.4,1.1,9.2,4.3,12.7,5.6c25.7,9.5,54.3,9.5,80.1,0c3.5-1.3,10.3-4.4,12.7-5.6l6.5-3.1l12.2,14.8l14.9-41.1l25.6,9l-1-54.9
			l28,3.8l-17.2-61.2l24.9,0.2c-8.6-14.2-19.5-32.8-21.3-38.6c-3.9-12.8-10.8-24.9-20.5-36.1l-7.9-9.2l10.9-5.2
			c5.8-2.8,9.3-5.9,15.6-12.5c11.8-12.3,7.8-33.7,5-43.7c-2.3-0.2-5.3-0.3-8.6-0.3c-11.6,0-32.6,1.6-43.1,12.6
			c-4.8,5-6.6,8.8-9.4,15.2l-4,9.2l-8.9-4.7c-17-9-35.3-13.6-54.4-13.6c-19.1,0-37.4,4.6-54.4,13.6l-8.9,4.7l-4-9.2
			c-2.8-6.4-4.6-10.3-9.4-15.2c-10.5-11-31.6-12.6-43.1-12.6c-3.2,0-6,0.1-8.3,0.3c-2.7,12.4-4.5,34.3,6.6,45.9
			c5.3,5.5,7.1,6.5,14,9.8L91,94.7l-8,9.2c-9.9,11.3-16.9,23.6-20.8,36.5c-1.8,5.8-12.7,24.4-21.3,38.6l24.9-0.2L48.6,240l28-3.8
			l-1,54.9l25.6-9l14.9,41.1L128.2,308.4z"/>
		<path d="M150.8,147c0,11.4-6.4,20.6-14.4,20.6c-7.9,0-14.4-9.2-14.4-20.6c0-11.4,6.4-20.6,14.4-20.6
			C144.4,126.5,150.8,135.7,150.8,147z"/>
		<path d="M224.2,147c0,11.4,6.4,20.6,14.4,20.6c7.9,0,14.4-9.2,14.4-20.6c0-11.4-6.4-20.6-14.4-20.6
			C230.6,126.5,224.2,135.7,224.2,147z"/>
		<path d="M179.2,265c-8.6,4.4-32.7,18.2-40.3,5.4c-5.7-9.6-0.3-25.9,2.3-35.6c6-22.2,15.6-44.1,26.6-64.3c3.5-6.4-6.3-12.2-9.8-5.7
			c-14.1,26.1-27.9,56.1-31.6,85.7c-1.5,12.1-1.1,25.7,9.8,33.2c13.9,9.6,36.3-2.5,48.7-8.8C191.4,271.5,185.7,261.7,179.2,265
			L179.2,265z"/>
		<path d="M190.1,274.8c13.9,7.1,33.2,17.1,48.7,8.8c11.4-6.1,11.2-22.3,9.8-33.2c-3.7-29.6-17.5-59.6-31.6-85.7
			c-3.5-6.4-13.3-0.7-9.8,5.7c11,20.3,20.2,42.1,26.5,64.3c3,10.4,7.2,25.1,2.3,35.6c-6.3,13.4-32.8-1.5-40.3-5.4
			C189.3,261.7,183.6,271.5,190.1,274.8L190.1,274.8z"/>
		<ellipse cx="187.5" cy="256.3" rx="30.8" ry="25.2"/>
	</g>
</g>
</svg>
