<?xml version="1.0" encoding="utf-8"?>
<!-- Generator: Adobe Illustrator 18.0.0, SVG Export Plug-In . SVG Version: 6.00 Build 0)  -->
<!DOCTYPE svg PUBLIC "-//W3C//DTD SVG 1.1//EN" "http://www.w3.org/Graphics/SVG/1.1/DTD/svg11.dtd">
<svg version="1.1" id="Layer_1" xmlns="http://www.w3.org/2000/svg" xmlns:xlink="http://www.w3.org/1999/xlink" x="0px" y="0px"
	 viewBox="0 0 375 375" enable-background="new 0 0 375 375" xml:space="preserve">
<g>
	<g>
		<path d="M323.9,53.9c-3.3-6.5-9.8-13.3-22.7-17.9c-7.3-2.7-17.2-4.9-29.3-6.8c-22.8-3.5-52.8-5.4-84.5-5.4
			c-31.7,0-61.7,1.9-84.5,5.4c-12.1,1.9-22,4.2-29.3,6.8c-12.8,4.7-19.4,11.5-22.7,17.9C23,86.5,7.5,128.2,7.5,171.3
			c0,99.3,80.7,180,180,180s180-80.7,180-180C367.5,128.2,352,86.5,323.9,53.9z M187.5,49.2c63,0,114,7.8,114,17.5
			s-51,17.5-114,17.5c-63,0-114-7.8-114-17.5S124.5,49.2,187.5,49.2z M187.5,321.3c-82.7,0-150-67.3-150-150
			c0-28.6,8.2-56.5,23.4-80.4c3.4,2.5,7.6,4.8,12.8,6.7c7.3,2.7,17.2,4.9,29.3,6.8c22.8,3.5,52.8,5.4,84.5,5.4
			c31.7,0,61.7-1.9,84.5-5.4c12.1-1.9,22-4.2,29.3-6.8c5.3-1.9,9.5-4.2,12.8-6.7c15.2,23.9,23.4,51.8,23.4,80.4
			C337.5,254,270.2,321.3,187.5,321.3z"/>
		<path d="M215.2,215.5c-9.2-10.4-30.8-17.8-42.6-17.8c-15.2,0-39.5,12.3-39.5,27.6c0,15.2,24.3,27.6,39.5,27.6
			c11.8,0,33.4-7.4,42.6-17.8l26.7,14.6v-48.8L215.2,215.5z M155.5,226.8c-4.1,0-7.5-3.3-7.5-7.5s3.3-7.5,7.5-7.5
			c4.1,0,7.5,3.3,7.5,7.5S159.6,226.8,155.5,226.8z"/>
		<path d="M321.2,144.4c0-1.2-0.4-2.1-0.5-2.7c-0.2-0.6-0.2-1-0.2-1s-0.1,0.3-0.3,0.9c-0.2,0.6-0.5,1.5-0.9,2.6
			c-0.4,1-1,2.2-1.7,3.6c-0.7,1.3-1.7,2.7-2.8,4.1c-1.1,1.4-2.4,2.8-3.9,4c-1.4,1.3-3.2,2.4-4.9,3.4c-1.8,1-3.8,1.7-5.8,2.2
			c-1,0.2-2,0.4-3.1,0.6c-0.5,0.1-1,0.2-1.6,0.2l-0.8,0l-0.4,0l-0.2,0l-0.1,0l0,0c-2.8-0.1-4.2-0.3-6.3-0.8c-2-0.6-4-1.3-5.8-2.2
			c-1.8-1-3.5-2.1-4.9-3.4c-1.5-1.2-2.8-2.6-3.9-4c-1.1-1.4-2-2.8-2.8-4.1c-0.7-1.3-1.3-2.5-1.7-3.6c-0.5-1-0.7-1.9-0.9-2.5
			c-0.2-0.6-0.3-0.9-0.3-0.9s-0.1,0.3-0.3,0.9c-0.2,0.6-0.5,1.5-0.9,2.6c-0.4,1-1,2.2-1.7,3.6c-0.7,1.3-1.7,2.7-2.8,4.1
			c-1.1,1.4-2.4,2.8-3.9,4c-1.4,1.3-3.2,2.4-4.9,3.4c-1.8,1-3.8,1.7-5.8,2.2c-2,0.5-4.1,0.7-6.3,0.8c-0.7-0.1-2.7,0-3.3-0.2
			c-0.9-0.1-1.9-0.3-3-0.5c-2-0.6-4-1.3-5.8-2.2c-1.8-1-3.5-2.1-4.9-3.4c-1.5-1.2-2.8-2.6-3.9-4c-1.1-1.4-2-2.8-2.8-4.1
			c-0.7-1.3-1.3-2.5-1.7-3.6c-0.5-1-0.7-1.9-0.9-2.5c-0.2-0.6-0.3-0.9-0.3-0.9s-0.1,0.3-0.3,0.9c-0.2,0.6-0.5,1.5-0.9,2.6
			c-0.4,1-1,2.2-1.7,3.6c-0.7,1.3-1.7,2.7-2.8,4.1c-1.1,1.4-2.4,2.8-3.9,4c-1.4,1.3-3.2,2.4-4.9,3.4c-1.8,1-3.8,1.7-5.8,2.2
			c-2,0.5-4.1,0.7-6.3,0.8c-0.7-0.1-2.7,0-3.3-0.2c-0.9-0.1-1.9-0.3-3-0.5c-2-0.6-4-1.3-5.8-2.2c-1.8-1-3.5-2.1-4.9-3.4
			c-1.5-1.2-2.8-2.6-3.9-4c-1.1-1.4-2-2.8-2.8-4.1c-0.7-1.3-1.3-2.5-1.7-3.6c-0.5-1-0.7-1.9-0.9-2.5c-0.2-0.6-0.3-0.9-0.3-0.9
			s-0.1,0.3-0.3,0.9c-0.2,0.6-0.5,1.5-0.9,2.6c-0.4,1-1,2.2-1.7,3.6c-0.7,1.3-1.7,2.7-2.8,4.1c-1.1,1.4-2.4,2.8-3.9,4
			c-1.4,1.3-3.2,2.4-4.9,3.4c-1.8,1-3.8,1.7-5.8,2.2c-2,0.5-4.1,0.7-6.3,0.8c-0.7-0.1-2.7,0-3.3-0.2c-0.9-0.1-1.9-0.3-3-0.5
			c-2-0.6-4-1.3-5.8-2.2c-1.8-1-3.5-2.1-4.9-3.4c-1.5-1.2-2.8-2.6-3.9-4c-1.1-1.4-2-2.8-2.8-4.1c-0.7-1.3-1.3-2.5-1.7-3.6
			c-0.5-1-0.7-1.9-0.9-2.5c-0.2-0.6-0.3-0.9-0.3-0.9s-0.1,0.3-0.3,0.9c-0.2,0.6-0.5,1.5-0.9,2.6c-0.4,1-1,2.2-1.7,3.6
			c-0.7,1.3-1.7,2.7-2.8,4.1c-1.1,1.4-2.4,2.8-3.9,4c-1.4,1.3-3.2,2.4-4.9,3.4c-1.8,1-3.8,1.7-5.8,2.2c-2,0.5-4.1,0.7-6.3,0.8
			c-0.7-0.1-2.7,0-3.3-0.2c-0.9-0.1-1.9-0.3-3-0.5c-2-0.6-4-1.3-5.8-2.2c-1.8-1-3.5-2.1-4.9-3.4c-1.5-1.2-2.8-2.6-3.9-4
			c-1.1-1.4-2-2.8-2.8-4.1c-0.7-1.3-1.3-2.5-1.7-3.6c-0.5-1-0.7-1.9-0.9-2.5c-0.2-0.6-0.3-0.9-0.3-0.9s-0.1,0.3-0.2,0.9
			c-0.1,0.6-0.5,1.6-0.5,2.8c0,0.6-0.1,1.3-0.1,2c0,0.7,0.1,1.5,0.1,2.4c0.2,1.7,0.6,3.7,1.3,5.8c0.8,2,1.8,4.2,3.4,6.3
			c1.5,2.1,3.5,4.1,5.7,5.8c2.3,1.7,5,3.1,7.9,4.1c1.5,0.4,2.9,0.9,4.6,1.1c1.9,0.3,2.6,0.3,4.5,0.4c3.1-0.1,6.2-0.5,9.1-1.5
			c2.9-1,5.6-2.4,7.9-4.1c2.3-1.8,4.2-3.7,5.7-5.8c1.5-2.1,2.6-4.3,3.4-6.3c0.2-0.7,0.4-1.3,0.5-1.9c0.2,0.6,0.3,1.3,0.5,1.9
			c0.8,2,1.8,4.2,3.4,6.3c1.5,2.1,3.5,4.1,5.7,5.8c2.3,1.7,5,3.1,7.9,4.1c1.5,0.4,2.9,0.9,4.6,1.1c1.9,0.3,2.6,0.3,4.5,0.4
			c3.1-0.1,6.2-0.5,9.1-1.5c2.9-1,5.6-2.4,7.9-4.1c2.3-1.8,4.2-3.7,5.7-5.8c1.5-2.1,2.6-4.3,3.4-6.3c0.2-0.7,0.4-1.3,0.5-1.9
			c0.2,0.6,0.3,1.3,0.5,1.9c0.8,2,1.8,4.2,3.4,6.3c1.5,2.1,3.5,4.1,5.7,5.8c2.3,1.7,5,3.1,7.9,4.1c1.5,0.4,2.9,0.9,4.6,1.1
			c1.9,0.3,2.6,0.3,4.5,0.4c3.1-0.1,6.2-0.5,9.1-1.5c2.9-1,5.6-2.4,7.9-4.1c2.3-1.8,4.2-3.7,5.7-5.8c1.5-2.1,2.6-4.3,3.4-6.3
			c0.2-0.7,0.4-1.3,0.5-1.9c0.2,0.6,0.3,1.3,0.5,1.9c0.8,2,1.8,4.2,3.4,6.3c1.5,2.1,3.5,4.1,5.7,5.8c2.3,1.7,5,3.1,7.9,4.1
			c1.5,0.4,2.9,0.9,4.6,1.1c1.9,0.3,2.6,0.3,4.5,0.4c3.1-0.1,6.2-0.5,9.1-1.5c2.9-1,5.6-2.4,7.9-4.1c2.3-1.8,4.2-3.7,5.7-5.8
			c1.5-2.1,2.6-4.3,3.4-6.3c0.2-0.7,0.4-1.3,0.5-1.9c0.2,0.6,0.3,1.3,0.5,1.9c0.8,2,1.8,4.2,3.4,6.3c1.5,2.1,3.5,4.1,5.7,5.8
			c2.3,1.7,5,3.1,7.9,4.1c2.7,1,6.6,1.4,8.8,1.5l0.3,0l0.1,0l0.1,0l0.3,0l0.6,0l1.2-0.1c0.8,0,1.5-0.2,2.3-0.3
			c1.5-0.2,3-0.7,4.5-1.1c2.9-1,5.6-2.4,7.9-4.1c2.3-1.8,4.2-3.7,5.7-5.8c1.5-2.1,2.6-4.3,3.4-6.3c0.7-2.1,1.1-4,1.3-5.8
			c0.1-0.9,0.1-1.7,0.1-2.4C321.3,145.7,321.3,145,321.2,144.4z"/>
	</g>
</g>
</svg>
