<?xml version="1.0" encoding="utf-8"?>
<!-- Generator: Adobe Illustrator 18.0.0, SVG Export Plug-In . SVG Version: 6.00 Build 0)  -->
<!DOCTYPE svg PUBLIC "-//W3C//DTD SVG 1.1//EN" "http://www.w3.org/Graphics/SVG/1.1/DTD/svg11.dtd">
<svg version="1.1" id="Layer_1" xmlns="http://www.w3.org/2000/svg" xmlns:xlink="http://www.w3.org/1999/xlink" x="0px" y="0px"
	 viewBox="0 0 375 375" enable-background="new 0 0 375 375" xml:space="preserve">
<g>
	<g>
		<path d="M286,141.4c-17.8,0-61.8,32.1-61.8,32.1s44.1,32.2,61.8,32.2h56.6v-64.3H286z"/>
		<rect x="352.5" y="141.4" width="15" height="64.3"/>
		<path d="M227.2,234.2l-60.7-60.7l60.7-60.7V30.3h-77.1v19.2l-19.2-19.2l14.2,19L123.2,74l26.9-12v37.8L133.4,110l-4.8,2.9l1.2,6.8
			l5.2,29.3L117,133l15.4-41.8l2.2-6l-5.4-1.5l-15.6-4.2l-7.7-33.3l-6,29.6L55.7,64.1l13.8,5.9l-9.6,30.8l22.5-25.2l37.3,16
			L97.8,132l-2.7,4.9l4.5,5.3l19.1,22.8l-23.7-4.9l-7.6-43.9l-1.1-6.3l-5.4,1.5L7.5,131.1l20.2-2.4l15.2,30L41.6,127l35.1-4.1
			l0.9,34.4l-36.8,12.2l37.1-0.1l0.1,4.9l6.5,2.4l31.7,11.5l-32,12.9l-5,2l-1,3.9l-5.6,22.2L48,222.9l21.9,17.7l-3.7,14.9
			l-33.1,32.8l20.4-12.7l25.9,17.4l-14.9-24.3l10-6.2l1-0.6l0.8-2l17.4-42.2l14.5-3.6l12.3,28l0.4-31.1l18.7-4.6l-5.4,44.5
			l-43.1,11.2l-6.2,1.6l1.9,5.3l11.7,32.4l-27.5,18.1l32.2-5.1l9.4,26.1l-13.9-68.2l45.6-5l4.1-0.4l-19.2,16l-4.9,4.1l4,4l14,14
			l-19.1,21.6l26.9-12v8h9.9l22.1,22.1l-16.5-22.1h61.6V234.2z M150.1,301.9l-9.7-12.9l9.7-5.9V301.9z M150.1,122.4l-0.6-1.8
			l0.6-0.5V122.4z"/>
	</g>
</g>
</svg>
