<?xml version="1.0" encoding="utf-8"?>
<!-- Generator: Adobe Illustrator 18.0.0, SVG Export Plug-In . SVG Version: 6.00 Build 0)  -->
<!DOCTYPE svg PUBLIC "-//W3C//DTD SVG 1.1//EN" "http://www.w3.org/Graphics/SVG/1.1/DTD/svg11.dtd">
<svg version="1.1" id="Layer_1" xmlns="http://www.w3.org/2000/svg" xmlns:xlink="http://www.w3.org/1999/xlink" x="0px" y="0px"
	 viewBox="0 0 375 375" enable-background="new 0 0 375 375" xml:space="preserve">
<g>
	<path d="M340.7,54.9c-55.1,10.5-102.8,33.9-145.3,71.3c-5.1-2.9-11.6-2.1-15.8,2.5c-4.7,5.1-4.2,13.2,0.7,18.1l0.5,0.5L7.5,320.5
		l77.7-0.3v-23.5h23.5v-23.5h23.5v-23.5h23.5V226h23.5v-23.5h23.5l0-24.2l4.4-4.4l5.2,5.2c4.8,4.8,13,0.9,12.3-5.8l0,0
		c4-4,4.8-10,2.4-14.8c36-31.1,75.5-50.2,121.9-59.1c11.3-2.2,19.2-12.4,18.3-23.9c0-0.1,0-0.3,0-0.4
		C366.3,61.8,353.9,52.4,340.7,54.9z M353.4,84.6c-4,4-10.6,4-14.6,0c-4-4-4-10.6,0-14.6c4-4,10.6-4,14.6,0
		C357.5,74,357.5,80.6,353.4,84.6z"/>
</g>
</svg>
