<?xml version="1.0" encoding="utf-8"?>
<!-- Generator: Adobe Illustrator 18.0.0, SVG Export Plug-In . SVG Version: 6.00 Build 0)  -->
<!DOCTYPE svg PUBLIC "-//W3C//DTD SVG 1.1//EN" "http://www.w3.org/Graphics/SVG/1.1/DTD/svg11.dtd">
<svg version="1.1" id="Layer_1" xmlns="http://www.w3.org/2000/svg" xmlns:xlink="http://www.w3.org/1999/xlink" x="0px" y="0px"
	 viewBox="0 0 375 375" enable-background="new 0 0 375 375" xml:space="preserve">
<g>
	<g id="_x34_57_9_">
		<g>
			<path d="M122.5,114c0,0,0.8,15.2,2.6,31.1c-24.6-6-54.3-12-54.3-12s16.5,18.8,32.7,35.9c-39.8,7.1-96,18.4-96,18.4
				s56.2,11.3,96,18.4c-16.2,17.2-32.7,35.9-32.7,35.9s29.7-5.9,54.3-12c-1.8,15.9-2.6,31.1-2.6,31.1s33.9-22.1,47-35.4
				c9.7-7.8,16.2-22,16.2-38.1s-6.5-30.3-16.2-38.1C156.4,136.1,122.5,114,122.5,114z"/>
			<g>
				<path d="M255.2,236.7c-5-2-9.8-5.3-13.9-9.6L132.2,336.1l19,19l113.9-113.9C261.4,239.7,258,238.2,255.2,236.7z"/>
				<path d="M258.6,127.2L151.2,19.8l-19,19l110,110C247.5,141.3,253.7,133.3,258.6,127.2z"/>
			</g>
			<polygon points="326.2,141.1 293.4,141.4 316.4,112.8 			"/>
			<polygon points="291.9,258.3 272.2,227 313.1,232.2 			"/>
			<polygon points="328.9,223 317.6,200.2 345.3,206.6 			"/>
			<polygon points="367.5,182.3 347.6,187.7 357,166.7 			"/>
		</g>
	</g>
</g>
</svg>
