<?xml version="1.0" encoding="utf-8"?>
<!-- Generator: Adobe Illustrator 18.0.0, SVG Export Plug-In . SVG Version: 6.00 Build 0)  -->
<!DOCTYPE svg PUBLIC "-//W3C//DTD SVG 1.1//EN" "http://www.w3.org/Graphics/SVG/1.1/DTD/svg11.dtd">
<svg version="1.1" id="Layer_1" xmlns="http://www.w3.org/2000/svg" xmlns:xlink="http://www.w3.org/1999/xlink" x="0px" y="0px"
	 viewBox="0 0 375 375" enable-background="new 0 0 375 375" xml:space="preserve">
<g>
	<path d="M276.1,183V96.1c0-48.9-39.8-88.6-88.6-88.6c-48.9,0-88.6,39.8-88.6,88.6V183C83.3,202.5,74,227.1,74,254
		c0,62.7,50.8,113.5,113.5,113.5c62.7,0,113.5-50.8,113.5-113.5C301,227.1,291.7,202.5,276.1,183z M203.8,270.2
		c0.2,1,0.3,2.1,0.3,3.1v33.2c0,9.2-7.4,16.6-16.6,16.6s-16.6-7.4-16.6-16.6v-33.2c0-1.1,0.1-2.1,0.3-3.1
		c-12.1-6-20.4-18.5-20.4-32.9c0-20.3,16.4-36.7,36.7-36.7c20.3,0,36.7,16.4,36.7,36.7C224.2,251.8,215.9,264.2,203.8,270.2z
		 M248.4,158.2c-17.6-11.2-38.5-17.8-60.9-17.8c-22.4,0-43.3,6.5-60.9,17.8V96.1c0-33.6,27.3-60.9,60.9-60.9
		c33.6,0,60.9,27.3,60.9,60.9V158.2z"/>
</g>
</svg>
