<?xml version="1.0" encoding="utf-8"?>
<!-- Generator: Adobe Illustrator 18.0.0, SVG Export Plug-In . SVG Version: 6.00 Build 0)  -->
<!DOCTYPE svg PUBLIC "-//W3C//DTD SVG 1.1//EN" "http://www.w3.org/Graphics/SVG/1.1/DTD/svg11.dtd">
<svg version="1.1" id="Layer_1" xmlns="http://www.w3.org/2000/svg" xmlns:xlink="http://www.w3.org/1999/xlink" x="0px" y="0px"
	 viewBox="0 0 375 375" enable-background="new 0 0 375 375" xml:space="preserve">
<g>
	<g>
		<g>
			<path d="M198.1,113.1v-12c22-4,38.7-23.3,38.7-46.4c0-26-21.2-47.2-47.2-47.2c-26,0-47.2,21.2-47.2,47.2
				c0,23.1,16.7,42.4,38.7,46.4v12c-28.8,1.9-54.9,13.3-75.3,31.2l-15.4-15.4l5.8-5.8l-14.6-14.6L58,132.1l14.6,14.6l5.8-5.8
				l15.4,15.4c-19.6,22.4-31.5,51.7-31.5,83.8c0,70.3,57,127.4,127.4,127.4c70.3,0,127.4-57,127.4-127.4
				C317,172.7,264.5,117.5,198.1,113.1z M154.1,54.7c0-19.6,15.9-35.5,35.5-35.5c19.6,0,35.5,15.9,35.5,35.5
				c0,16.6-11.5,30.6-27,34.4V71.9h8.2V51.2h-33.4v20.7h8.2v17.2C165.7,85.3,154.1,71.3,154.1,54.7z M189.6,331.7
				c-50.6,0-91.6-41-91.6-91.6s41-91.6,91.6-91.6c50.6,0,91.6,41,91.6,91.6S240.2,331.7,189.6,331.7z"/>
			<path d="M193.2,223l9.3-9.3L189.6,162l-12.9,51.7l9.3,9.3c-8,1.7-13.9,8.7-13.9,17.2c0,9.7,7.9,17.6,17.6,17.6
				c9.7,0,17.6-7.9,17.6-17.6C207.2,231.7,201.2,224.6,193.2,223z"/>
		</g>
	</g>
</g>
</svg>
