<?xml version="1.0" encoding="utf-8"?>
<!-- Generator: Adobe Illustrator 18.0.0, SVG Export Plug-In . SVG Version: 6.00 Build 0)  -->
<!DOCTYPE svg PUBLIC "-//W3C//DTD SVG 1.1//EN" "http://www.w3.org/Graphics/SVG/1.1/DTD/svg11.dtd">
<svg version="1.1" id="Layer_1" xmlns="http://www.w3.org/2000/svg" xmlns:xlink="http://www.w3.org/1999/xlink" x="0px" y="0px"
	 viewBox="0 0 375 375" enable-background="new 0 0 375 375" xml:space="preserve">
<g>
	<g>
		<path d="M225.2,243.7c0-23.4,30.5-74.2,39.9-89.3l13.4-21.6l13.4,21.6c4.3,6.9,13.1,21.5,21.4,37.5c26.7-34.4,45.3-70.6,45.3-92.3
			c0-50.9-41.2-92.1-92.1-92.1c-33.5,0-62.8,17.9-78.9,44.6c-16.1-26.8-45.4-44.6-78.9-44.6c-50.9,0-92.1,41.2-92.1,92.1
			s102.2,181.6,171,181.6c13.5,0,28.4-5.1,43.4-13.6C227.3,260.4,225.2,252.3,225.2,243.7z"/>
		<path d="M315.9,243.7c0,20.7-16.8,37.5-37.5,37.5c-20.7,0-37.5-16.8-37.5-37.5c0-20.7,37.5-80.9,37.5-80.9S315.9,223,315.9,243.7z
			"/>
		<path d="M239.8,349.3c0,10-8.1,18.2-18.2,18.2c-10,0-18.2-8.1-18.2-18.2c0-10,18.2-39.2,18.2-39.2S239.8,339.3,239.8,349.3z"/>
	</g>
</g>
</svg>
