<?xml version="1.0" encoding="utf-8"?>
<!-- Generator: Adobe Illustrator 18.0.0, SVG Export Plug-In . SVG Version: 6.00 Build 0)  -->
<!DOCTYPE svg PUBLIC "-//W3C//DTD SVG 1.1//EN" "http://www.w3.org/Graphics/SVG/1.1/DTD/svg11.dtd">
<svg version="1.1" id="Layer_1" xmlns="http://www.w3.org/2000/svg" xmlns:xlink="http://www.w3.org/1999/xlink" x="0px" y="0px"
	 viewBox="0 0 375 375" enable-background="new 0 0 375 375" xml:space="preserve">
<g>
	<g>
		<path d="M291.6,50.1h-20.3c-2.7-23.9-23-42.6-47.7-42.6h-72.3c-24.7,0-45,18.7-47.7,42.6H83.4c-34.6,0-62.7,28.1-62.7,62.7v192
			c0,34.6,28.1,62.7,62.7,62.7h208.3c34.6,0,62.7-28.1,62.7-62.7v-192C354.3,78.2,326.2,50.1,291.6,50.1z M151.3,34.9h72.3
			c9.5,0,17.4,6.5,19.8,15.2H131.6C133.9,41.4,141.9,34.9,151.3,34.9z M336,304.8c0,24.5-19.9,44.4-44.4,44.4H83.4
			c-24.5,0-44.4-19.9-44.4-44.4v-119c0-24.5,19.9-44.4,44.4-44.4h208.3c24.5,0,44.4,19.9,44.4,44.4V304.8z M291.6,123.1H83.4
			c-17.3,0-33.1,7.1-44.4,18.5v-28.8c0-24.5,19.9-44.4,44.4-44.4h19.9v32h27.4v-32h113.5v32h27.4v-32h19.9
			c24.5,0,44.4,19.9,44.4,44.4v28.8C324.7,130.2,309,123.1,291.6,123.1z"/>
		<polygon points="212.2,173.6 162.8,173.6 162.8,219.4 117,219.4 117,268.8 162.8,268.8 162.8,314.6 212.2,314.6 212.2,268.8 
			258,268.8 258,219.4 212.2,219.4 		"/>
	</g>
</g>
</svg>
