<?xml version="1.0" encoding="utf-8"?>
<!-- Generator: Adobe Illustrator 18.0.0, SVG Export Plug-In . SVG Version: 6.00 Build 0)  -->
<!DOCTYPE svg PUBLIC "-//W3C//DTD SVG 1.1//EN" "http://www.w3.org/Graphics/SVG/1.1/DTD/svg11.dtd">
<svg version="1.1" id="Layer_1" xmlns="http://www.w3.org/2000/svg" xmlns:xlink="http://www.w3.org/1999/xlink" x="0px" y="0px"
	 viewBox="0 0 375 375" enable-background="new 0 0 375 375" xml:space="preserve">
<g>
	<g>
		<path d="M273.5,12.6c0,0-32.7,52.1-56.6,101.7c26.5,51.3,50.6,106.9,50.6,138.8c0,5.1-0.3,10.1-0.9,15c2.3,0.2,4.5,0.3,6.8,0.3
			c44.9,0,81.3-36.4,81.3-81.3S273.5,12.6,273.5,12.6z"/>
		<path d="M134.6,7.5c0,0-114.4,182.4-114.4,245.6c0,63.2,51.2,114.4,114.4,114.4c63.2,0,114.4-51.2,114.4-114.4
			C249,189.9,134.6,7.5,134.6,7.5z M192.2,256.3h-38.4v38.4h-38.5v-38.4H76.9v-38.5h38.4v-38.4h38.5v38.4h38.4V256.3z"/>
	</g>
</g>
</svg>
