<?xml version="1.0" encoding="utf-8"?>
<!-- Generator: Adobe Illustrator 18.0.0, SVG Export Plug-In . SVG Version: 6.00 Build 0)  -->
<!DOCTYPE svg PUBLIC "-//W3C//DTD SVG 1.1//EN" "http://www.w3.org/Graphics/SVG/1.1/DTD/svg11.dtd">
<svg version="1.1" id="Layer_1" xmlns="http://www.w3.org/2000/svg" xmlns:xlink="http://www.w3.org/1999/xlink" x="0px" y="0px"
	 viewBox="0 0 375 375" enable-background="new 0 0 375 375" xml:space="preserve">
<g>
	<path d="M306.4,7.5c-49.4,0-98.7,0-148.1,0c-14.2,0-23.5,11.7-34.1,20.3C103.8,44.4,83.4,60.9,63,77.5c-3.8,3.1-4.5,16.9-4.5,20.4
		v256.9c0,7,5.7,12.7,12.7,12.7h185.9c7,0,12.7-5.7,12.7-12.7V80.7c0-5.1-4.1-9.2-9.2-9.2H102.3c8.8-7.2,17.6-14.3,26.5-21.5
		c9.1-7.4,18.3-14.8,27.4-22.3c2.8,0,5.7,0,8.5,0c43.9,0,87.7,0,131.6,0c0,93.7,0,187.5,0,281.2c0,13,20.2,13,20.2,0
		c0-97.1,0-194.2,0-291.3C316.5,12.1,311.9,7.5,306.4,7.5z M105.3,201.2h42.9v-42.9h32v42.9h42.9v32h-42.9v42.9h-32v-42.9h-42.9
		V201.2z"/>
</g>
</svg>
