<?xml version="1.0" encoding="utf-8"?>
<!-- Generator: Adobe Illustrator 18.0.0, SVG Export Plug-In . SVG Version: 6.00 Build 0)  -->
<!DOCTYPE svg PUBLIC "-//W3C//DTD SVG 1.1//EN" "http://www.w3.org/Graphics/SVG/1.1/DTD/svg11.dtd">
<svg version="1.1" id="Layer_1" xmlns="http://www.w3.org/2000/svg" xmlns:xlink="http://www.w3.org/1999/xlink" x="0px" y="0px"
	 viewBox="0 0 375 375" enable-background="new 0 0 375 375" xml:space="preserve">
<g>
	<g>
		<g>
			<g>
				<g>
					<path d="M187.5,367.5L95.6,274C68,245.9,52.7,208.7,52.7,169.2V7.5h269.5v161.7c0,39.5-15.2,76.7-42.9,104.9L187.5,367.5z
						 M64.1,18.8v150.3c0,36.5,14.1,70.9,39.6,96.9l83.8,85.2l83.8-85.2c25.6-26,39.6-60.4,39.6-96.9V18.8H64.1z"/>
					<g>
						<path d="M74.4,29.1v140.1c0,32.9,12.4,63.9,34.9,87.7V29.1H74.4z"/>
						<polygon points="120.8,29.1 120.8,268.8 159.8,308.5 159.8,29.1 						"/>
						<polygon points="171.4,29.1 171.4,320.2 187.5,336.7 210.4,313.4 210.4,29.1 						"/>
						<polygon points="221.9,29.1 221.9,301.7 260.9,262 260.9,29.1 						"/>
						<path d="M300.6,169.2V29.1h-28.2v220.2C290.7,226.7,300.6,198.6,300.6,169.2z"/>
					</g>
				</g>
			</g>
		</g>
	</g>
</g>
</svg>
