<?xml version="1.0" encoding="utf-8"?>
<!-- Generator: Adobe Illustrator 18.0.0, SVG Export Plug-In . SVG Version: 6.00 Build 0)  -->
<!DOCTYPE svg PUBLIC "-//W3C//DTD SVG 1.1//EN" "http://www.w3.org/Graphics/SVG/1.1/DTD/svg11.dtd">
<svg version="1.1" id="Layer_1" xmlns="http://www.w3.org/2000/svg" xmlns:xlink="http://www.w3.org/1999/xlink" x="0px" y="0px"
	 viewBox="0 0 375 375" enable-background="new 0 0 375 375" xml:space="preserve">
<g>
	<g>
		<g>
			<path d="M322.2,13.3c-8.4-5.8-18.4-5.7-28-5.7c-29.3,0-58.6,0-88,0c-34.7,0-69.5,0-104.2,0c-23.9,0-51.1-3.4-63.1,23.1
				c-6.8,15.2-3,38.5-3,54.5c0,34.5,0,69,0,103.5c0,34.3,0,68.5,0,102.8c0,17.5-3.1,39.2,4.2,55.5c9.4,20.8,31.5,20.4,50.5,20.4
				c26.4,0,52.8,0,79.2,0c44.2,0,88.4,0,132.5,0c20.6-1,37.8-16.6,37.8-37.9c0-5.3,0-10.6,0-16c0-29.6,0-59.2,0-88.8
				c0-59,0-118,0-177C340.1,33.4,334.2,21.5,322.2,13.3z M328.7,65c0,30.7,0,61.3,0,92c0,42,0,84.1,0,126.1c0,12.8,0,25.6,0,38.4
				c0,17.1-5.9,33.6-26.3,34.5c-56.5,0-112.9,0-169.4,0c-19.8,0-39.5,0-59.3,0c-31.8,0-26.3-37.3-26.3-58.3c0-68.6,0-137.2,0-205.8
				c0-17.1-3-37.3,1.1-54.1c6.3-26,47.7-18.8,67.2-18.8c61.5,0,122.9,0,184.4,0c15.6,0,28.7,10.5,28.7,26.9
				C328.7,52.4,328.7,58.7,328.7,65z"/>
		</g>
		<g>
			<path d="M119.3,47.9c-12-0.7-24.1,0-36.1,0c-10.3,0-17.6,8.3-18.2,18.2c-0.6,10.3,8.8,17.6,18.2,18.2c12,0.7,24.1,0,36.1,0
				c0.3,0,0.5,0,0.8-0.1C142.7,82.2,142.5,49.2,119.3,47.9z M119.3,77.8c-6,0-12,0-18.1,0V54.3c3.3,0.1,6.6,0.1,9.8,0.1
				c4.2,0,9.2-0.6,13.2,1.1C136.1,60.5,130.9,77.1,119.3,77.8z"/>
		</g>
		<g>
			<path d="M119.3,109c-12-0.7-24.1,0-36.1,0c-10.3,0-17.6,8.3-18.2,18.2c-0.6,10.3,8.8,17.6,18.2,18.2c12,0.7,24.1,0,36.1,0
				c0.3,0,0.5,0,0.8-0.1C142.7,143.3,142.5,110.4,119.3,109z M119.3,138.9c-6,0-12,0-18.1,0v-23.5c3.3,0.1,6.6,0.1,9.8,0.1
				c4.2,0,9.2-0.6,13.2,1.1C136.1,121.6,130.9,138.2,119.3,138.9z"/>
		</g>
		<g>
			<path d="M119.3,170.1c-12-0.7-24.1,0-36.1,0c-10.3,0-17.6,8.3-18.2,18.2c-0.6,10.3,8.8,17.6,18.2,18.2c12,0.7,24.1,0,36.1,0
				c0.3,0,0.5,0,0.8-0.1C142.7,204.4,142.5,171.5,119.3,170.1z M119.3,200c-6,0-12,0-18.1,0v-23.5c3.3,0.1,6.6,0.1,9.8,0.1
				c4.2,0,9.2-0.6,13.2,1.1C136.1,182.7,130.9,199.4,119.3,200z"/>
		</g>
		<g>
			<path d="M119.3,231.3c-12-0.7-24.1,0-36.1,0c-10.3,0-17.6,8.3-18.2,18.2c-0.6,10.3,8.8,17.6,18.2,18.2c12,0.7,24.1,0,36.1,0
				c0.3,0,0.5,0,0.8-0.1C142.7,265.5,142.5,232.6,119.3,231.3z M119.3,261.2c-6,0-12,0-18.1,0v-23.5c3.3,0.1,6.6,0.1,9.8,0.1
				c4.2,0,9.2-0.6,13.2,1.1C136.1,243.9,130.9,260.5,119.3,261.2z"/>
		</g>
		<g>
			<path d="M119.3,292.4c-12-0.7-24.1,0-36.1,0c-10.3,0-17.6,8.3-18.2,18.2c-0.6,10.3,8.8,17.6,18.2,18.2c12,0.7,24.1,0,36.1,0
				c0.3,0,0.5,0,0.8-0.1C142.7,326.7,142.5,293.7,119.3,292.4z M119.3,322.3c-6,0-12,0-18.1,0v-23.5c3.3,0.1,6.6,0.1,9.8,0.1
				c4.2,0,9.2-0.6,13.2,1.1C136.1,305,130.9,321.6,119.3,322.3z"/>
		</g>
		<g>
			<path d="M206.4,47.9c-12-0.7-24.1,0-36.1,0c-10.3,0-17.6,8.3-18.2,18.2c-0.6,10.3,8.8,17.6,18.2,18.2c12,0.7,24.1,0,36.1,0
				c0.3,0,0.5,0,0.8-0.1C229.8,82.2,229.6,49.2,206.4,47.9z M206.4,77.8c-6,0-12,0-18.1,0V54.3c3.3,0.1,6.6,0.1,9.8,0.1
				c4.2,0,9.2-0.6,13.2,1.1C223.2,60.5,218,77.1,206.4,77.8z"/>
		</g>
		<g>
			<path d="M206.4,109c-12-0.7-24.1,0-36.1,0c-10.3,0-17.6,8.3-18.2,18.2c-0.6,10.3,8.8,17.6,18.2,18.2c12,0.7,24.1,0,36.1,0
				c0.3,0,0.5,0,0.8-0.1C229.8,143.3,229.6,110.4,206.4,109z M206.4,138.9c-6,0-12,0-18.1,0v-23.5c3.3,0.1,6.6,0.1,9.8,0.1
				c4.2,0,9.2-0.6,13.2,1.1C223.2,121.6,218,138.2,206.4,138.9z"/>
		</g>
		<g>
			<path d="M206.4,170.1c-12-0.7-24.1,0-36.1,0c-10.3,0-17.6,8.3-18.2,18.2c-0.6,10.3,8.8,17.6,18.2,18.2c12,0.7,24.1,0,36.1,0
				c0.3,0,0.5,0,0.8-0.1C229.8,204.4,229.6,171.5,206.4,170.1z M206.4,200c-6,0-12,0-18.1,0v-23.5c3.3,0.1,6.6,0.1,9.8,0.1
				c4.2,0,9.2-0.6,13.2,1.1C223.2,182.7,218,199.4,206.4,200z"/>
		</g>
		<g>
			<path d="M206.4,231.3c-12-0.7-24.1,0-36.1,0c-10.3,0-17.6,8.3-18.2,18.2c-0.6,10.3,8.8,17.6,18.2,18.2c12,0.7,24.1,0,36.1,0
				c0.3,0,0.5,0,0.8-0.1C229.8,265.5,229.6,232.6,206.4,231.3z M206.4,261.2c-6,0-12,0-18.1,0v-23.5c3.3,0.1,6.6,0.1,9.8,0.1
				c4.2,0,9.2-0.6,13.2,1.1C223.2,243.9,218,260.5,206.4,261.2z"/>
		</g>
		<g>
			<path d="M206.4,292.4c-12-0.7-24.1,0-36.1,0c-10.3,0-17.6,8.3-18.2,18.2c-0.6,10.3,8.8,17.6,18.2,18.2c12,0.7,24.1,0,36.1,0
				c0.3,0,0.5,0,0.8-0.1C229.8,326.7,229.6,293.7,206.4,292.4z M206.4,322.3c-6,0-12,0-18.1,0v-23.5c3.3,0.1,6.6,0.1,9.8,0.1
				c4.2,0,9.2-0.6,13.2,1.1C223.2,305,218,321.6,206.4,322.3z"/>
		</g>
		<g>
			<path d="M293.5,47.9c-12-0.7-24.1,0-36.1,0c-10.3,0-17.6,8.3-18.2,18.2c-0.6,10.3,8.8,17.6,18.2,18.2c12,0.7,24.1,0,36.1,0
				c0.3,0,0.5,0,0.7-0.1C316.9,82.2,316.7,49.2,293.5,47.9z M293.5,77.8c-6,0-12,0-18.1,0V54.3c3.3,0.1,6.6,0.1,9.8,0.1
				c4.2,0,9.2-0.6,13.2,1.1C310.3,60.5,305.1,77.1,293.5,77.8z"/>
		</g>
		<g>
			<path d="M293.5,109c-12-0.7-24.1,0-36.1,0c-10.3,0-17.6,8.3-18.2,18.2c-0.6,10.3,8.8,17.6,18.2,18.2c12,0.7,24.1,0,36.1,0
				c0.3,0,0.5,0,0.7-0.1C316.9,143.3,316.7,110.4,293.5,109z M293.5,138.9c-6,0-12,0-18.1,0v-23.5c3.3,0.1,6.6,0.1,9.8,0.1
				c4.2,0,9.2-0.6,13.2,1.1C310.3,121.6,305.1,138.2,293.5,138.9z"/>
		</g>
		<g>
			<path d="M293.5,170.1c-12-0.7-24.1,0-36.1,0c-10.3,0-17.6,8.3-18.2,18.2c-0.6,10.3,8.8,17.6,18.2,18.2c12,0.7,24.1,0,36.1,0
				c0.3,0,0.5,0,0.7-0.1C316.9,204.4,316.7,171.5,293.5,170.1z M293.5,200c-6,0-12,0-18.1,0v-23.5c3.3,0.1,6.6,0.1,9.8,0.1
				c4.2,0,9.2-0.6,13.2,1.1C310.3,182.7,305.1,199.4,293.5,200z"/>
		</g>
		<g>
			<path d="M293.5,231.3c-12-0.7-24.1,0-36.1,0c-10.3,0-17.6,8.3-18.2,18.2c-0.6,10.3,8.8,17.6,18.2,18.2c12,0.7,24.1,0,36.1,0
				c0.3,0,0.5,0,0.7-0.1C316.9,265.5,316.7,232.6,293.5,231.3z M293.5,261.2c-6,0-12,0-18.1,0v-23.5c3.3,0.1,6.6,0.1,9.8,0.1
				c4.2,0,9.2-0.6,13.2,1.1C310.3,243.9,305.1,260.5,293.5,261.2z"/>
		</g>
		<g>
			<path d="M293.5,292.4c-12-0.7-24.1,0-36.1,0c-10.3,0-17.6,8.3-18.2,18.2c-0.6,10.3,8.8,17.6,18.2,18.2c12,0.7,24.1,0,36.1,0
				c0.3,0,0.5,0,0.7-0.1C316.9,326.7,316.7,293.7,293.5,292.4z M293.5,322.3c-6,0-12,0-18.1,0v-23.5c3.3,0.1,6.6,0.1,9.8,0.1
				c4.2,0,9.2-0.6,13.2,1.1C310.3,305,305.1,321.6,293.5,322.3z"/>
		</g>
	</g>
</g>
</svg>
