<?xml version="1.0" encoding="utf-8"?>
<!-- Generator: Adobe Illustrator 18.0.0, SVG Export Plug-In . SVG Version: 6.00 Build 0)  -->
<!DOCTYPE svg PUBLIC "-//W3C//DTD SVG 1.1//EN" "http://www.w3.org/Graphics/SVG/1.1/DTD/svg11.dtd">
<svg version="1.1" id="Layer_1" xmlns="http://www.w3.org/2000/svg" xmlns:xlink="http://www.w3.org/1999/xlink" x="0px" y="0px"
	 viewBox="0 0 375 375" enable-background="new 0 0 375 375" xml:space="preserve">
<g>
	<g>
		<path d="M179.5,190.5l-16.8,35.4c-2.2,4.6,0.3,10,5.1,11.5c6.2,2,12.9,3,19.7,3c6.9,0,13.5-1.1,19.7-3c4.8-1.5,7.3-6.9,5.1-11.5
			l-16.8-35.4c7.2-3.1,12.3-10.2,12.4-18.6l37.3-3c5.1-0.4,8.5-5.3,7.4-10.3c-3-13.3-10-25.1-19.7-34.1c-3.7-3.5-9.7-2.9-12.6,1.3
			l-20.5,29.7c-3.4-2.6-7.7-4.2-12.4-4.2c-4.7,0-9,1.6-12.4,4.2l-20.5-29.7c-2.9-4.2-8.8-4.8-12.6-1.3c-9.7,9-16.7,20.8-19.7,34.1
			c-1.1,5,2.3,9.8,7.4,10.3l37.3,3C167.2,180.2,172.3,187.4,179.5,190.5z M187.5,162.1c5.3,0,9.6,4.3,9.6,9.6c0,5.3-4.3,9.6-9.6,9.6
			c-5.3,0-9.6-4.3-9.6-9.6C177.9,166.4,182.2,162.1,187.5,162.1z"/>
		<path d="M344,63.3H31c-13,0-23.5,10.5-23.5,23.5v169.9c0,13,10.5,23.5,23.5,23.5h12.3v13.1c0,10.2,8.3,18.4,18.4,18.4h251.6
			c10.2,0,18.4-8.3,18.4-18.4v-13.1H344c13,0,23.5-10.5,23.5-23.5V86.7C367.5,73.8,357,63.3,344,63.3z M187.5,94.6
			c42.6,0,77.1,34.5,77.1,77.1c0,42.6-34.5,77.1-77.1,77.1c-42.6,0-77.1-34.5-77.1-77.1C110.4,129.1,144.9,94.6,187.5,94.6z
			 M26.5,117.2c0-4.6,3.8-8.4,8.4-8.4h47c4.6,0,8.4,3.8,8.4,8.4v1.7c0,4.6-3.8,8.4-8.4,8.4h-47c-4.6,0-8.4-3.8-8.4-8.4V117.2z
			 M26.5,149.9c0-4.6,3.8-8.4,8.4-8.4h47c4.6,0,8.4,3.8,8.4,8.4v1.7c0,4.6-3.8,8.4-8.4,8.4h-47c-4.6,0-8.4-3.8-8.4-8.4V149.9z
			 M26.5,182.6c0-4.6,3.8-8.4,8.4-8.4h47c4.6,0,8.4,3.8,8.4,8.4v1.7c0,4.6-3.8,8.4-8.4,8.4h-47c-4.6,0-8.4-3.8-8.4-8.4V182.6z
			 M26.5,217v-1.7c0-4.6,3.8-8.4,8.4-8.4h47c4.6,0,8.4,3.8,8.4,8.4v1.7c0,4.6-3.8,8.4-8.4,8.4h-47C30.3,225.4,26.5,221.6,26.5,217z
			 M348.5,217c0,4.6-3.8,8.4-8.4,8.4h-47c-4.6,0-8.4-3.8-8.4-8.4v-1.7c0-4.6,3.8-8.4,8.4-8.4h47c4.6,0,8.4,3.8,8.4,8.4V217z
			 M348.5,184.3c0,4.6-3.8,8.4-8.4,8.4h-47c-4.6,0-8.4-3.8-8.4-8.4v-1.7c0-4.6,3.8-8.4,8.4-8.4h47c4.6,0,8.4,3.8,8.4,8.4V184.3z
			 M348.5,151.6c0,4.6-3.8,8.4-8.4,8.4h-47c-4.6,0-8.4-3.8-8.4-8.4v-1.7c0-4.6,3.8-8.4,8.4-8.4h47c4.6,0,8.4,3.8,8.4,8.4V151.6z
			 M348.5,118.9c0,4.6-3.8,8.4-8.4,8.4h-47c-4.6,0-8.4-3.8-8.4-8.4v-1.7c0-4.6,3.8-8.4,8.4-8.4h47c4.6,0,8.4,3.8,8.4,8.4V118.9z"/>
	</g>
</g>
</svg>
