<?xml version="1.0" encoding="utf-8"?>
<!-- Generator: Adobe Illustrator 18.0.0, SVG Export Plug-In . SVG Version: 6.00 Build 0)  -->
<!DOCTYPE svg PUBLIC "-//W3C//DTD SVG 1.1//EN" "http://www.w3.org/Graphics/SVG/1.1/DTD/svg11.dtd">
<svg version="1.1" id="Layer_1" xmlns="http://www.w3.org/2000/svg" xmlns:xlink="http://www.w3.org/1999/xlink" x="0px" y="0px"
	 viewBox="0 0 375 375" enable-background="new 0 0 375 375" xml:space="preserve">
<g>
	<g>
		<path d="M225.1,303.9c0,35.1-26.3,63.6-58.7,63.6c-32.4,0-58.7-28.5-58.7-63.6c0-35.1,58.7-131.8,58.7-131.8
			S225.1,268.7,225.1,303.9z"/>
		<path d="M303.6,120.9c0,28.6-21.4,51.9-47.8,51.9c-26.4,0-47.8-23.2-47.8-51.9c0-28.6,47.8-107.5,47.8-107.5
			S303.6,92.2,303.6,120.9z"/>
		<path d="M141.3,85.9c0,20.9-15.6,37.9-34.9,37.9c-19.3,0-34.9-16.9-34.9-37.9c0-20.9,34.9-78.4,34.9-78.4S141.3,65,141.3,85.9z"/>
	</g>
</g>
</svg>
