<?xml version="1.0" encoding="utf-8"?>
<!-- Generator: Adobe Illustrator 18.0.0, SVG Export Plug-In . SVG Version: 6.00 Build 0)  -->
<!DOCTYPE svg PUBLIC "-//W3C//DTD SVG 1.1//EN" "http://www.w3.org/Graphics/SVG/1.1/DTD/svg11.dtd">
<svg version="1.1" id="Layer_1" xmlns="http://www.w3.org/2000/svg" xmlns:xlink="http://www.w3.org/1999/xlink" x="0px" y="0px"
	 viewBox="0 0 375 375" enable-background="new 0 0 375 375" xml:space="preserve">
<g>
	<g>
		<g>
			<path d="M160.4,206.3l-57.2,57.2c-10.3-6.5-24-5.2-33,3.7c-10.4,10.4-10.4,27.3,0,37.7c10.4,10.4,27.3,10.4,37.7,0
				c8.9-8.9,10.2-22.7,3.7-33l57.2-57.2L160.4,206.3z M99.4,296.5c-5.8,5.8-15.2,5.8-20.9,0c-5.8-5.8-5.8-15.2,0-20.9
				c5.8-5.8,15.2-5.8,20.9,0C105.2,281.3,105.2,290.7,99.4,296.5z"/>
			<path d="M172.7,218.6l-1.1,1c-2.2,2.1-5.7,5.5-9.9,9.6c-14.5,14.5-32.9,34.6-38.8,48.2c-2.5,5.9-4.1,11.6-5.5,16.6
				c-2,7.4-3.4,12-5.8,14.5c-12.4,12.4-32.7,12.4-45.1,0c-12.4-12.4-12.4-32.7,0-45.1c2.4-2.4,7.1-3.8,14.5-5.8
				c5-1.4,10.7-3,16.6-5.5c13.7-5.8,33.8-24.3,48.2-38.8c4.1-4.1,7.5-7.7,9.6-9.9l1-1.1l-35.2-35.2l-1.9,2c-2.5,2.7-5.2,5.4-8,8.2
				c-16.1,16.1-29.6,27.3-33.3,28.9c-2.8,1.2-6.5,2.2-10.3,3.3c-10.4,2.9-24.5,6.8-36.3,18.6c-31.8,31.8-31.8,83.6,0,115.4
				c31.8,31.8,83.6,31.8,115.4,0c11.8-11.8,15.7-26,18.6-36.3c1.1-3.9,2.1-7.5,3.3-10.3c1.6-3.8,12.9-17.3,28.9-33.3
				c2.8-2.8,5.5-5.4,8.2-8l2-1.9L172.7,218.6z M193.4,251.2c-1.4,1.3-2.8,2.7-4.1,4.1c-4.6,4.6-27.5,27.8-31.5,37.1
				c-1.5,3.5-2.6,7.6-3.8,11.8c-2.8,10.1-6,21.5-15.6,31.1c-27.2,27.2-71.5,27.2-98.7,0c-27.2-27.2-27.2-71.5,0-98.7
				c9.6-9.6,21-12.8,31.1-15.6c4.3-1.2,8.3-2.3,11.8-3.8c9.3-4,32.5-26.9,37.1-31.5c1.4-1.4,2.8-2.8,4.1-4.1l5.1,4.9
				c-11.5,11.8-33.5,33-43.5,37.3c-4,1.7-8.2,2.9-12.7,4.1c-9.7,2.7-19.7,5.5-28,13.7c-24.4,24.4-24.4,64.2,0,88.7
				c24.4,24.4,64.2,24.4,88.7,0c8.3-8.3,11.1-18.3,13.7-28c1.2-4.5,2.4-8.8,4.1-12.7c4.3-10,25.5-32,37.3-43.5L193.4,251.2z
				 M180.4,237.4c-10.2,10-34.4,34.4-40,47.4c-2,4.7-3.3,9.5-4.6,14.2c-2.4,8.6-4.6,16.7-10.7,22.8c-19.8,19.8-52.1,19.8-71.9,0
				c-19.8-19.8-19.8-52.1,0-71.9c6.1-6.1,14.2-8.3,22.8-10.7c4.7-1.3,9.5-2.6,14.2-4.6c13-5.6,37.5-29.8,47.4-40l5.2,4.9
				c-1.6,1.6-3.3,3.4-5.3,5.4c-19.4,19.4-35.2,32.3-44.5,36.2c-5.1,2.2-10.4,3.7-15.1,5c-8,2.2-14.9,4.1-19.7,8.9
				c-17.1,17.1-17.1,44.8,0,61.9c17.1,17.1,44.8,17.1,61.9,0c4.7-4.7,6.7-11.7,8.9-19.7c1.3-4.7,2.8-10,5-15.1
				c4-9.3,16.8-25.1,36.2-44.5c2-2,3.8-3.8,5.4-5.3L180.4,237.4z"/>
		</g>
		<g>
			<path d="M214.6,168.7l57.2-57.2c10.3,6.5,24,5.2,33-3.7c10.4-10.4,10.4-27.3,0-37.7c-10.4-10.4-27.3-10.4-37.7,0
				c-8.9,8.9-10.2,22.7-3.7,33l-57.2,57.2L214.6,168.7z M275.6,99.4c-5.8-5.8-5.8-15.2,0-20.9c5.8-5.8,15.2-5.8,20.9,0
				c5.8,5.8,5.8,15.2,0,20.9C290.7,105.2,281.3,105.2,275.6,99.4z"/>
			<path d="M253.7,207.8l1.9-2c2.5-2.7,5.2-5.4,8-8.2c16.1-16.1,29.6-27.3,33.3-28.9c2.8-1.2,6.5-2.2,10.3-3.3
				c10.4-2.9,24.5-6.8,36.3-18.6c31.8-31.8,31.8-83.6,0-115.4c-31.8-31.8-83.6-31.8-115.4,0c-11.8,11.8-15.7,26-18.6,36.3
				c-1.1,3.9-2.1,7.5-3.3,10.3c-1.6,3.8-12.9,17.3-28.9,33.3c-2.8,2.8-5.5,5.4-8.2,8l-2,1.9l35.2,35.2l1.1-1
				c2.2-2.1,5.7-5.5,9.9-9.6c14.5-14.5,32.9-34.6,38.8-48.2c2.5-5.9,4.1-11.6,5.5-16.6c2-7.4,3.4-12,5.8-14.5
				c12.4-12.4,32.7-12.4,45.1,0c12.4,12.4,12.4,32.7,0,45.1c-2.4,2.4-7.1,3.8-14.5,5.8c-5,1.4-10.7,3-16.6,5.5
				c-13.7,5.8-33.8,24.3-48.2,38.8c-4.1,4.1-7.5,7.7-9.6,9.9l-1,1.1L253.7,207.8z M246,188.5c11.5-11.8,33.5-33,43.5-37.3
				c4-1.7,8.2-2.9,12.7-4.1c9.7-2.7,19.7-5.5,28-13.7c24.4-24.4,24.4-64.2,0-88.7c-24.4-24.4-64.2-24.4-88.7,0
				c-8.3,8.3-11.1,18.3-13.7,28c-1.2,4.5-2.4,8.8-4.1,12.7c-4.3,10-25.5,32-37.3,43.5l-4.9-5.1c1.4-1.3,2.8-2.7,4.1-4.1
				c4.6-4.6,27.5-27.8,31.5-37.1c1.5-3.5,2.6-7.6,3.8-11.8c2.8-10.1,6-21.5,15.6-31.1c27.2-27.2,71.5-27.2,98.7,0
				c27.2,27.2,27.2,71.5,0,98.7c-9.6,9.6-21,12.8-31.1,15.6c-4.3,1.2-8.3,2.3-11.8,3.8c-9.3,4-32.5,26.9-37.1,31.5
				c-1.4,1.4-2.8,2.8-4.1,4.1L246,188.5z M232.3,175.5c1.6-1.6,3.3-3.4,5.3-5.4c19.4-19.4,35.2-32.3,44.5-36.2
				c5.1-2.2,10.4-3.7,15.1-5c8-2.2,14.9-4.1,19.7-8.9c17.1-17.1,17.1-44.8,0-61.9c-17.1-17.1-44.8-17.1-61.9,0
				c-4.7,4.7-6.7,11.7-8.9,19.7c-1.3,4.7-2.8,10-5,15.1c-4,9.3-16.8,25.1-36.2,44.5c-2,2-3.8,3.8-5.4,5.3l-4.9-5.2
				c10.2-10,34.4-34.4,40-47.4c2-4.7,3.3-9.5,4.6-14.2c2.4-8.6,4.6-16.7,10.7-22.8c19.8-19.8,52.1-19.8,71.9,0
				c19.8,19.8,19.8,52.1,0,71.9c-6.1,6.1-14.2,8.3-22.8,10.7c-4.7,1.3-9.5,2.6-14.2,4.6c-13,5.6-37.5,29.8-47.4,40L232.3,175.5z"/>
		</g>
		<rect x="164.4" y="117.1" transform="matrix(-0.7071 0.7071 -0.7071 -0.7071 436.9784 225.3652)" width="14.8" height="172.2"/>
		<rect x="180.1" y="101.4" transform="matrix(-0.7071 0.7072 -0.7072 -0.7071 452.6672 187.4801)" width="14.8" height="172.2"/>
		<rect x="195.8" y="85.7" transform="matrix(-0.7071 0.7072 -0.7072 -0.7071 468.3547 149.6047)" width="14.8" height="172.2"/>
		<path d="M258,209.9c-0.4,0.4-0.7,0.8-1,1.2l8.1,8.1c0.4-0.3,0.9-0.5,1.3-0.9c12-11.4,33.6-22.1,48.1-8.8c5.6,5.1,14-3.2,8.4-8.4
			C303.2,183.1,275,193.6,258,209.9z"/>
	</g>
</g>
</svg>
