<?xml version="1.0" encoding="utf-8"?>
<!-- Generator: Adobe Illustrator 18.0.0, SVG Export Plug-In . SVG Version: 6.00 Build 0)  -->
<!DOCTYPE svg PUBLIC "-//W3C//DTD SVG 1.1//EN" "http://www.w3.org/Graphics/SVG/1.1/DTD/svg11.dtd">
<svg version="1.1" id="Layer_1" xmlns="http://www.w3.org/2000/svg" xmlns:xlink="http://www.w3.org/1999/xlink" x="0px" y="0px"
	 viewBox="0 0 375 375" enable-background="new 0 0 375 375" xml:space="preserve">
<g>
	<g>
		<path d="M244,143.8V87.3h2.9c22,0,39.9-17.9,39.9-39.9c0-22-17.9-39.9-39.9-39.9H132.3c-22,0-39.9,17.9-39.9,39.9
			c0,21.6,17.2,39.2,38.6,39.9v56.5c-41,22-65.2,65.4-62.2,112.4c3.7,59.2,51.1,106.9,110.2,111c2.8,0.2,5.7,0.3,8.5,0.3h0
			c31.8,0,61.7-12.4,84.2-34.9c22.5-22.5,34.9-52.4,34.9-84.2C306.5,204.7,282.2,164.4,244,143.8z M254.8,315.8
			c-18,18-41.9,27.9-67.3,27.9c-2.3,0-4.6-0.1-6.9-0.2c-47.3-3.3-85.2-41.5-88.1-88.8c-2.5-39.7,19.2-76.2,55.4-92.7l6.9-3.2V63.5
			h-22.5c-8.9,0-16.1-7.2-16.1-16.1c0-8.9,7.2-16.1,16.1-16.1h114.6c8.9,0,16.1,7.2,16.1,16.1c0,8.9-7.2,16.1-16.1,16.1h-26.7v95.3
			l6.9,3.2c33.7,15.5,55.5,49.5,55.5,86.5C282.7,273.9,272.8,297.8,254.8,315.8z"/>
		<polygon points="206.8,194.5 168.2,194.5 168.2,232.1 130.5,232.1 130.5,270.8 168.2,270.8 168.2,308.4 206.8,308.4 206.8,270.8 
			244.5,270.8 244.5,232.1 206.8,232.1 		"/>
	</g>
</g>
</svg>
