<?xml version="1.0" encoding="utf-8"?>
<!-- Generator: Adobe Illustrator 18.0.0, SVG Export Plug-In . SVG Version: 6.00 Build 0)  -->
<!DOCTYPE svg PUBLIC "-//W3C//DTD SVG 1.1//EN" "http://www.w3.org/Graphics/SVG/1.1/DTD/svg11.dtd">
<svg version="1.1" id="Layer_1" xmlns="http://www.w3.org/2000/svg" xmlns:xlink="http://www.w3.org/1999/xlink" x="0px" y="0px"
	 viewBox="0 0 375 375" enable-background="new 0 0 375 375" xml:space="preserve">
<g>
	<g>
		<ellipse cx="178.2" cy="111" rx="39.1" ry="26.3"/>
		<path d="M99.1,167.8c-13.1,6.3-16.1,27.2-6.7,46.6c9.4,19.5,27.6,30.2,40.6,23.9c13.1-6.3,16.1-27.2,6.7-46.6
			C130.4,172.2,112.2,161.5,99.1,167.8z"/>
		<path d="M199.5,248.2c-9.4,4.5-12.9,16.6-7.9,26.9c5,10.4,16.6,15.1,26,10.6c9.4-4.5,12.9-16.6,7.9-26.9
			C220.5,248.4,208.9,243.7,199.5,248.2z"/>
		<ellipse transform="matrix(0.4333 0.9013 -0.9013 0.4333 276.4359 -74.4923)" cx="197.5" cy="182.6" rx="20.8" ry="18.8"/>
		<ellipse transform="matrix(0.9013 -0.4333 0.4333 0.9013 -66.7808 131.8306)" cx="255.8" cy="212.4" rx="18.8" ry="20.8"/>
		<path d="M262.1,140.7c6.4-3.1,8.9-11.4,5.4-18.5c-3.4-7.1-11.4-10.4-17.8-7.3c-6.4,3.1-8.9,11.4-5.4,18.5
			C247.7,140.5,255.7,143.8,262.1,140.7z"/>
		<path d="M355.9,175.6c-10.9,0-21.9,0-32.8,0c-1.4-16.1-5.6-31.5-12.2-45.5c9.5-5.5,19-11,28.5-16.4c13.3-7.7,1.3-28.3-12.1-20.6
			c-9.5,5.5-18.9,10.9-28.4,16.4c-9.1-12.9-20.4-24.2-33.3-33.3c5.5-9.5,10.9-18.9,16.4-28.4c7.7-13.4-12.9-25.4-20.6-12.1
			c-5.5,9.5-11,19-16.4,28.5c-14-6.6-29.4-10.8-45.5-12.2c0-10.9,0-21.9,0-32.8c0-15.4-23.9-15.4-23.9,0c0,10.9,0,21.9,0,32.8
			c-16.1,1.4-31.5,5.6-45.5,12.2c-5.5-9.5-11-19-16.4-28.5c-7.7-13.3-28.3-1.3-20.6,12.1c5.5,9.5,10.9,18.9,16.4,28.4
			c-12.9,9.1-24.2,20.4-33.3,33.3c-9.5-5.5-18.9-10.9-28.4-16.4c-13.4-7.7-25.4,12.9-12.1,20.6c9.5,5.5,19,11,28.5,16.4
			c-6.6,14-10.8,29.4-12.2,45.5c-10.9,0-21.9,0-32.8,0c-15.4,0-15.4,23.9,0,23.9c10.9,0,21.9,0,32.8,0c1.4,16.1,5.6,31.5,12.2,45.5
			c-9.5,5.5-19,11-28.5,16.4c-13.3,7.7-1.3,28.3,12.1,20.6c9.5-5.5,18.9-10.9,28.4-16.4c9.1,12.9,20.4,24.2,33.3,33.3
			c-5.5,9.5-10.9,18.9-16.4,28.4c-7.7,13.4,12.9,25.4,20.6,12.1c5.5-9.5,11-19,16.4-28.5c14,6.6,29.4,10.8,45.5,12.2
			c0,10.9,0,21.9,0,32.8c0,15.4,23.9,15.4,23.9,0c0-10.9,0-21.9,0-32.8c16.1-1.4,31.5-5.6,45.5-12.2c5.5,9.5,11,19,16.4,28.5
			c7.7,13.3,28.3,1.3,20.6-12.1c-5.5-9.5-10.9-18.9-16.4-28.4c12.9-9.1,24.2-20.4,33.3-33.3c9.5,5.5,18.9,10.9,28.4,16.4
			c13.4,7.7,25.4-12.9,12.1-20.6c-9.5-5.5-19-11-28.5-16.4c6.6-14,10.8-29.4,12.2-45.5c10.9,0,21.9,0,32.8,0
			C371.4,199.4,371.4,175.6,355.9,175.6z M187.5,299.8c-61.9,0-112.3-50.4-112.3-112.3c0-61.9,50.4-112.3,112.3-112.3
			c61.9,0,112.3,50.4,112.3,112.3C299.8,249.4,249.4,299.8,187.5,299.8z"/>
	</g>
</g>
</svg>
