<?xml version="1.0" encoding="utf-8"?>
<!-- Generator: Adobe Illustrator 18.0.0, SVG Export Plug-In . SVG Version: 6.00 Build 0)  -->
<!DOCTYPE svg PUBLIC "-//W3C//DTD SVG 1.1//EN" "http://www.w3.org/Graphics/SVG/1.1/DTD/svg11.dtd">
<svg version="1.1" id="Layer_1" xmlns="http://www.w3.org/2000/svg" xmlns:xlink="http://www.w3.org/1999/xlink" x="0px" y="0px"
	 viewBox="0 0 375 375" enable-background="new 0 0 375 375" xml:space="preserve">
<g>
	<g>
		<g>
			<g>
				<path d="M318.8,31.7c-19.8-9.4-41.4-10.4-60.8-4.6l-22.2-10.5c-13.5-6.4-29.6-0.6-35.9,12.8l-4.1,8.7c-3.6-1.7-7.4-2.6-11.4-2.6
					c-6.8,0-13.2,2.6-18.1,7.1c-4.8-4.4-11.1-7.1-18-7.1c-9.3,0-17.4,4.7-22.2,11.9c-4.6-3.7-10.3-5.9-16.6-5.9
					c-14.7,0-26.7,12-26.7,26.7c0,2.2,0.3,4.3,0.8,6.3c-10.2,3.7-17.6,13.5-17.6,25.1c0,6.5,2.3,12.4,6.2,17.1
					c-3.9,4.6-6.2,10.6-6.2,17.1c0,6.4,2.2,12.2,6,16.8c-3.7,4.6-6,10.4-6,16.8h-9.6c-14.9,0-27,12.1-27,27V219
					c-13.6,15.1-21.8,35-21.8,56.9c0,47,38.1,85.1,85.1,85.1c47,0,85.1-38.1,85.1-85.1c0-21.9-8.3-41.8-21.8-56.9v-24.6
					c0-14.9-12.1-27-27-27h-9.6c0-6.4-2.2-12.2-6-16.8c3.7-4.6,6-10.4,6-16.8c0-6.5-2.3-12.4-6.2-17.1c3.9-4.6,6.2-10.6,6.2-17.1
					c0-2.2-0.3-4.3-0.8-6.3c5.4-2,9.9-5.6,13.1-10.3c4.6,3.7,10.3,5.8,16.6,5.8c6.9,0,13.3-2.7,18-7c1.9,1.8,4.2,3.3,6.6,4.5l0,0
					l-4.1,8.7c-6.4,13.5-0.6,29.6,12.8,35.9l22.2,10.5c7.8,18.7,22.3,34.7,42.1,44.1c42.5,20.1,93.2,2,113.3-40.5
					C379.4,102.6,361.3,51.8,318.8,31.7z M87.7,83.7c4.7,6.6,12.3,11,20.9,11.2c0.4,1.5,0.7,3.1,0.7,4.7c0,4.1-1.5,7.8-3.9,10.7
					c-3.8-2.1-8.2-3.3-12.8-3.3s-9,1.2-12.8,3.3c-2.4-2.9-3.9-6.6-3.9-10.7C75.9,92.2,80.9,85.8,87.7,83.7z M109.3,133.8
					c0,3.9-1.4,7.5-3.6,10.4c-3.9-2.2-8.3-3.4-13.1-3.4c-4.7,0-9.2,1.3-13.1,3.4c-2.3-2.8-3.6-6.4-3.6-10.4c0-4.1,1.5-7.8,3.9-10.7
					c3.8,2.1,8.2,3.3,12.8,3.3s9-1.2,12.8-3.3C107.8,126,109.3,129.7,109.3,133.8z M155.5,275.9c0,34.7-28.2,62.9-62.9,62.9
					c-34.7,0-62.9-28.2-62.9-62.9c0-34.7,28.2-62.9,62.9-62.9C127.4,213,155.5,241.2,155.5,275.9z M75.9,167.4
					c0-3.9,1.4-7.5,3.6-10.4c3.9,2.2,8.3,3.4,13.1,3.4c4.7,0,9.2-1.3,13.1-3.4c2.3,2.8,3.6,6.4,3.6,10.4H75.9z M114.3,84.2
					c-4.7-6.6-12.3-11-20.9-11.2c-0.4-1.5-0.7-3.1-0.7-4.7c0-9.2,7.5-16.7,16.7-16.7c5,0,9.5,2.2,12.6,5.8c-0.3,1.6-0.5,3.2-0.5,4.9
					c0,4.6,1.2,8.9,3.2,12.6C122.8,79.3,119,82.8,114.3,84.2z M148.2,78.9c-5,0-9.5-2.2-12.6-5.8c0.3-1.6,0.5-3.2,0.5-4.9
					c0-4.6-1.2-8.9-3.2-12.6c2.6-5.9,8.5-10.1,15.3-10.1c4.7,0,9,2,12,5.1c0,0,0,0.1-0.1,0.1c-3.6,7.6-3.3,16,0.1,23
					C157.2,76.9,153,78.9,148.2,78.9z M172.3,73.8c1.7-3.5,2.7-7.4,2.7-11.5c0-4.1-1-8-2.6-11.5c3.1-3.2,7.4-5.2,12-5.2
					c2.5,0,4.9,0.5,7.1,1.6l0,0l-14.3,30.2C175.3,76.4,173.7,75.2,172.3,73.8z M339.2,135.6c-14.9,31.4-52.4,44.8-83.8,29.9
					c-31.4-14.9-44.8-52.4-29.9-83.8c14.9-31.4,52.4-44.8,83.8-29.9C340.7,66.7,354.1,104.2,339.2,135.6z"/>
			</g>
		</g>
	</g>
</g>
</svg>
