<?xml version="1.0" encoding="utf-8"?>
<!-- Generator: Adobe Illustrator 18.0.0, SVG Export Plug-In . SVG Version: 6.00 Build 0)  -->
<!DOCTYPE svg PUBLIC "-//W3C//DTD SVG 1.1//EN" "http://www.w3.org/Graphics/SVG/1.1/DTD/svg11.dtd">
<svg version="1.1" id="Layer_1" xmlns="http://www.w3.org/2000/svg" xmlns:xlink="http://www.w3.org/1999/xlink" x="0px" y="0px"
	 viewBox="0 0 375 375" enable-background="new 0 0 375 375" xml:space="preserve">
<g>
	<g>
		<path d="M105.4,46.5C81.7,24.6,44.8,26.1,23,49.8c-21.8,23.7-20.4,60.5,3.3,82.4L94.3,195l79.1-85.7L105.4,46.5z"/>
		<path d="M348.1,133c24-21.5,26.1-58.3,4.6-82.3c-21.5-24-58.3-26.1-82.3-4.6l-69.1,61.8l77.7,86.9L348.1,133z"/>
		<circle cx="133.5" cy="195" r="14.1"/>
		<circle cx="173.4" cy="145.5" r="14.1"/>
		<circle cx="213.9" cy="180.9" r="14.1"/>
		<path d="M192.4,231.4c0,7.8-6.3,14.1-14.1,14.1c-7.8,0-14.1-6.3-14.1-14.1c0-7.8,6.3-14.1,14.1-14.1
			C186.1,217.3,192.4,223.6,192.4,231.4z"/>
		<circle cx="231.4" cy="245.4" r="14.1"/>
		<circle cx="133.5" cy="273.6" r="14.1"/>
		<path d="M210.5,287.7c0,7.8-6.3,14.1-14.1,14.1c-7.8,0-14.1-6.3-14.1-14.1c0-7.8,6.3-14.1,14.1-14.1
			C204.2,273.6,210.5,279.9,210.5,287.7z"/>
		<circle cx="155.3" cy="315.8" r="14.1"/>
		<path d="M222.3,329.9c0,7.8-6.3,14.1-14.1,14.1c-7.8,0-14.1-6.3-14.1-14.1c0-7.8,6.3-14.1,14.1-14.1
			C216,315.8,222.3,322.1,222.3,329.9z"/>
	</g>
</g>
</svg>
