<?xml version="1.0" encoding="utf-8"?>
<!-- Generator: Adobe Illustrator 18.0.0, SVG Export Plug-In . SVG Version: 6.00 Build 0)  -->
<!DOCTYPE svg PUBLIC "-//W3C//DTD SVG 1.1//EN" "http://www.w3.org/Graphics/SVG/1.1/DTD/svg11.dtd">
<svg version="1.1" id="Layer_1" xmlns="http://www.w3.org/2000/svg" xmlns:xlink="http://www.w3.org/1999/xlink" x="0px" y="0px"
	 viewBox="0 0 375 375" enable-background="new 0 0 375 375" xml:space="preserve">
<g>
	<g>
		<path d="M217.8,232.7c10-8.6,16.3-21.4,16.3-35.6c0-26-21.1-47.1-47.1-47.1c-26,0-47.1,21.1-47.1,47.1c0,14.9,7,28.2,17.8,36.8
			c-31.1,7.1-54.3,34.9-54.3,68.1v54.6h175.7V302C279.2,266.3,252.4,236.9,217.8,232.7z"/>
		<polygon points="177.4,124.2 202.7,124.2 202.7,54.6 226.3,54.6 190,18.4 153.8,54.6 177.4,54.6 		"/>
		<polygon points="78.7,103.8 127.9,153.1 145.8,135.2 96.6,85.9 113.2,69.3 62,69.3 62,120.5 		"/>
		<polygon points="113.3,183.1 43.7,183.1 43.7,159.6 7.5,195.8 43.7,232 43.7,208.5 113.3,208.5 		"/>
		<polygon points="367.5,200.9 331.3,164.7 331.3,188.2 261.7,188.2 261.7,213.6 331.3,213.6 331.3,237.1 		"/>
		<polygon points="250.7,156.7 299.9,107.4 316.6,124.1 316.6,72.9 265.4,72.9 282,89.5 232.8,138.8 		"/>
	</g>
</g>
</svg>
