<?xml version="1.0" encoding="utf-8"?>
<!-- Generator: Adobe Illustrator 18.0.0, SVG Export Plug-In . SVG Version: 6.00 Build 0)  -->
<!DOCTYPE svg PUBLIC "-//W3C//DTD SVG 1.1//EN" "http://www.w3.org/Graphics/SVG/1.1/DTD/svg11.dtd">
<svg version="1.1" id="Layer_1" xmlns="http://www.w3.org/2000/svg" xmlns:xlink="http://www.w3.org/1999/xlink" x="0px" y="0px"
	 viewBox="0 0 375 375" enable-background="new 0 0 375 375" xml:space="preserve">
<g>
	<g>
		<path d="M256.3,118.7c-38-38-99.7-38-137.7,0c-38,38-38,99.7,0,137.7c38,38,99.7,38,137.7,0C294.3,218.4,294.3,156.6,256.3,118.7z
			 M149.9,225.1c-20.7-20.7-20.7-54.4,0-75.1c20.7-20.7,54.4-20.7,75.1,0c20.7,20.7,20.7,54.4,0,75.1
			C204.4,245.8,170.6,245.8,149.9,225.1z"/>
		<path d="M142,54.9c-15.6,5.4-29.9,13.3-42.7,23.6L58.6,37.8L88.9,7.5l-81.4,0v81.4l30.3-30.3l40.7,40.7
			c-9.2,11.3-16.5,23.9-21.8,37.5l18.1,7c6.1-15.7,15.2-29.8,27.3-41.8c13.2-13.2,28.7-22.9,46.2-28.9L142,54.9z"/>
		<path d="M275.7,78.5c-11.3-9.2-23.9-16.5-37.5-21.8l-7,18.1c15.7,6.1,29.8,15.2,41.8,27.3c13.2,13.2,22.9,28.7,28.9,46.2l18.4-6.3
			c-5.4-15.6-13.3-29.9-23.6-42.6l40.8-40.7l30.3,30.3V7.5h-81.4l30.3,30.3L275.7,78.5z"/>
		<path d="M99.3,296.5c11.3,9.2,23.9,16.5,37.5,21.8l7-18.1c-15.7-6.1-29.8-15.2-41.8-27.3c-13.2-13.2-22.9-28.7-28.9-46.2L54.9,233
			c5.3,15.6,13.3,29.9,23.6,42.7l-40.7,40.7L7.5,286.1l0,81.4h81.4l-30.3-30.3L99.3,296.5z"/>
		<path d="M367.5,367.5v-81.4l-30.3,30.3l-40.7-40.7c9.2-11.3,16.5-23.9,21.8-37.5l-18.1-7c-6.1,15.7-15.2,29.8-27.3,41.8
			c-13.2,13.2-28.7,22.9-46.2,28.9l6.3,18.4c15.6-5.3,29.9-13.3,42.7-23.6l40.7,40.7l-30.3,30.3H367.5z"/>
		<polygon points="196.4,154.4 163.2,163.2 154.4,196.4 178.6,220.6 211.8,211.8 220.6,178.6 		"/>
	</g>
</g>
</svg>
