<?xml version="1.0" encoding="utf-8"?>
<!-- Generator: Adobe Illustrator 18.0.0, SVG Export Plug-In . SVG Version: 6.00 Build 0)  -->
<!DOCTYPE svg PUBLIC "-//W3C//DTD SVG 1.1//EN" "http://www.w3.org/Graphics/SVG/1.1/DTD/svg11.dtd">
<svg version="1.1" id="Layer_1" xmlns="http://www.w3.org/2000/svg" xmlns:xlink="http://www.w3.org/1999/xlink" x="0px" y="0px"
	 viewBox="0 0 375 375" enable-background="new 0 0 375 375" xml:space="preserve">
<g>
	<g>
		<path d="M356,111l-92-92c-15.4-15.4-40.4-15.4-55.8,0L19,208.2C3.7,223.5,3.7,248.6,19,264l92,92c15.4,15.4,40.4,15.4,55.8,0
			L356,166.8C371.3,151.5,371.3,126.4,356,111z M345.1,155.9l-30.2,30.2l-57.6-57.6l47.2-47.2l40.6,40.6
			C354.5,131.3,354.5,146.6,345.1,155.9z M176.6,187.5l-48.1,48.1L71,178l48.1-48.1L176.6,187.5z M129.9,119L178,71l57.6,57.6
			l-48.1,48.1L129.9,119z M187.5,198.4l57.6,57.6L197,304l-57.6-57.6L187.5,198.4z M198.4,187.5l48.1-48.1L304,197L256,245.1
			L198.4,187.5z M253.1,29.9l40.6,40.6l-47.2,47.2l-57.6-57.6l30.2-30.2C228.4,20.5,243.7,20.5,253.1,29.9z M29.9,219.1l30.2-30.2
			l57.6,57.6l-47.2,47.2l-40.6-40.6C20.5,243.7,20.5,228.4,29.9,219.1z M121.9,345.1l-40.6-40.6l47.2-47.2l57.6,57.6l-30.2,30.2
			C146.6,354.5,131.3,354.5,121.9,345.1z"/>
		<path d="M223.3,81.8c4.6,4.6,10.7,7.1,17.2,7.1c6.5,0,12.6-2.5,17.2-7.1c4.6-4.6,7.1-10.7,7.1-17.2s-2.5-12.6-7.1-17.2
			c-4.6-4.6-10.7-7.1-17.2-7.1c-6.5,0-12.6,2.5-17.2,7.1c-4.6,4.6-7.1,10.7-7.1,17.2C216.2,71.1,218.7,77.2,223.3,81.8z M223.9,64.6
			c0-4.5,1.7-8.6,4.9-11.8c2.2-2.2,5-3.7,7.9-4.4v32.4c-3-0.7-5.7-2.2-7.9-4.4C225.6,73.2,223.9,69,223.9,64.6z M257.2,64.6
			c0,4.5-1.7,8.6-4.9,11.8c-2.2,2.2-5,3.7-7.9,4.4V48.4c3,0.7,5.7,2.2,7.9,4.4C255.5,55.9,257.2,60.1,257.2,64.6z"/>
		<path d="M286.1,134.5c0,6.5,2.5,12.6,7.1,17.2c4.6,4.6,10.7,7.1,17.2,7.1c6.5,0,12.6-2.5,17.2-7.1c4.6-4.6,7.1-10.7,7.1-17.2
			c0-6.5-2.5-12.6-7.1-17.2c-4.6-4.6-10.7-7.1-17.2-7.1c-6.5,0-12.6,2.5-17.2,7.1C288.6,121.8,286.1,128,286.1,134.5z M310.4,151.1
			c-4.5,0-8.6-1.7-11.8-4.9c-2.2-2.2-3.7-5-4.4-7.9l32.4,0c-0.7,3-2.2,5.7-4.4,7.9C319.1,149.4,314.9,151.1,310.4,151.1z
			 M310.4,117.8c4.5,0,8.6,1.7,11.8,4.9c2.2,2.2,3.7,5,4.4,7.9l-32.4,0c0.7-3,2.2-5.7,4.4-7.9C301.8,119.5,306,117.8,310.4,117.8z"
			/>
		<path d="M207.1,122.3c0-6.5-2.5-12.6-7.1-17.2c-4.6-4.6-10.7-7.1-17.2-7.1c-13.4,0-24.4,10.9-24.4,24.4c0,6.5,2.5,12.6,7.1,17.2
			s10.7,7.1,17.2,7.1C196.2,146.7,207.1,135.8,207.1,122.3z M199.4,122.3c0,7.9-5.5,14.4-12.8,16.2l0-32.4c3,0.7,5.7,2.2,7.9,4.4
			C197.7,113.7,199.4,117.9,199.4,122.3z M166.1,122.3c0-7.9,5.5-14.4,12.8-16.2l0,32.4c-3-0.7-5.7-2.2-7.9-4.4
			C167.8,131,166.1,126.8,166.1,122.3z"/>
		<path d="M277,192.2c0-6.5-2.5-12.6-7.1-17.2c-4.6-4.6-10.7-7.1-17.2-7.1c-13.4,0-24.4,10.9-24.4,24.4c0,6.5,2.5,12.6,7.1,17.2
			c4.6,4.6,10.7,7.1,17.2,7.1C266.1,216.6,277,205.7,277,192.2z M252.7,175.6c4.5,0,8.6,1.7,11.8,4.9c2.2,2.2,3.7,5,4.4,7.9h-32.4
			C238.2,181,244.8,175.6,252.7,175.6z M252.7,208.9c-4.5,0-8.6-1.7-11.8-4.9c-2.2-2.2-3.7-5-4.4-7.9h32.4
			C267.1,203.4,260.5,208.9,252.7,208.9z"/>
		<path d="M88.9,240.5c0-6.5-2.5-12.6-7.1-17.2c-4.6-4.6-10.7-7.1-17.2-7.1c-6.5,0-12.6,2.5-17.2,7.1c-4.6,4.6-7.1,10.7-7.1,17.2
			c0,6.5,2.5,12.6,7.1,17.2c4.6,4.6,10.7,7.1,17.2,7.1s12.6-2.5,17.2-7.1C86.4,253.2,88.9,247,88.9,240.5z M64.6,223.9
			c4.5,0,8.6,1.7,11.8,4.9c2.2,2.2,3.7,5,4.4,7.9H48.4c0.7-3,2.2-5.7,4.4-7.9C55.9,225.6,60.1,223.9,64.6,223.9z M64.6,257.2
			c-4.5,0-8.6-1.7-11.8-4.9c-2.2-2.2-3.7-5-4.4-7.9l32.4,0c-0.7,3-2.2,5.7-4.4,7.9C73.2,255.5,69,257.2,64.6,257.2z"/>
		<path d="M151.7,293.2c-4.6-4.6-10.7-7.1-17.2-7.1c-6.5,0-12.6,2.5-17.2,7.1c-4.6,4.6-7.1,10.7-7.1,17.2c0,6.5,2.5,12.6,7.1,17.2
			c4.6,4.6,10.7,7.1,17.2,7.1c6.5,0,12.6-2.5,17.2-7.1c4.6-4.6,7.1-10.7,7.1-17.2C158.8,303.9,156.3,297.8,151.7,293.2z
			 M151.1,310.4c0,4.5-1.7,8.6-4.9,11.8c-2.2,2.2-5,3.7-7.9,4.4l0-32.4c3,0.7,5.7,2.2,7.9,4.4C149.4,301.8,151.1,306,151.1,310.4z
			 M117.8,310.4c0-4.5,1.7-8.6,4.9-11.8c2.2-2.2,5-3.7,7.9-4.4v32.4c-3-0.7-5.7-2.2-7.9-4.4C119.5,319.1,117.8,314.9,117.8,310.4z"
			/>
		<path d="M98,182.8c0,6.5,2.5,12.6,7.1,17.2c4.6,4.6,10.7,7.1,17.2,7.1c13.4,0,24.4-10.9,24.4-24.4c0-6.5-2.5-12.6-7.1-17.2
			c-4.6-4.6-10.7-7.1-17.2-7.1C108.9,158.4,98,169.3,98,182.8z M122.3,199.4c-4.5,0-8.6-1.7-11.8-4.9c-2.2-2.2-3.7-5-4.4-7.9l32.4,0
			C136.8,193.9,130.2,199.4,122.3,199.4z M122.3,166.1c4.5,0,8.6,1.7,11.8,4.9c2.2,2.2,3.7,5,4.4,7.9l-32.4,0
			C107.9,171.6,114.5,166.1,122.3,166.1z"/>
		<path d="M216.6,252.7c0-6.5-2.5-12.6-7.1-17.2c-4.6-4.6-10.7-7.1-17.2-7.1c-13.4,0-24.4,10.9-24.4,24.4c0,6.5,2.5,12.6,7.1,17.2
			c4.6,4.6,10.7,7.1,17.2,7.1C205.7,277,216.6,266.1,216.6,252.7z M208.9,252.7c0,7.9-5.5,14.4-12.8,16.2v-32.4
			c3,0.7,5.7,2.2,7.9,4.4C207.2,244,208.9,248.2,208.9,252.7z M175.6,252.7c0-7.9,5.5-14.4,12.8-16.2l0,32.4c-3-0.7-5.7-2.2-7.9-4.4
			C177.3,261.3,175.6,257.1,175.6,252.7z"/>
	</g>
</g>
</svg>
